<svg xmlns="http://www.w3.org/2000/svg" width="1500" height="1500" viewBox="0 0 1500 1500"><title>Freight-Trust</title><rect width="750" height="750" fill="#002d7b"/><rect x="37.93" y="787.93" width="674.14" height="674.14" fill="#f6f6f6"/><rect x="750" y="750" width="750" height="750" fill="#31ece6"/><path d="M229.48,212.76a7.69,7.69,0,0,0,6.64-3.84H241l-.51,1.13a11.85,11.85,0,0,1-1.9,3.07,12.21,12.21,0,0,1-9.13,4.13h-2.87Z" fill="#31ece6"/><path d="M183.39,199.49l-3.89-2.25L198.71,164a12.2,12.2,0,0,1,10.54-6.08h38l2,4.49h-40a7.69,7.69,0,0,0-6.65,3.84Z" fill="#31ece6"/><path d="M248.78,196h-5.2l9.15-15.7a.26.26,0,0,0,0-.28.26.26,0,0,0-.24-.14H221.15a7.68,7.68,0,0,0-6.64,3.84L207.41,196h-5.19l8.4-14.54a12.19,12.19,0,0,1,10.53-6.08h31.34a4.76,4.76,0,0,1,4.12,7.17Z" fill="#31ece6"/><path d="M240.51,143.48a11.85,11.85,0,0,0-1.9-3.07,12.21,12.21,0,0,0-9.13-4.13h-32.7a12.2,12.2,0,0,0-10.54,6.08l-16.35,28.32a12.19,12.19,0,0,0,0,12.17l16.35,28.32a12.2,12.2,0,0,0,10.54,6.08H212.9a6.64,6.64,0,0,0,5.74-3.31l20.43-35.18-3.89-2.25-20.43,35.18a2.14,2.14,0,0,1-1.85,1.07H196.78a7.69,7.69,0,0,1-6.65-3.84L173.78,180.6a7.72,7.72,0,0,1,0-7.67l16.35-28.32a7.69,7.69,0,0,1,6.65-3.84h32.7a7.69,7.69,0,0,1,6.64,3.84H241Z" fill="#31ece6"/><path d="M214.63,389.88v-3.33a5.69,5.69,0,0,0,4.92-2.85l2.89,1.67A9.05,9.05,0,0,1,214.63,389.88Z" fill="#31ece6"/><path d="M180.46,376.71,177.58,375l14.24-24.67a9.05,9.05,0,0,1,7.81-4.51h28.49v3.34H199.63A5.72,5.72,0,0,0,194.7,352Z" fill="#31ece6"/><path d="M228,375.8l-2.88-1.68,6.79-11.63a.21.21,0,0,0,0-.21.2.2,0,0,0-.18-.1H208.46a5.71,5.71,0,0,0-4.93,2.84l-6.22,10.78-2.89-1.67,6.23-10.78a9,9,0,0,1,7.81-4.51h23.23a3.54,3.54,0,0,1,3.05,5.32Z" fill="#31ece6"/><path d="M202.34,389.88h-12a9,9,0,0,1-7.81-4.51l-12.12-21a9,9,0,0,1,0-9l12.12-21a9,9,0,0,1,7.81-4.51h24.24a9.05,9.05,0,0,1,7.81,4.51L219.55,336a5.69,5.69,0,0,0-4.92-2.85H190.39a5.7,5.7,0,0,0-4.93,2.85l-12.12,21a5.72,5.72,0,0,0,0,5.69l12.12,21a5.7,5.7,0,0,0,4.93,2.85h12a1.59,1.59,0,0,0,1.37-.8l15.15-26.08,2.88,1.68-15.15,26.08A4.94,4.94,0,0,1,202.34,389.88Z" fill="#31ece6"/><path d="M292.6,358.78v4.41H276.1v14.73h-5V343.47h25.21v4.41H276.1v10.9Z" fill="#fff"/><path d="M315.37,354.05v4.41h-.21a6.55,6.55,0,0,0-3.78-1.14c-4.67,0-6.9,3.22-6.9,9.55v11.05h-4.41V353.64h3.73l.11,3.89h.1c1.45-2.91,4-4.41,7.68-4.41A7,7,0,0,1,315.37,354.05Z" fill="#fff"/><path d="M321.75,367.23c.62,4.52,4.26,7.27,9.75,7.27a12.69,12.69,0,0,0,9-3.33h.21v4.47a14.91,14.91,0,0,1-9.29,2.8c-8.56,0-14.11-5-14.11-12.66,0-7.42,5.24-12.66,12.66-12.66s12.29,4.62,12.29,11.67v2.44Zm0-3.68h16.4c-.63-3.94-3.74-6.49-8.15-6.49A8.14,8.14,0,0,0,321.75,363.55Z" fill="#fff"/><path d="M352.57,346a2.91,2.91,0,1,1-2.91-2.9A2.79,2.79,0,0,1,352.57,346Zm-5.09,7.63h4.41v24.28h-4.41Z" fill="#fff"/><path d="M382.66,376c0,7.68-4.88,12.29-13.13,12.29-4.25,0-7.88-1.19-10.12-3.21v-4.62h.21c2,2.44,5.45,3.89,9.44,3.89,5.87,0,9.19-3.06,9.19-8.61v-1.19h-.11c-1.92,2.33-4.93,3.68-8.87,3.68-7,0-12.14-5.19-12.14-12.55s5.09-12.56,12.14-12.56c4.26,0,7.58,1.66,9.39,4.41h.11l.15-3.89h3.74Zm-4.26-10.32c0-5.14-3.47-8.62-8.4-8.62s-8.41,3.48-8.41,8.62,3.43,8.61,8.41,8.61S378.4,370.81,378.4,365.68Z" fill="#fff"/><path d="M412.12,363.81v14.11h-4.41V364.33c0-4.57-2.49-7.27-6.59-7.27-4.51,0-7.21,3.12-7.21,8.25v12.61H389.5V341.6h4.41v15H394c1.71-2.28,4.56-3.53,8.14-3.53C408.34,353.12,412.12,357.17,412.12,363.81Z" fill="#fff"/><path d="M432.3,377.56a9.5,9.5,0,0,1-4.41.88c-5.08,0-7.93-3-7.93-8.46v-12.5h-4.47v-3.84h4.57l.67-6.59h3.64v6.59h7.83v3.84h-7.83v12.4c0,2.9,1.55,4.62,4.15,4.62a4.69,4.69,0,0,0,3.58-1.41h.2Z" fill="#fff"/><path d="M464.83,377.92h-7.68v-27.6H446.88v-6.85h28.17v6.85H464.83Z" fill="#31ece6"/><path d="M493.88,354v6.64h-.26a6.56,6.56,0,0,0-3.84-1.14c-4.15,0-6,2.54-6,8v10.48H477V353.54h5.65l.31,3.78H483c1.35-2.85,3.73-4.3,7.26-4.3A6,6,0,0,1,493.88,354Z" fill="#31ece6"/><path d="M514.42,377.92l-.26-3.48h-.1c-1.45,2.55-4,4-7.57,4-6,0-9.5-3.89-9.5-10.48V353.54h6.8v13.64c0,3.37,1.66,5.24,4.51,5.24,3.12,0,5-2.13,5-5.91v-13h6.8v24.38Z" fill="#31ece6"/><path d="M542.85,354.57v6.49h-.26c-1.6-1.61-4.09-2.44-7.26-2.44-2.65,0-3.94.78-3.94,2.28,0,1.09.83,1.56,4,1.77,6.49.41,9,2.69,9,7.83,0,5-3.73,7.94-10,7.94-4.05,0-7.16-.73-9.24-2.18v-6.54h.32c1.91,2.08,4.82,3.12,8.61,3.12,2.64,0,3.94-.78,3.94-2.34,0-1.3-1-1.82-4.46-2.13-6.18-.57-8.61-2.44-8.61-7.26s4-8.09,10.16-8.09A17.65,17.65,0,0,1,542.85,354.57Z" fill="#31ece6"/><path d="M563.92,377.61a11,11,0,0,1-4.78.83c-5.91,0-9.08-3.22-9.08-9.39v-9.76h-4v-5.75h4.25l.88-6.85h5.71v6.85h7v5.75h-7v9.5c0,2.33,1.25,3.63,3.37,3.63a4.4,4.4,0,0,0,3.43-1.4h.26Z" fill="#31ece6"/><path d="M207.45,590.32v-3a5.11,5.11,0,0,0,4.42-2.56l2.59,1.5A8.13,8.13,0,0,1,207.45,590.32Z" fill="#31ece6"/><path d="M176.8,578.51,174.21,577,187,554.88a8.11,8.11,0,0,1,7-4h25.55v3H194a5.1,5.1,0,0,0-4.42,2.56Z" fill="#31ece6"/><path d="M219.41,577.7l-2.58-1.51,6.09-10.44a.2.2,0,0,0,0-.19.18.18,0,0,0-.16-.09H201.91a5.14,5.14,0,0,0-4.42,2.55l-5.58,9.67-2.59-1.49,5.59-9.67a8.1,8.1,0,0,1,7-4h20.85a3.18,3.18,0,0,1,2.74,4.77Z" fill="#31ece6"/><path d="M196.42,590.32H185.7a8.13,8.13,0,0,1-7-4l-10.87-18.84a8.12,8.12,0,0,1,0-8.09l10.87-18.83a8.11,8.11,0,0,1,7-4h21.75a8.11,8.11,0,0,1,7,4L211.87,542a5.12,5.12,0,0,0-4.42-2.55H185.7a5.12,5.12,0,0,0-4.42,2.55l-10.87,18.84a5.1,5.1,0,0,0,0,5.1l10.87,18.83a5.11,5.11,0,0,0,4.42,2.56h10.72a1.46,1.46,0,0,0,1.24-.71l13.59-23.4,2.58,1.5-13.59,23.4A4.44,4.44,0,0,1,196.42,590.32Z" fill="#31ece6"/><path d="M259.11,552.24v2.86H248.4v9.57h-3.23V542.3h16.37v2.87H248.4v7.07Z" fill="#fff"/><path d="M273.9,549.17V552h-.13a4.28,4.28,0,0,0-2.46-.74c-3,0-4.48,2.09-4.48,6.2v7.17H264V548.91h2.43l.07,2.52h.06a5.13,5.13,0,0,1,5-2.86A4.6,4.6,0,0,1,273.9,549.17Z" fill="#fff"/><path d="M278,557.73c.41,2.93,2.77,4.72,6.34,4.72a8.23,8.23,0,0,0,5.83-2.16h.13v2.9a9.62,9.62,0,0,1-6,1.82c-5.56,0-9.16-3.27-9.16-8.22a7.89,7.89,0,0,1,8.22-8.22c4.85,0,8,3,8,7.58v1.58Zm0-2.39h10.65c-.4-2.56-2.42-4.21-5.29-4.21A5.29,5.29,0,0,0,278,555.34Z" fill="#fff"/><path d="M298.06,544a1.89,1.89,0,1,1-1.89-1.88A1.81,1.81,0,0,1,298.06,544Zm-3.31,5h2.87v15.76h-2.87Z" fill="#fff"/><path d="M317.59,563.43c0,5-3.16,8-8.52,8a9.81,9.81,0,0,1-6.57-2.09v-3h.14a7.77,7.77,0,0,0,6.13,2.53c3.8,0,6-2,6-5.59v-.78h-.07a7.12,7.12,0,0,1-5.76,2.4c-4.58,0-7.88-3.37-7.88-8.16s3.3-8.15,7.88-8.15a7,7,0,0,1,6.1,2.86h.07l.1-2.52h2.42Zm-2.76-6.71a5.46,5.46,0,1,0-5.46,5.59A5.27,5.27,0,0,0,314.83,556.72Z" fill="#fff"/><path d="M336.73,555.51v9.16h-2.86v-8.82c0-3-1.62-4.72-4.28-4.72-2.93,0-4.69,2-4.69,5.36v8.18H322V541.09h2.86v9.77H325a6.34,6.34,0,0,1,5.29-2.29C334.27,548.57,336.73,551.2,336.73,555.51Z" fill="#fff"/><path d="M349.83,564.44A6.14,6.14,0,0,1,347,565c-3.3,0-5.16-2-5.16-5.49V551.4h-2.89v-2.49h3l.44-4.28h2.36v4.28h5.09v2.49h-5.09v8.05c0,1.89,1,3,2.69,3a3.07,3.07,0,0,0,2.33-.91h.13Z" fill="#fff"/><path d="M251.74,585h-3.66V571.84h-4.9v-3.27h13.44v3.27h-4.88Z" fill="#31ece6"/><path d="M265.61,573.57v3.17h-.13a3.17,3.17,0,0,0-1.83-.54c-2,0-2.87,1.21-2.87,3.81v5h-3.24V573.38h2.7l.15,1.8h0a3.51,3.51,0,0,1,3.47-2A2.92,2.92,0,0,1,265.61,573.57Z" fill="#31ece6"/><path d="M275.41,585l-.12-1.66h-.05a3.92,3.92,0,0,1-3.62,1.91c-2.84,0-4.53-1.86-4.53-5v-6.88h3.25v6.51c0,1.6.79,2.49,2.15,2.49s2.38-1,2.38-2.82v-6.18h3.24V585Z" fill="#31ece6"/><path d="M289,573.87V577h-.13a4.77,4.77,0,0,0-3.46-1.16c-1.26,0-1.88.37-1.88,1.09,0,.52.39.74,1.93.84,3.09.2,4.3,1.29,4.3,3.74s-1.78,3.79-4.77,3.79a7.76,7.76,0,0,1-4.41-1V581.1h.15a5.36,5.36,0,0,0,4.11,1.48c1.26,0,1.88-.37,1.88-1.11s-.5-.87-2.13-1c-2.94-.27-4.11-1.16-4.11-3.46s1.91-3.86,4.85-3.86A8.43,8.43,0,0,1,289,573.87Z" fill="#31ece6"/><path d="M299,584.86a5.27,5.27,0,0,1-2.28.4c-2.82,0-4.33-1.54-4.33-4.48v-4.66h-1.93v-2.74h2l.42-3.27h2.72v3.27H299v2.74h-3.34v4.53a1.52,1.52,0,0,0,1.61,1.73,2.08,2.08,0,0,0,1.63-.66H299Z" fill="#31ece6"/><path d="M475.49,590.32v-3a5.1,5.1,0,0,0,4.42-2.56l2.59,1.5A8.11,8.11,0,0,1,475.49,590.32Z" fill="#31ece6"/><path d="M444.84,578.51,442.25,577,455,554.88a8.13,8.13,0,0,1,7-4H487.6v3H462a5.11,5.11,0,0,0-4.42,2.56Z" fill="#31ece6"/><path d="M487.46,577.7l-2.59-1.51L491,565.75a.16.16,0,0,0,0-.19.17.17,0,0,0-.16-.09H470a5.12,5.12,0,0,0-4.42,2.55L460,577.69l-2.59-1.49,5.58-9.67a8.11,8.11,0,0,1,7-4H490.8a3.18,3.18,0,0,1,2.74,4.77Z" fill="#31ece6"/><path d="M464.47,590.32H453.75a8.11,8.11,0,0,1-7-4l-10.88-18.84a8.12,8.12,0,0,1,0-8.09l10.88-18.83a8.1,8.1,0,0,1,7-4h21.74a8.1,8.1,0,0,1,7,4L479.91,542a5.11,5.11,0,0,0-4.42-2.55H453.75a5.11,5.11,0,0,0-4.42,2.55l-10.88,18.84a5.1,5.1,0,0,0,0,5.1l10.88,18.83a5.1,5.1,0,0,0,4.42,2.56h10.72a1.44,1.44,0,0,0,1.23-.71l13.59-23.4,2.58,1.5-13.58,23.4A4.44,4.44,0,0,1,464.47,590.32Z" fill="#31ece6"/><path d="M523,550.33v1.29H523a5.67,5.67,0,0,0-4.27-1.53c-2.14,0-3.63,1.14-3.63,2.76,0,1.45.89,2.11,3.77,2.39,3.56.33,4.83,1.35,4.83,3.69s-1.87,3.75-4.87,3.75a7.76,7.76,0,0,1-5-1.49V559.9h.06a6.75,6.75,0,0,0,5,1.79c2.35,0,3.75-1,3.75-2.76s-.93-2.3-4-2.62C515.18,556,514,555,514,552.87s1.88-3.77,4.72-3.77A6.75,6.75,0,0,1,523,550.33Z" fill="#fff"/><path d="M534.32,557.18v5.3h-1v-5.2c0-2.08-1.15-3.33-3.11-3.33s-3.38,1.46-3.38,3.83v4.7h-1V548.59h1v6.33h0a3.79,3.79,0,0,1,3.52-1.89C532.81,553,534.32,554.62,534.32,557.18Z" fill="#fff"/><path d="M538.11,550.29a.74.74,0,1,1-.74-.75A.74.74,0,0,1,538.11,550.29Zm-1.23,2.94h1v9.25h-1Z" fill="#fff"/><path d="M550.36,557.86a4.6,4.6,0,0,1-4.73,4.82,4.34,4.34,0,0,1-3.89-1.93h0v5.5h-1v-13h.87l0,1.91h0a4.36,4.36,0,0,1,4-2.11A4.61,4.61,0,0,1,550.36,557.86Zm-1,0a3.84,3.84,0,1,0-3.83,3.91A3.7,3.7,0,0,0,549.32,557.86Z" fill="#fff"/><path d="M562.21,557.86a4.6,4.6,0,0,1-4.73,4.82,4.35,4.35,0,0,1-3.89-1.93h0v5.5h-1v-13h.87l0,1.91h0a4.37,4.37,0,0,1,4-2.11A4.61,4.61,0,0,1,562.21,557.86Zm-1,0a3.84,3.84,0,1,0-3.83,3.91A3.7,3.7,0,0,0,561.17,557.86Z" fill="#fff"/><path d="M565.62,550.29a.74.74,0,1,1-.73-.75A.74.74,0,0,1,565.62,550.29Zm-1.23,2.94h1v9.25h-1Z" fill="#fff"/><path d="M576.72,557.18v5.3h-1v-5.2c0-2.08-1.15-3.33-3.11-3.33s-3.38,1.46-3.38,3.83v4.7h-1v-9.25h.87l0,1.91h0a3.81,3.81,0,0,1,3.64-2.11C575.21,553,576.72,554.62,576.72,557.18Z" fill="#fff"/><path d="M588.33,561.75c0,3-1.79,4.7-4.88,4.7a5.44,5.44,0,0,1-4-1.39V564h0a4.78,4.78,0,0,0,3.82,1.59c2.52,0,4-1.37,4-3.83v-1h0a4.36,4.36,0,0,1-3.89,2,4.81,4.81,0,0,1,0-9.61,4.36,4.36,0,0,1,4,2.11h0l0-1.91h.89Zm-1-3.91a3.86,3.86,0,1,0-3.88,3.89A3.71,3.71,0,0,0,587.38,557.84Z" fill="#fff"/><path d="M522.39,581.17a6,6,0,0,1-4.21,1.55c-2.62,0-4.21-1.31-4.21-3.5,0-1.65.85-2.8,2.78-3.75l-.24-.24a4.19,4.19,0,0,1-1.55-3.08c0-1.84,1.35-3,3.48-3s3.43,1.09,3.43,2.82c0,1.56-.87,2.6-3.55,3.75l4,4.07a6.34,6.34,0,0,0,.95-3.58c0-.25,0-.53,0-.81h1c0,.26,0,.54,0,.79a6.74,6.74,0,0,1-1.27,4.27l2.05,2.07h-1.35Zm-.66-.66-4.33-4.37c-1.7.86-2.42,1.73-2.42,3,0,1.71,1.17,2.68,3.26,2.68A4.85,4.85,0,0,0,521.73,580.51ZM517.64,575c2.56-1,3.3-1.82,3.3-3s-1-2-2.44-2-2.53.83-2.53,2.1c0,.94.34,1.57,1.39,2.6Z" fill="#fff"/><path d="M531.58,582.52V569.34h1.09v12.18h8.12v1Z" fill="#fff"/><path d="M551.88,577.89a4.87,4.87,0,1,1-4.88-4.82A4.65,4.65,0,0,1,551.88,577.89Zm-8.71,0A3.84,3.84,0,1,0,547,574,3.72,3.72,0,0,0,543.17,577.89Z" fill="#fff"/><path d="M563.12,581.78c0,3-1.79,4.71-4.88,4.71a5.48,5.48,0,0,1-4-1.39V584h.06a4.73,4.73,0,0,0,3.81,1.58c2.52,0,4-1.37,4-3.83v-1h0a4.37,4.37,0,0,1-3.89,2,4.81,4.81,0,0,1,0-9.61,4.35,4.35,0,0,1,4,2.1h0l0-1.9h.89Zm-1-3.91a3.86,3.86,0,1,0-3.87,3.89A3.72,3.72,0,0,0,562.17,577.87Z" fill="#fff"/><path d="M567.17,570.33a.74.74,0,0,1-1.47,0,.74.74,0,1,1,1.47,0Zm-1.23,2.94h1v9.25h-1Z" fill="#fff"/><path d="M575.68,573.86V575h-.06a4,4,0,0,0-3-1c-1.41,0-2.44.79-2.44,1.89,0,.93.59,1.35,2.52,1.45,2.56.14,3.47.89,3.47,2.62s-1.37,2.78-3.51,2.78a5.29,5.29,0,0,1-3.54-1.06v-1.17h.06a4.38,4.38,0,0,0,3.46,1.31c1.55,0,2.56-.73,2.56-1.86s-.64-1.49-2.68-1.61c-2.48-.14-3.34-.87-3.34-2.44s1.39-2.82,3.42-2.82A5.38,5.38,0,0,1,575.68,573.86Z" fill="#fff"/><path d="M583,582.36a3.2,3.2,0,0,1-1.57.36c-1.73,0-2.72-1.1-2.72-3v-5.6h-1.83v-.89h1.85l.2-2.47h.79v2.47H583v.89h-3.24v5.58c0,1.29.68,2.06,1.83,2.06a1.89,1.89,0,0,0,1.39-.51H583Z" fill="#fff"/><path d="M586.4,570.33a.72.72,0,0,1-.73.73.73.73,0,0,1-.74-.73.74.74,0,0,1,.74-.76A.73.73,0,0,1,586.4,570.33Zm-1.23,2.94h1v9.25h-1Z" fill="#fff"/><path d="M596.45,574.14v1.15h-.06a3.91,3.91,0,1,0,0,5.2h.06v1.17a4.5,4.5,0,0,1-3.14,1.06,4.83,4.83,0,1,1,0-9.65A4.41,4.41,0,0,1,596.45,574.14Z" fill="#fff"/><path d="M604.77,573.86V575h-.06a4.07,4.07,0,0,0-3-1c-1.41,0-2.44.79-2.44,1.89,0,.93.59,1.35,2.52,1.45,2.56.14,3.47.89,3.47,2.62s-1.37,2.78-3.51,2.78a5.29,5.29,0,0,1-3.54-1.06v-1.17h.06a4.38,4.38,0,0,0,3.46,1.31c1.55,0,2.56-.73,2.56-1.86s-.64-1.49-2.68-1.61c-2.48-.14-3.34-.87-3.34-2.44s1.39-2.82,3.42-2.82A5.44,5.44,0,0,1,604.77,573.86Z" fill="#fff"/><path d="M259.32,140.61h-.62v-3.77h-1.43v-.56h3.47v.56h-1.42Z" fill="#fff"/><path d="M265.87,140.61v-3.68h0l-1.66,3.68h-.55L262,137h0v3.64h-.6v-4.33h.94l1.58,3.52h0l1.59-3.52h1v4.33Z" fill="#fff"/><path d="M341,199.49l-3.89-2.25L356.33,164a12.22,12.22,0,0,1,10.54-6.08h38l2,4.49h-40a7.71,7.71,0,0,0-6.65,3.84Z" fill="#fff"/><path d="M406.4,196h-5.2l9.15-15.7a.26.26,0,0,0,0-.28.26.26,0,0,0-.24-.14H378.77a7.68,7.68,0,0,0-6.64,3.84L365,196h-5.19l8.4-14.54a12.19,12.19,0,0,1,10.53-6.08h31.34a4.76,4.76,0,0,1,4.12,7.17Z" fill="#fff"/><path d="M398.13,143.48a11.85,11.85,0,0,0-1.9-3.07,12.21,12.21,0,0,0-9.13-4.13H354.4a12.22,12.22,0,0,0-10.54,6.08l-16.35,28.32a12.19,12.19,0,0,0,0,12.17l16.35,28.32a12.22,12.22,0,0,0,10.54,6.08h16.12a6.64,6.64,0,0,0,5.74-3.31l20.43-35.18-3.89-2.25-20.43,35.18a2.14,2.14,0,0,1-1.85,1.07H354.4a7.69,7.69,0,0,1-6.65-3.84L331.4,180.6a7.72,7.72,0,0,1,0-7.67l16.35-28.32a7.69,7.69,0,0,1,6.65-3.84h32.7a7.68,7.68,0,0,1,6.64,3.84h4.9Z" fill="#fff"/><path d="M416.94,140.61h-.62v-3.77h-1.43v-.56h3.47v.56h-1.42Z" fill="#fff"/><path d="M423.49,140.61v-3.68h0l-1.65,3.68h-.56L419.64,137h0v3.64H419v-4.33h1l1.57,3.52h0l1.59-3.52h1v4.33Z" fill="#fff"/><path d="M537.83,212.76a7.69,7.69,0,0,0,6.65-3.84h4.89l-.5,1.13a11.86,11.86,0,0,1-11,7.2H535Z" fill="#fff"/><path d="M491.75,199.49l-3.89-2.25L507.07,164a12.2,12.2,0,0,1,10.54-6.08h38l2,4.49h-40a7.69,7.69,0,0,0-6.65,3.84Z" fill="#61ef81"/><path d="M557.13,196h-5.19l9.15-15.7a.26.26,0,0,0,0-.28.26.26,0,0,0-.24-.14H529.51a7.68,7.68,0,0,0-6.64,3.84L515.77,196h-5.19L519,181.47a12.22,12.22,0,0,1,10.54-6.08h31.34a4.76,4.76,0,0,1,4.12,7.17Z" fill="#61ef81"/><path d="M548.87,143.48a11.86,11.86,0,0,0-11-7.2H505.14a12.2,12.2,0,0,0-10.54,6.08l-16.35,28.32a12.19,12.19,0,0,0,0,12.17l16.35,28.32a12.2,12.2,0,0,0,10.54,6.08h16.12a6.64,6.64,0,0,0,5.74-3.31l20.43-35.18-3.89-2.25-20.43,35.18a2.14,2.14,0,0,1-1.85,1.07H505.13a7.68,7.68,0,0,1-6.64-3.84L482.14,180.6a7.72,7.72,0,0,1,0-7.67l16.35-28.32a7.68,7.68,0,0,1,6.64-3.84h32.7a7.69,7.69,0,0,1,6.65,3.84h4.89Z" fill="#61ef81"/><path d="M567.68,140.61h-.63v-3.77h-1.42v-.56h3.47v.56h-1.42Z" fill="#fff"/><path d="M574.23,140.61v-3.68h0l-1.66,3.68H572L570.38,137h0v3.64h-.6v-4.33h.94l1.58,3.52h0l1.59-3.52h1v4.33Z" fill="#fff"/><path d="M229.48,974.45a7.7,7.7,0,0,0,6.64-3.83H241l-.51,1.13a12,12,0,0,1-1.9,3.07,12.21,12.21,0,0,1-9.13,4.13h-2.87Z" fill="#231f20"/><path d="M183.39,961.18l-3.89-2.24,19.21-33.28a12.2,12.2,0,0,1,10.54-6.08h38l2,4.49h-40a7.69,7.69,0,0,0-6.65,3.84Z" fill="#231f20"/><path d="M248.78,957.71h-5.2l9.15-15.7a.26.26,0,0,0,0-.28.26.26,0,0,0-.24-.14H221.15a7.69,7.69,0,0,0-6.64,3.83l-7.1,12.3h-5.19l8.4-14.54a12.19,12.19,0,0,1,10.53-6.08h31.34a4.76,4.76,0,0,1,4.12,7.17Z" fill="#231f20"/><path d="M240.51,905.17a11.79,11.79,0,0,0-1.9-3.06,12.21,12.21,0,0,0-9.13-4.13h-32.7a12.2,12.2,0,0,0-10.54,6.08l-16.35,28.32a12.17,12.17,0,0,0,0,12.16l16.35,28.32A12.19,12.19,0,0,0,196.78,979H212.9a6.64,6.64,0,0,0,5.74-3.31l20.43-35.18-3.89-2.26-20.43,35.19a2.13,2.13,0,0,1-1.85,1.06H196.78a7.68,7.68,0,0,1-6.65-3.83L173.78,942.3a7.72,7.72,0,0,1,0-7.67l16.35-28.32a7.67,7.67,0,0,1,6.65-3.84h32.7a7.69,7.69,0,0,1,6.64,3.84H241Z" fill="#231f20"/><path d="M214.63,1151.57v-3.33a5.7,5.7,0,0,0,4.92-2.84l2.89,1.66A9,9,0,0,1,214.63,1151.57Z" fill="#d1d3d4"/><path d="M180.46,1138.41l-2.88-1.67,14.24-24.67a9.05,9.05,0,0,1,7.81-4.51h28.49v3.33H199.63a5.71,5.71,0,0,0-4.93,2.85Z" fill="#231f20"/><path d="M228,1137.5l-2.88-1.68,6.79-11.64a.21.21,0,0,0-.18-.31H208.46a5.7,5.7,0,0,0-4.93,2.85l-6.22,10.77-2.89-1.66,6.23-10.78a9,9,0,0,1,7.81-4.51h23.23a3.54,3.54,0,0,1,3.05,5.32Z" fill="#231f20"/><path d="M202.34,1151.57h-12a9,9,0,0,1-7.81-4.51l-12.12-21a9,9,0,0,1,0-9l12.12-21a9,9,0,0,1,7.81-4.51h24.24a9.05,9.05,0,0,1,7.81,4.51l-2.89,1.66a5.7,5.7,0,0,0-4.92-2.84H190.39a5.71,5.71,0,0,0-4.93,2.84l-12.12,21a5.72,5.72,0,0,0,0,5.69l12.12,21a5.71,5.71,0,0,0,4.93,2.84h12a1.58,1.58,0,0,0,1.37-.79l15.15-26.08,2.88,1.67-15.15,26.08A4.92,4.92,0,0,1,202.34,1151.57Z" fill="#231f20"/><path d="M292.6,1120.47v4.41H276.1v14.74h-5v-34.45h25.21v4.41H276.1v10.89Z" fill="#d1d3d4"/><path d="M315.37,1115.75v4.41h-.21a6.48,6.48,0,0,0-3.78-1.14c-4.67,0-6.9,3.22-6.9,9.55v11h-4.41v-24.28h3.73l.11,3.89h.1c1.45-2.91,4-4.41,7.68-4.41A6.94,6.94,0,0,1,315.37,1115.75Z" fill="#d1d3d4"/><path d="M321.75,1128.93c.62,4.51,4.26,7.26,9.75,7.26a12.68,12.68,0,0,0,9-3.32h.21v4.46a14.85,14.85,0,0,1-9.29,2.8c-8.56,0-14.11-5-14.11-12.65,0-7.42,5.24-12.66,12.66-12.66s12.29,4.61,12.29,11.67v2.44Zm0-3.68h16.4c-.63-4-3.74-6.49-8.15-6.49A8.13,8.13,0,0,0,321.75,1125.25Z" fill="#d1d3d4"/><path d="M352.57,1107.71a2.91,2.91,0,1,1-2.91-2.91A2.78,2.78,0,0,1,352.57,1107.71Zm-5.09,7.63h4.41v24.28h-4.41Z" fill="#d1d3d4"/><path d="M382.66,1137.7c0,7.67-4.88,12.29-13.13,12.29-4.25,0-7.88-1.19-10.12-3.21v-4.62h.21c2,2.44,5.45,3.89,9.44,3.89,5.87,0,9.19-3.06,9.19-8.61v-1.2h-.11c-1.92,2.34-4.93,3.69-8.87,3.69-7,0-12.14-5.19-12.14-12.56s5.09-12.55,12.14-12.55c4.26,0,7.58,1.66,9.39,4.41h.11l.15-3.89h3.74Zm-4.26-10.33c0-5.13-3.47-8.61-8.4-8.61s-8.41,3.48-8.41,8.61S365,1136,370,1136,378.4,1132.51,378.4,1127.37Z" fill="#d1d3d4"/><path d="M412.12,1125.5v14.12h-4.41V1126c0-4.56-2.49-7.26-6.59-7.26-4.51,0-7.21,3.11-7.21,8.25v12.61H389.5V1103.3h4.41v15H394c1.71-2.29,4.56-3.53,8.14-3.53C408.34,1114.82,412.12,1118.86,412.12,1125.5Z" fill="#d1d3d4"/><path d="M432.3,1139.25a9.5,9.5,0,0,1-4.41.88c-5.08,0-7.93-3-7.93-8.45v-12.5h-4.47v-3.84h4.57l.67-6.59h3.64v6.59h7.83v3.84h-7.83v12.39c0,2.91,1.55,4.62,4.15,4.62a4.68,4.68,0,0,0,3.58-1.4h.2Z" fill="#d1d3d4"/><path d="M464.83,1139.62h-7.68V1112H446.88v-6.85h28.17V1112H464.83Z" fill="#231f20"/><path d="M493.88,1115.65v6.64h-.26a6.56,6.56,0,0,0-3.84-1.14c-4.15,0-6,2.54-6,8v10.48H477v-24.39h5.65l.31,3.79H483c1.35-2.85,3.73-4.31,7.26-4.31A6,6,0,0,1,493.88,1115.65Z" fill="#231f20"/><path d="M514.42,1139.62l-.26-3.48h-.1c-1.45,2.54-4,4-7.57,4-6,0-9.5-3.89-9.5-10.47v-14.43h6.8v13.65c0,3.37,1.66,5.24,4.51,5.24,3.12,0,5-2.13,5-5.92v-13h6.8v24.39Z" fill="#231f20"/><path d="M542.85,1116.27v6.49h-.26c-1.6-1.61-4.09-2.44-7.26-2.44-2.65,0-3.94.77-3.94,2.28,0,1.09.83,1.56,4,1.76,6.49.42,9,2.7,9,7.84,0,5-3.73,7.93-10,7.93-4.05,0-7.16-.72-9.24-2.17v-6.54h.32c1.91,2.07,4.82,3.11,8.61,3.11,2.64,0,3.94-.78,3.94-2.33,0-1.3-1-1.82-4.46-2.13-6.18-.57-8.61-2.44-8.61-7.26s4-8.1,10.16-8.1A17.51,17.51,0,0,1,542.85,1116.27Z" fill="#231f20"/><path d="M563.92,1139.3a10.85,10.85,0,0,1-4.78.83c-5.91,0-9.08-3.21-9.08-9.39V1121h-4v-5.76h4.25l.88-6.85h5.71v6.85h7V1121h-7v9.5c0,2.33,1.25,3.63,3.37,3.63a4.4,4.4,0,0,0,3.43-1.4h.26Z" fill="#231f20"/><path d="M207.45,1352v-3a5.1,5.1,0,0,0,4.42-2.55l2.59,1.5A8.13,8.13,0,0,1,207.45,1352Z" fill="#d1d3d4"/><path d="M176.8,1340.21l-2.59-1.5L187,1316.58a8.1,8.1,0,0,1,7-4h25.55v3H194a5.11,5.11,0,0,0-4.42,2.55Z" fill="#231f20"/><path d="M219.41,1339.39l-2.58-1.5,6.09-10.44a.2.2,0,0,0,0-.19.18.18,0,0,0-.16-.09H201.91a5.14,5.14,0,0,0-4.42,2.55l-5.58,9.67-2.59-1.5,5.59-9.67a8.11,8.11,0,0,1,7-4h20.85a3.17,3.17,0,0,1,2.74,4.77Z" fill="#231f20"/><path d="M196.42,1352H185.7a8.13,8.13,0,0,1-7-4l-10.87-18.84a8.12,8.12,0,0,1,0-8.09l10.87-18.84a8.13,8.13,0,0,1,7-4h21.75a8.13,8.13,0,0,1,7,4l-2.59,1.5a5.1,5.1,0,0,0-4.42-2.55H185.7a5.1,5.1,0,0,0-4.42,2.55l-10.87,18.83a5.12,5.12,0,0,0,0,5.11l10.87,18.83a5.1,5.1,0,0,0,4.42,2.55h10.72a1.44,1.44,0,0,0,1.24-.71l13.59-23.4,2.58,1.5-13.59,23.4A4.43,4.43,0,0,1,196.42,1352Z" fill="#231f20"/><path d="M259.11,1313.94v2.86H248.4v9.57h-3.23V1304h16.37v2.86H248.4v7.08Z" fill="#d1d3d4"/><path d="M273.9,1310.87v2.87h-.13a4.22,4.22,0,0,0-2.46-.75c-3,0-4.48,2.09-4.48,6.2v7.18H264V1310.6h2.43l.07,2.53h.06a5.12,5.12,0,0,1,5-2.86A4.5,4.5,0,0,1,273.9,1310.87Z" fill="#d1d3d4"/><path d="M278,1319.43c.41,2.93,2.77,4.72,6.34,4.72a8.23,8.23,0,0,0,5.83-2.16h.13v2.9a9.68,9.68,0,0,1-6,1.82c-5.56,0-9.16-3.27-9.16-8.22a7.89,7.89,0,0,1,8.22-8.22c4.85,0,8,3,8,7.58v1.58Zm0-2.39h10.65c-.4-2.56-2.42-4.21-5.29-4.21A5.29,5.29,0,0,0,278,1317Z" fill="#d1d3d4"/><path d="M298.06,1305.65a1.89,1.89,0,1,1-1.89-1.89A1.81,1.81,0,0,1,298.06,1305.65Zm-3.31,4.95h2.87v15.77h-2.87Z" fill="#d1d3d4"/><path d="M317.59,1325.12c0,5-3.16,8-8.52,8a9.86,9.86,0,0,1-6.57-2.09v-3h.14a7.8,7.8,0,0,0,6.13,2.53c3.8,0,6-2,6-5.6v-.77h-.07a7.11,7.11,0,0,1-5.76,2.39c-4.58,0-7.88-3.37-7.88-8.15s3.3-8.15,7.88-8.15a7,7,0,0,1,6.1,2.86h.07l.1-2.53h2.42Zm-2.76-6.7a5.46,5.46,0,1,0-5.46,5.59A5.27,5.27,0,0,0,314.83,1318.42Z" fill="#d1d3d4"/><path d="M336.73,1317.21v9.16h-2.86v-8.83c0-3-1.62-4.71-4.28-4.71-2.93,0-4.69,2-4.69,5.35v8.19H322v-23.58h2.86v9.77H325a6.32,6.32,0,0,1,5.29-2.29C334.27,1310.27,336.73,1312.89,336.73,1317.21Z" fill="#d1d3d4"/><path d="M349.83,1326.13a6.13,6.13,0,0,1-2.86.58c-3.3,0-5.16-2-5.16-5.49v-8.12h-2.89v-2.5h3l.44-4.28h2.36v4.28h5.09v2.5h-5.09v8.05c0,1.88,1,3,2.69,3a3.07,3.07,0,0,0,2.33-.91h.13Z" fill="#d1d3d4"/><path d="M251.74,1346.71h-3.66v-13.17h-4.9v-3.27h13.44v3.27h-4.88Z" fill="#231f20"/><path d="M265.61,1335.27v3.17h-.13a3.1,3.1,0,0,0-1.83-.55c-2,0-2.87,1.22-2.87,3.82v5h-3.24v-11.64h2.7l.15,1.81h0a3.51,3.51,0,0,1,3.47-2.05A2.92,2.92,0,0,1,265.61,1335.27Z" fill="#231f20"/><path d="M275.41,1346.71l-.12-1.66h-.05a3.91,3.91,0,0,1-3.62,1.9c-2.84,0-4.53-1.85-4.53-5v-6.88h3.25v6.51c0,1.61.79,2.5,2.15,2.5s2.38-1,2.38-2.82v-6.19h3.24v11.64Z" fill="#231f20"/><path d="M289,1335.57v3.09h-.13a4.73,4.73,0,0,0-3.46-1.16c-1.26,0-1.88.37-1.88,1.09,0,.52.39.74,1.93.84,3.09.2,4.3,1.29,4.3,3.74S288,1347,285,1347a7.68,7.68,0,0,1-4.41-1v-3.12h.15a5.36,5.36,0,0,0,4.11,1.49c1.26,0,1.88-.37,1.88-1.11s-.5-.87-2.13-1c-2.94-.27-4.11-1.16-4.11-3.46s1.91-3.86,4.85-3.86A8.43,8.43,0,0,1,289,1335.57Z" fill="#231f20"/><path d="M299,1346.56a5.28,5.28,0,0,1-2.28.39c-2.82,0-4.33-1.53-4.33-4.48v-4.65h-1.93v-2.75h2l.42-3.26h2.72v3.26H299v2.75h-3.34v4.53a1.52,1.52,0,0,0,1.61,1.73,2.09,2.09,0,0,0,1.63-.67H299Z" fill="#231f20"/><path d="M475.49,1352v-3a5.09,5.09,0,0,0,4.42-2.55l2.59,1.5A8.11,8.11,0,0,1,475.49,1352Z" fill="#231f20"/><path d="M444.84,1340.21l-2.59-1.5L455,1316.58a8.11,8.11,0,0,1,7-4H487.6v3H462a5.12,5.12,0,0,0-4.42,2.55Z" fill="#d1d3d4"/><path d="M487.46,1339.39l-2.59-1.5,6.09-10.44a.16.16,0,0,0,0-.19.17.17,0,0,0-.16-.09H470a5.12,5.12,0,0,0-4.42,2.55l-5.58,9.67-2.59-1.5,5.58-9.67a8.13,8.13,0,0,1,7-4H490.8a3.17,3.17,0,0,1,2.74,4.77Z" fill="#d1d3d4"/><path d="M464.47,1352H453.75a8.11,8.11,0,0,1-7-4l-10.88-18.84a8.12,8.12,0,0,1,0-8.09l10.88-18.84a8.11,8.11,0,0,1,7-4h21.74a8.11,8.11,0,0,1,7,4l-2.59,1.5a5.09,5.09,0,0,0-4.42-2.55H453.75a5.09,5.09,0,0,0-4.42,2.55l-10.88,18.83a5.12,5.12,0,0,0,0,5.11l10.88,18.83a5.09,5.09,0,0,0,4.42,2.55h10.72a1.42,1.42,0,0,0,1.23-.71l13.59-23.4,2.58,1.5-13.58,23.4A4.43,4.43,0,0,1,464.47,1352Z" fill="#d1d3d4"/><path d="M523,1312v1.29H523a5.67,5.67,0,0,0-4.27-1.53c-2.14,0-3.63,1.13-3.63,2.76,0,1.45.89,2.11,3.77,2.38,3.56.34,4.83,1.35,4.83,3.7s-1.87,3.75-4.87,3.75a7.76,7.76,0,0,1-5-1.49v-1.29h.06a6.75,6.75,0,0,0,5,1.79c2.35,0,3.75-1,3.75-2.76s-.93-2.31-4-2.62c-3.41-.36-4.62-1.28-4.62-3.44s1.88-3.77,4.72-3.77A6.75,6.75,0,0,1,523,1312Z" fill="#bcbec0"/><path d="M534.32,1318.88v5.3h-1V1319c0-2.09-1.15-3.34-3.11-3.34s-3.38,1.47-3.38,3.83v4.71h-1v-13.9h1v6.34h0a3.77,3.77,0,0,1,3.52-1.89C532.81,1314.73,534.32,1316.32,534.32,1318.88Z" fill="#bcbec0"/><path d="M538.11,1312a.74.74,0,1,1-.74-.75A.73.73,0,0,1,538.11,1312Zm-1.23,2.94h1v9.25h-1Z" fill="#bcbec0"/><path d="M550.36,1319.55a4.61,4.61,0,0,1-4.73,4.83,4.36,4.36,0,0,1-3.89-1.93h0v5.5h-1v-13h.87l0,1.9h0a4.36,4.36,0,0,1,4-2.1A4.6,4.6,0,0,1,550.36,1319.55Zm-1,0a3.84,3.84,0,1,0-3.83,3.91A3.71,3.71,0,0,0,549.32,1319.55Z" fill="#bcbec0"/><path d="M562.21,1319.55a4.61,4.61,0,0,1-4.73,4.83,4.37,4.37,0,0,1-3.89-1.93h0v5.5h-1v-13h.87l0,1.9h0a4.37,4.37,0,0,1,4-2.1A4.6,4.6,0,0,1,562.21,1319.55Zm-1,0a3.84,3.84,0,1,0-3.83,3.91A3.71,3.71,0,0,0,561.17,1319.55Z" fill="#bcbec0"/><path d="M565.62,1312a.74.74,0,1,1-.73-.75A.73.73,0,0,1,565.62,1312Zm-1.23,2.94h1v9.25h-1Z" fill="#bcbec0"/><path d="M576.72,1318.88v5.3h-1V1319c0-2.09-1.15-3.34-3.11-3.34s-3.38,1.47-3.38,3.83v4.71h-1v-9.25h.87l0,1.9h0a3.8,3.8,0,0,1,3.64-2.1C575.21,1314.73,576.72,1316.32,576.72,1318.88Z" fill="#bcbec0"/><path d="M588.33,1323.44c0,3-1.79,4.71-4.88,4.71a5.48,5.48,0,0,1-4-1.39v-1.11h0a4.78,4.78,0,0,0,3.82,1.59c2.52,0,4-1.37,4-3.84v-1h0a4.37,4.37,0,0,1-3.89,2,4.81,4.81,0,0,1,0-9.61,4.35,4.35,0,0,1,4,2.1h0l0-1.9h.89Zm-1-3.91a3.86,3.86,0,1,0-3.88,3.89A3.72,3.72,0,0,0,587.38,1319.53Z" fill="#bcbec0"/><path d="M522.39,1342.86a5.92,5.92,0,0,1-4.21,1.55c-2.62,0-4.21-1.31-4.21-3.49,0-1.65.85-2.8,2.78-3.75l-.24-.24a4.2,4.2,0,0,1-1.55-3.08c0-1.84,1.35-3,3.48-3s3.43,1.1,3.43,2.82c0,1.57-.87,2.6-3.55,3.76l4,4.06a6.28,6.28,0,0,0,.95-3.57c0-.26,0-.53,0-.81h1c0,.26,0,.53,0,.79a6.74,6.74,0,0,1-1.27,4.27l2.05,2.06h-1.35Zm-.66-.65-4.33-4.37c-1.7.86-2.42,1.73-2.42,3,0,1.71,1.17,2.68,3.26,2.68A4.9,4.9,0,0,0,521.73,1342.21Zm-4.09-5.48c2.56-1,3.3-1.83,3.3-3s-1-2-2.44-2-2.53.83-2.53,2.1a3.4,3.4,0,0,0,1.39,2.6Z" fill="#bcbec0"/><path d="M531.58,1344.21V1331h1.09v12.19h8.12v1Z" fill="#bcbec0"/><path d="M551.88,1339.59a4.87,4.87,0,1,1-4.88-4.83A4.65,4.65,0,0,1,551.88,1339.59Zm-8.71,0a3.84,3.84,0,1,0,3.83-3.91A3.72,3.72,0,0,0,543.17,1339.59Z" fill="#bcbec0"/><path d="M563.12,1343.48c0,3-1.79,4.7-4.88,4.7a5.44,5.44,0,0,1-4-1.39v-1.11h.06a4.71,4.71,0,0,0,3.81,1.59c2.52,0,4-1.37,4-3.83v-1h0a4.36,4.36,0,0,1-3.89,2,4.81,4.81,0,0,1,0-9.61,4.36,4.36,0,0,1,4,2.11h0l0-1.91h.89Zm-1-3.91a3.86,3.86,0,1,0-3.87,3.89A3.72,3.72,0,0,0,562.17,1339.57Z" fill="#bcbec0"/><path d="M567.17,1332a.74.74,0,1,1-.74-.76A.74.74,0,0,1,567.17,1332Zm-1.23,2.93h1v9.25h-1Z" fill="#bcbec0"/><path d="M575.68,1335.56v1.11h-.06a4,4,0,0,0-3-1c-1.41,0-2.44.79-2.44,1.88s.59,1.35,2.52,1.45c2.56.14,3.47.9,3.47,2.62s-1.37,2.78-3.51,2.78a5.29,5.29,0,0,1-3.54-1.05v-1.17h.06a4.42,4.42,0,0,0,3.46,1.31c1.55,0,2.56-.74,2.56-1.87s-.64-1.49-2.68-1.6c-2.48-.14-3.34-.88-3.34-2.45s1.39-2.82,3.42-2.82A5.3,5.3,0,0,1,575.68,1335.56Z" fill="#bcbec0"/><path d="M583,1344.06a3.32,3.32,0,0,1-1.57.35c-1.73,0-2.72-1.09-2.72-3v-5.59h-1.83v-.9h1.85l.2-2.46h.79V1335H583v.9h-3.24v5.57c0,1.3.68,2.07,1.83,2.07A1.86,1.86,0,0,0,583,1343H583Z" fill="#bcbec0"/><path d="M586.4,1332a.73.73,0,0,1-.73.73.75.75,0,1,1,.73-.73Zm-1.23,2.93h1v9.25h-1Z" fill="#bcbec0"/><path d="M596.45,1335.84V1337h-.06a4,4,0,0,0-7,2.6,4,4,0,0,0,7,2.6h.06v1.17a4.5,4.5,0,0,1-3.14,1.05,4.83,4.83,0,1,1,0-9.65A4.42,4.42,0,0,1,596.45,1335.84Z" fill="#bcbec0"/><path d="M604.77,1335.56v1.11h-.06a4.07,4.07,0,0,0-3-1c-1.41,0-2.44.79-2.44,1.88s.59,1.35,2.52,1.45c2.56.14,3.47.9,3.47,2.62s-1.37,2.78-3.51,2.78a5.29,5.29,0,0,1-3.54-1.05v-1.17h.06a4.42,4.42,0,0,0,3.46,1.31c1.55,0,2.56-.74,2.56-1.87s-.64-1.49-2.68-1.6c-2.48-.14-3.34-.88-3.34-2.45s1.39-2.82,3.42-2.82A5.36,5.36,0,0,1,604.77,1335.56Z" fill="#bcbec0"/><path d="M259.32,902.3h-.62v-3.77h-1.43V898h3.47v.55h-1.42Z" fill="#231f20"/><path d="M265.87,902.3v-3.67h0l-1.66,3.67h-.55L262,898.66h0v3.64h-.6V898h.94l1.58,3.52h0l1.59-3.52h1v4.32Z" fill="#231f20"/><path d="M341,961.18l-3.89-2.24,19.21-33.28a12.22,12.22,0,0,1,10.54-6.08h38l2,4.49h-40a7.71,7.71,0,0,0-6.65,3.84Z" fill="#58595b"/><path d="M406.4,957.71h-5.2l9.15-15.7a.26.26,0,0,0,0-.28.26.26,0,0,0-.24-.14H378.77a7.69,7.69,0,0,0-6.64,3.83l-7.1,12.3h-5.19l8.4-14.54a12.19,12.19,0,0,1,10.53-6.08h31.34a4.76,4.76,0,0,1,4.12,7.17Z" fill="#58595b"/><path d="M398.13,905.17a11.79,11.79,0,0,0-1.9-3.06A12.21,12.21,0,0,0,387.1,898H354.4a12.22,12.22,0,0,0-10.54,6.08l-16.35,28.32a12.17,12.17,0,0,0,0,12.16l16.35,28.32A12.2,12.2,0,0,0,354.4,979h16.12a6.64,6.64,0,0,0,5.74-3.31l20.43-35.18-3.89-2.26-20.43,35.19a2.13,2.13,0,0,1-1.85,1.06H354.4a7.68,7.68,0,0,1-6.65-3.83L331.4,942.3a7.72,7.72,0,0,1,0-7.67l16.35-28.32a7.67,7.67,0,0,1,6.65-3.84h32.7a7.68,7.68,0,0,1,6.64,3.84h4.9Z" fill="#58595b"/><path d="M1238.92,1121.41a12.25,12.25,0,0,0-10.75-6.22h-81.39a31.69,31.69,0,0,0-27.36,15.79l-21.8,37.76h13.47l18.43-31.92a20,20,0,0,1,17.26-10h31.35l-48,82.61a5.58,5.58,0,0,1-4.82,2.77h-41.87a19.92,19.92,0,0,1-17.25-10l-15.83-27.42,48.21-83.52a20,20,0,0,1,17.26-10h104l-5.14-11.67h-98.81a31.66,31.66,0,0,0-27.36,15.8l-44.85,77.68-19.9-34.47a20,20,0,0,1,0-19.92l42.47-73.56a19.92,19.92,0,0,1,17.25-10h84.93a20,20,0,0,1,17.26,10h12.71l-1.31-2.94a30.68,30.68,0,0,0-28.66-18.69h-84.93a31.69,31.69,0,0,0-27.36,15.8L1013.64,1103a31.62,31.62,0,0,0,0,31.6l42.47,73.55a31.66,31.66,0,0,0,27.36,15.8h41.87a17.23,17.23,0,0,0,14.91-8.58l51.38-88.47h36.54a.73.73,0,0,1,.63,1.09L1205,1168.72l13.5,0,20.35-34.92A12.23,12.23,0,0,0,1238.92,1121.41Z" fill="#fff"/><path d="M1238.92,365.39a12.25,12.25,0,0,0-10.75-6.22h-81.39a31.68,31.68,0,0,0-27.36,15.8l-21.8,37.76h13.47l18.43-31.93a20,20,0,0,1,17.26-10h31.35l-48,82.61a5.56,5.56,0,0,1-4.82,2.77h-41.87a19.92,19.92,0,0,1-17.25-10l-15.83-27.42,48.21-83.51a20,20,0,0,1,17.26-10h104l-5.14-11.67h-98.81a31.69,31.69,0,0,0-27.36,15.8l-44.85,77.68-19.9-34.46a20,20,0,0,1,0-19.93l42.47-73.55a19.9,19.9,0,0,1,17.25-10h84.93a20,20,0,0,1,17.26,10h12.71l-1.31-2.94a31.18,31.18,0,0,0-4.94-8,31.69,31.69,0,0,0-23.72-10.72h-84.93a31.68,31.68,0,0,0-27.36,15.79L1013.64,347a31.6,31.6,0,0,0,0,31.59l42.47,73.55a31.66,31.66,0,0,0,27.36,15.8h41.87a17.23,17.23,0,0,0,14.91-8.58l51.38-88.47h36.54a.73.73,0,0,1,.63,1.09L1205,412.7l13.5,0,20.35-34.92A12.25,12.25,0,0,0,1238.92,365.39Z" fill="#e6e7e8"/><path d="M416.94,902.3h-.62v-3.77h-1.43V898h3.47v.55h-1.42Z" fill="#231f20"/><path d="M423.49,902.3v-3.67h0l-1.65,3.67h-.56l-1.63-3.64h0v3.64H419V898h1l1.57,3.52h0l1.59-3.52h1v4.32Z" fill="#231f20"/><path d="M537.83,974.45a7.71,7.71,0,0,0,6.65-3.83h4.89l-.5,1.13a12.34,12.34,0,0,1-1.91,3.07,12.2,12.2,0,0,1-9.13,4.13H535Z" fill="#d1d3d4"/><path d="M491.75,961.18l-3.89-2.24,19.21-33.28a12.2,12.2,0,0,1,10.54-6.08h38l2,4.49h-40a7.69,7.69,0,0,0-6.65,3.84Z" fill="#d1d3d4"/><path d="M557.13,957.71h-5.19l9.15-15.7a.26.26,0,0,0,0-.28.26.26,0,0,0-.24-.14H529.51a7.69,7.69,0,0,0-6.64,3.83l-7.1,12.3h-5.19L519,943.17a12.22,12.22,0,0,1,10.54-6.08h31.34a4.76,4.76,0,0,1,4.12,7.17Z" fill="#d1d3d4"/><path d="M548.87,905.17a11.88,11.88,0,0,0-11-7.19H505.14a12.2,12.2,0,0,0-10.54,6.08l-16.35,28.32a12.17,12.17,0,0,0,0,12.16l16.35,28.32A12.19,12.19,0,0,0,505.14,979h16.12a6.64,6.64,0,0,0,5.74-3.31l20.43-35.18-3.89-2.26-20.43,35.19a2.13,2.13,0,0,1-1.85,1.06H505.13a7.67,7.67,0,0,1-6.64-3.83L482.14,942.3a7.72,7.72,0,0,1,0-7.67l16.35-28.32a7.66,7.66,0,0,1,6.64-3.84h32.7a7.69,7.69,0,0,1,6.65,3.84h4.89Z" fill="#d1d3d4"/><path d="M567.68,902.3h-.63v-3.77h-1.42V898h3.47v.55h-1.42Z" fill="#231f20"/><path d="M574.23,902.3v-3.67h0l-1.66,3.67H572l-1.63-3.64h0v3.64h-.6V898h.94l1.58,3.52h0l1.59-3.52h1v4.32Z" fill="#231f20"/></svg>