<svg width="1001" height="1000" viewBox="0 0 1001 1000" fill="none" xmlns="http://www.w3.org/2000/svg">
<path d="M0 1000H1000V0H0V1000Z" fill="black"/>
<path d="M579.981 672.525C593.057 672.525 605.242 665.494 611.78 654.19H635.208L632.781 659.605C630.422 664.877 627.507 669.939 623.678 674.269C612.742 686.644 596.828 694 579.981 694H566.254L579.981 672.525Z" fill="#00FFE0"/>
<path d="M359.402 609.105L340.78 598.365L432.735 439.311C443.102 421.372 462.419 410.236 483.157 410.236H665.236L674.708 431.711H483.157C470.082 431.711 457.896 438.732 451.353 450.046L359.402 609.105Z" fill="#00FFE0"/>
<path d="M672.347 592.479L647.474 592.441L691.276 517.404C691.382 517.218 691.664 516.735 691.281 516.066C690.893 515.397 690.333 515.397 690.123 515.397H540.135C527.064 515.397 514.874 522.423 508.336 533.732L474.374 592.479H449.543L489.713 522.992C500.08 505.058 519.402 493.921 540.135 493.921H690.123C698.398 493.921 705.802 498.199 709.928 505.369C714.049 512.534 714.025 521.08 709.851 528.221L672.347 592.479Z" fill="#00FFE0"/>
<path d="M632.782 341.395C630.423 336.118 627.503 331.061 623.679 326.731C612.743 314.356 596.829 307 579.982 307H423.475C402.742 307 383.415 318.141 373.053 336.07L294.8 471.427C284.4 489.417 284.4 511.581 294.8 529.572L373.053 664.928C383.415 682.857 402.742 693.998 423.475 693.998H500.632C511.952 693.998 522.419 687.985 528.105 678.206L625.885 510.051L607.286 499.264L509.506 667.423C507.668 670.578 504.289 672.523 500.632 672.523H423.475C410.356 672.523 398.233 665.53 391.676 654.188L313.423 518.832C306.885 507.523 306.885 493.475 313.423 482.167L391.676 346.81C398.233 335.468 410.356 328.475 423.475 328.475H579.982C593.057 328.475 605.243 335.506 611.776 346.81H635.204L632.782 341.395Z" fill="#00FFE0"/>
</svg>
