<svg width="768" height="1024" viewBox="0 0 768 1024" fill="none" xmlns="http://www.w3.org/2000/svg">
<rect width="768" height="1024" fill="white"/>
<g clip-path="url(#clip0)">
<rect width="1000" height="1000" fill="black"/>
<path d="M436.38 492.529C444.698 492.529 452.45 488.056 456.609 480.865H471.513L469.969 484.31C468.468 487.663 466.614 490.884 464.178 493.638C457.221 501.51 447.097 506.19 436.38 506.19H427.647L436.38 492.529Z" fill="#00FFD1"/>
<path d="M296.058 452.184L284.212 445.352L342.709 344.17C349.304 332.758 361.593 325.674 374.785 325.674H490.615L496.64 339.335H374.785C366.467 339.335 358.715 343.801 354.553 350.999L296.058 452.184Z" fill="#00FFD1"/>
<path d="M495.139 441.607L479.316 441.583L507.18 393.848C507.248 393.73 507.427 393.423 507.183 392.997C506.937 392.572 506.58 392.572 506.447 392.572H411.032C402.717 392.572 394.962 397.041 390.803 404.236L369.198 441.607H353.402L378.956 397.403C385.551 385.995 397.843 378.91 411.032 378.91H506.447C511.711 378.91 516.421 381.631 519.046 386.192C521.667 390.75 521.652 396.187 518.997 400.73L495.139 441.607Z" fill="#00FFD1"/>
<path d="M469.969 281.88C468.468 278.523 466.611 275.306 464.178 272.552C457.221 264.68 447.098 260 436.38 260H336.819C323.629 260 311.334 267.087 304.743 278.493L254.962 364.6C248.346 376.045 248.346 390.144 254.962 401.589L304.743 487.696C311.334 499.101 323.629 506.189 336.819 506.189H385.902C393.103 506.189 399.762 502.364 403.379 496.143L465.582 389.171L453.75 382.309L391.547 489.283C390.378 491.29 388.228 492.527 385.902 492.527H336.819C328.473 492.527 320.761 488.079 316.59 480.864L266.809 394.757C262.65 387.563 262.65 378.626 266.809 371.432L316.59 285.325C320.761 278.11 328.473 273.661 336.819 273.661H436.38C444.698 273.661 452.45 278.134 456.606 285.325H471.51L469.969 281.88Z" fill="#00FFD1"/>
</g>
<defs>
<clipPath id="clip0">
<rect width="768" height="1024" fill="white"/>
</clipPath>
</defs>
</svg>
