<svg width="273" height="35" viewBox="0 0 273 35" fill="none" xmlns="http://www.w3.org/2000/svg">
<path d="M0 35H273V0H0V35Z" fill="black"/>
<path d="M40.8467 26.3163V25.2998C41.4646 25.2998 42.0408 24.9672 42.3496 24.4323L43.23 24.9404C42.7402 25.789 41.8269 26.3163 40.8467 26.3163Z" fill="#00FFE0"/>
<path d="M30.4209 22.2982L29.5405 21.7898L33.8869 14.2619C34.3769 13.413 35.2903 12.8857 36.2701 12.8857H44.9631V13.9021H36.2701C35.6522 13.9021 35.0764 14.2348 34.7672 14.77L30.4209 22.2982Z" fill="#00FFE0"/>
<path d="M44.9152 22.0215L44.0369 21.5094L46.1071 17.958C46.112 17.9495 46.1254 17.9266 46.1074 17.8949C46.0891 17.8631 46.0626 17.8631 46.0528 17.8631H38.9634C38.3455 17.8631 37.7694 18.1958 37.4602 18.731L35.5616 22.0196L34.6815 21.5116L36.5802 18.2226C37.0703 17.374 37.9836 16.8467 38.9634 16.8467H46.0528C46.4437 16.8467 46.7937 17.0493 46.9887 17.3886C47.1837 17.728 47.1825 18.132 46.9853 18.4701L44.9152 22.0215Z" fill="#00FFE0"/>
<path d="M37.0962 26.3163H33.4493C32.4691 26.3163 31.5561 25.789 31.066 24.9403L27.3676 18.5342C26.8775 17.6853 26.8775 16.6307 27.3676 15.7821L31.066 9.37564C31.5561 8.527 32.4691 8 33.4493 8H40.8468C41.8267 8 42.74 8.527 43.2298 9.37564L42.3497 9.88402C42.0406 9.34878 41.4648 9.01647 40.8468 9.01647H33.4493C32.8314 9.01647 32.2552 9.34878 31.9464 9.88402L28.2476 16.2904C27.9388 16.8257 27.9388 17.4906 28.2476 18.0259L31.9464 24.4323C32.2552 24.9672 32.8314 25.2998 33.4493 25.2998H37.0962C37.2683 25.2998 37.4291 25.2074 37.5158 25.0584L42.1373 17.0997L43.0162 17.6102L38.3946 25.569C38.127 26.0301 37.6293 26.3163 37.0962 26.3163Z" fill="#00FFE0"/>
<path d="M64.6392 16.8257V18.1714H59.6048V22.6676H58.0851V12.1553H65.779V13.501H59.6048V16.8257H64.6392Z" fill="#EBEDED"/>
<path d="M71.5891 15.385V16.7307H71.5256C71.2092 16.5092 70.8134 16.3825 70.37 16.3825C68.9452 16.3825 68.2644 17.3639 68.2644 19.2952V22.6675H66.9187V15.2584H68.0588L68.0905 16.4457H68.1222C68.5653 15.5592 69.341 15.1 70.4649 15.1C70.9559 15.1 71.3358 15.2266 71.5891 15.385Z" fill="#EBEDED"/>
<path d="M73.5362 18.2822H78.539C78.3488 17.079 77.3989 16.3033 76.0535 16.3033C74.7868 16.3033 73.7895 17.0948 73.5362 18.2822ZM73.5362 19.4061C73.7261 20.7835 74.8344 21.6227 76.5124 21.6227C77.6049 21.6227 78.5548 21.2742 79.2515 20.6093H79.3147V21.9709C78.6497 22.5092 77.6366 22.8256 76.4807 22.8256C73.8686 22.8256 72.1746 21.2901 72.1746 18.963C72.1746 16.699 73.7737 15.1 76.0376 15.1C78.3171 15.1 79.7895 16.5089 79.7895 18.6621V19.4061H73.5362Z" fill="#EBEDED"/>
<path d="M81.3879 15.2583H82.7336V22.6674H81.3879V15.2583ZM82.9396 12.9311C82.9396 13.4536 82.5755 13.8176 82.0531 13.8176C81.5307 13.8176 81.1663 13.4536 81.1663 12.9311C81.1663 12.4087 81.5307 12.0444 82.0531 12.0444C82.5755 12.0444 82.9396 12.4087 82.9396 12.9311Z" fill="#EBEDED"/>
<path d="M90.8233 18.9312C90.8233 17.3639 89.7626 16.3032 88.2585 16.3032C86.7388 16.3032 85.6937 17.3639 85.6937 18.9312C85.6937 20.4985 86.7388 21.5592 88.2585 21.5592C89.7626 21.5592 90.8233 20.4985 90.8233 18.9312ZM92.1215 22.0816C92.1215 24.4246 90.6332 25.8338 88.116 25.8338C86.8179 25.8338 85.7099 25.4695 85.0291 24.8521V23.4432H85.0922C85.6937 24.1872 86.7547 24.6306 87.9735 24.6306C89.7626 24.6306 90.7757 23.6965 90.7757 22.0026V21.6385H90.744C90.1584 22.3508 89.2402 22.7624 88.037 22.7624C85.8838 22.7624 84.3324 21.1793 84.3324 18.9312C84.3324 16.6831 85.8838 15.1 88.037 15.1C89.3351 15.1 90.3482 15.6066 90.9024 16.4457H90.9341L90.9817 15.2584H92.1215V22.0816Z" fill="#EBEDED"/>
<path d="M101.113 18.3613V22.6673H99.7676V18.5196C99.7676 17.1263 99.0078 16.3033 97.757 16.3033C96.3798 16.3033 95.5565 17.2529 95.5565 18.8202V22.6673H94.2108V11.5853H95.5565V16.1767H95.5882C96.1103 15.48 96.9813 15.0998 98.0737 15.0998C99.9574 15.0998 101.113 16.3347 101.113 18.3613Z" fill="#EBEDED"/>
<path d="M107.272 22.5566C106.939 22.7308 106.496 22.8257 105.926 22.8257C104.374 22.8257 103.504 21.9075 103.504 20.2453V16.43H102.142V15.2582H103.535L103.741 13.2478H104.85V15.2582H107.24V16.43H104.85V20.2136C104.85 21.1 105.324 21.6225 106.116 21.6225C106.528 21.6225 106.908 21.5117 107.208 21.1953H107.272V22.5566Z" fill="#EBEDED"/>
<path d="M117.197 22.6674H114.854V14.2451H111.72V12.1554H120.316V14.2451H117.197V22.6674Z" fill="#00FFE0"/>
<path d="M126.062 15.3533V17.3798H125.983C125.667 17.1583 125.271 17.0316 124.811 17.0316C123.545 17.0316 122.975 17.8073 122.975 19.4695V22.6675H120.901V15.2266H122.627L122.722 16.3825H122.754C123.165 15.5116 123.894 15.0682 124.97 15.0682C125.445 15.0682 125.841 15.1793 126.062 15.3533Z" fill="#00FFE0"/>
<path d="M132.331 22.6674L132.252 21.6067H132.22C131.777 22.3824 130.985 22.8258 129.909 22.8258C128.088 22.8258 127.012 21.6384 127.012 19.6278V15.2265H129.086V19.3904C129.086 20.4194 129.592 20.9894 130.463 20.9894C131.413 20.9894 131.983 20.3403 131.983 19.1844V15.2265H134.057V22.6674H132.331Z" fill="#00FFE0"/>
<path d="M141.006 15.5434V17.5223H140.927C140.436 17.0313 139.676 16.778 138.711 16.778C137.903 16.778 137.508 17.0157 137.508 17.4747C137.508 17.807 137.761 17.9498 138.743 18.013C140.721 18.1396 141.497 18.8363 141.497 20.4036C141.497 21.9232 140.357 22.8256 138.442 22.8256C137.207 22.8256 136.257 22.604 135.624 22.161V20.1659H135.719C136.304 20.7994 137.191 21.1161 138.347 21.1161C139.154 21.1161 139.55 20.8784 139.55 20.4036C139.55 20.0078 139.233 19.8494 138.188 19.7545C136.304 19.5803 135.56 19.0102 135.56 17.5382C135.56 16.0341 136.779 15.0683 138.663 15.0683C139.566 15.0683 140.421 15.2425 141.006 15.5434Z" fill="#00FFE0"/>
<path d="M147.434 22.5724C147.07 22.7466 146.61 22.8256 145.977 22.8256C144.172 22.8256 143.207 21.8443 143.207 19.9602V16.9841H141.972V15.2267H143.27L143.539 13.137H145.281V15.2267H147.418V16.9841H145.281V19.8812C145.281 20.5934 145.66 20.9895 146.31 20.9895C146.69 20.9895 147.038 20.8943 147.354 20.562H147.434V22.5724Z" fill="#00FFE0"/>
</svg>
