<svg width="766" height="766" viewBox="0 0 766 766" fill="none" xmlns="http://www.w3.org/2000/svg">
<g clip-path="url(#clip0)">
<rect width="1000" height="1000" fill="black"/>
<path d="M434.38 492.529C442.698 492.529 450.45 488.056 454.609 480.865H469.512L467.969 484.31C466.468 487.663 464.613 490.884 462.178 493.638C455.221 501.51 445.097 506.19 434.38 506.19H425.647L434.38 492.529Z" fill="#00FFD1"/>
<path d="M294.059 452.184L282.212 445.352L340.709 344.17C347.304 332.758 359.593 325.674 372.785 325.674H488.615L494.64 339.335H372.785C364.468 339.335 356.715 343.801 352.553 350.999L294.059 452.184Z" fill="#00FFD1"/>
<path d="M493.138 441.607L477.315 441.583L505.18 393.848C505.248 393.73 505.427 393.423 505.183 392.997C504.936 392.572 504.58 392.572 504.447 392.572H409.032C400.717 392.572 392.962 397.041 388.803 404.236L367.198 441.607H351.402L376.956 397.403C383.551 385.995 395.843 378.91 409.032 378.91H504.447C509.711 378.91 514.421 381.631 517.046 386.192C519.667 390.75 519.652 396.187 516.997 400.73L493.138 441.607Z" fill="#00FFD1"/>
<path d="M467.969 281.88C466.468 278.523 464.611 275.306 462.178 272.552C455.221 264.68 445.098 260 434.38 260H334.819C321.629 260 309.334 267.087 302.743 278.493L252.962 364.6C246.346 376.045 246.346 390.144 252.962 401.589L302.743 487.696C309.334 499.101 321.629 506.189 334.819 506.189H383.902C391.103 506.189 397.762 502.364 401.379 496.143L463.582 389.171L451.75 382.309L389.547 489.283C388.378 491.29 386.228 492.527 383.902 492.527H334.819C326.473 492.527 318.761 488.079 314.59 480.864L264.809 394.757C260.65 387.563 260.65 378.626 264.809 371.432L314.59 285.325C318.761 278.11 326.473 273.661 334.819 273.661H434.38C442.698 273.661 450.45 278.134 454.606 285.325H469.51L467.969 281.88Z" fill="#00FFD1"/>
</g>
<defs>
<clipPath id="clip0">
<rect width="766" height="766" fill="white"/>
</clipPath>
</defs>
</svg>
