<svg width="26" height="26" viewBox="0 0 26 26" fill="none" xmlns="http://www.w3.org/2000/svg">
<path opacity="0.2" d="M13 26C20.1797 26 26 20.1797 26 13C26 5.8203 20.1797 0 13 0C5.8203 0 0 5.8203 0 13C0 20.1797 5.8203 26 13 26Z" fill="black"/>
<path d="M13 26C20.1797 26 26 20.1797 26 13C26 5.8203 20.1797 0 13 0C5.8203 0 0 5.8203 0 13C0 20.1797 5.8203 26 13 26Z" fill="black"/>
<path d="M15.8417 19.2786C16.281 19.2786 16.6903 19.0424 16.9099 18.6627H17.6969L17.6154 18.8446C17.5361 19.0217 17.4382 19.1917 17.3096 19.3372C16.9422 19.7529 16.4077 20 15.8417 20H15.3806L15.8417 19.2786Z" fill="#31F98D"/>
<path d="M8.43211 17.1482L7.80656 16.7875L10.8955 11.4446C11.2437 10.842 11.8926 10.4679 12.5893 10.4679H18.7056L19.0238 11.1893H12.5893C12.15 11.1893 11.7407 11.4251 11.5209 11.8052L8.43211 17.1482Z" fill="#31F98D"/>
<path d="M18.9445 16.5897L18.109 16.5885L19.5803 14.0678C19.5839 14.0616 19.5934 14.0454 19.5805 14.0229C19.5675 14.0004 19.5487 14.0004 19.5416 14.0004H14.5032C14.0642 14.0004 13.6547 14.2364 13.4351 14.6163L12.2942 16.5897H11.4601L12.8095 14.2555C13.1577 13.6531 13.8068 13.279 14.5032 13.279H19.5416C19.8196 13.279 20.0683 13.4227 20.2069 13.6636C20.3453 13.9042 20.3445 14.1913 20.2043 14.4312L18.9445 16.5897Z" fill="#31F98D"/>
<path d="M17.6154 8.15539C17.5362 7.97812 17.4381 7.80825 17.3096 7.6628C16.9423 7.2471 16.4077 7 15.8418 7H10.5844C9.88798 7 9.23875 7.37425 8.89067 7.97651L6.26202 12.5234C5.91266 13.1277 5.91266 13.8722 6.26202 14.4766L8.89067 19.0234C9.23875 19.6257 9.88798 19.9999 10.5844 19.9999H13.1763C13.5565 19.9999 13.9081 19.7979 14.0991 19.4695L17.3837 13.8208L16.759 13.4585L13.4744 19.1072C13.4126 19.2132 13.2991 19.2786 13.1763 19.2786H10.5844C10.1437 19.2786 9.73651 19.0436 9.51625 18.6626L6.88759 14.1158C6.66797 13.7359 6.66797 13.264 6.88759 12.8842L9.51625 8.33729C9.73651 7.95629 10.1437 7.72138 10.5844 7.72138H15.8418C16.281 7.72138 16.6903 7.95757 16.9098 8.33729H17.6968L17.6154 8.15539Z" fill="#31F98D"/>
</svg>
