<svg width="414" height="736" viewBox="0 0 414 736" fill="none" xmlns="http://www.w3.org/2000/svg">
<rect width="414" height="736" fill="white"/>
<g clip-path="url(#clip0)">
<rect width="1000" height="1000" fill="black"/>
<path d="M82.3799 492.529C90.6982 492.529 98.4497 488.056 102.609 480.865H117.513L115.969 484.31C114.468 487.663 112.614 490.884 110.178 493.638C103.221 501.51 93.0971 506.19 82.3799 506.19H73.6475L82.3799 492.529Z" fill="#00FFD1"/>
<path d="M-57.9415 452.184L-69.7878 445.352L-11.2907 344.17C-4.69572 332.758 7.5928 325.674 20.7853 325.674H136.615L142.64 339.335H20.7853C12.4676 339.335 4.71549 343.801 0.553158 350.999L-57.9415 452.184Z" fill="#00FFD1"/>
<path d="M141.138 441.607L125.316 441.583L153.18 393.848C153.248 393.73 153.427 393.423 153.183 392.997C152.937 392.572 152.58 392.572 152.447 392.572H57.0318C48.7167 392.572 40.962 397.041 36.8029 404.236L15.198 441.607H-0.598267L24.9559 397.403C31.5508 385.995 43.8425 378.91 57.0318 378.91H152.447C157.711 378.91 162.421 381.631 165.046 386.192C167.667 390.75 167.652 396.187 164.997 400.73L141.138 441.607Z" fill="#00FFD1"/>
<path d="M115.969 281.88C114.468 278.523 112.611 275.306 110.178 272.552C103.221 264.68 93.0977 260 82.3805 260H-17.1814C-30.3707 260 -42.6656 267.087 -49.2574 278.493L-99.038 364.6C-105.654 376.045 -105.654 390.144 -99.038 401.589L-49.2574 487.696C-42.6656 499.101 -30.3707 506.189 -17.1814 506.189H31.902C39.1032 506.189 45.7618 502.364 49.3789 496.143L111.582 389.171L99.7499 382.309L37.5472 489.283C36.3779 491.29 34.2284 492.527 31.902 492.527H-17.1814C-25.5271 492.527 -33.2391 488.079 -37.4104 480.864L-87.191 394.757C-91.3501 387.563 -91.3501 378.626 -87.191 371.432L-37.4104 285.325C-33.2391 278.11 -25.5271 273.661 -17.1814 273.661H82.3805C90.6981 273.661 98.4502 278.134 102.606 285.325H117.51L115.969 281.88Z" fill="#00FFD1"/>
</g>
<defs>
<clipPath id="clip0">
<rect width="414" height="736" fill="white"/>
</clipPath>
</defs>
</svg>
