<svg width="320" height="568" viewBox="0 0 320 568" fill="none" xmlns="http://www.w3.org/2000/svg">
<rect width="320" height="568" fill="white"/>
<g clip-path="url(#clip0)">
<rect width="1000" height="1000" fill="black"/>
<path d="M-11.6201 492.529C-3.30182 492.529 4.44967 488.056 8.60882 480.865H23.5125L21.9686 484.31C20.4679 487.663 18.6135 490.884 16.1777 493.638C9.22077 501.51 -0.902899 506.19 -11.6201 506.19H-20.3525L-11.6201 492.529Z" fill="#00FFD1"/>
<path d="M-151.941 452.184L-163.788 445.352L-105.291 344.17C-98.6957 332.758 -86.4072 325.674 -73.2147 325.674H42.6148L48.6404 339.335H-73.2147C-81.5324 339.335 -89.2845 343.801 -93.4468 350.999L-151.941 452.184Z" fill="#00FFD1"/>
<path d="M47.1383 441.607L31.3154 441.583L59.18 393.848C59.2475 393.73 59.4269 393.423 59.1832 392.997C58.9364 392.572 58.5801 392.572 58.4465 392.572H-36.9683C-45.2834 392.572 -53.0381 397.041 -57.1972 404.236L-78.8022 441.607H-94.5984L-69.0442 397.403C-62.4493 385.995 -50.1576 378.91 -36.9683 378.91H58.4465C63.7107 378.91 68.4207 381.631 71.0455 386.192C73.6671 390.75 73.6518 396.187 70.9965 400.73L47.1383 441.607Z" fill="#00FFD1"/>
<path d="M21.9692 281.88C20.4685 278.523 18.611 275.306 16.1783 272.552C9.22138 264.68 -0.902321 260 -11.6195 260H-111.181C-124.371 260 -136.666 267.087 -143.257 278.493L-193.038 364.6C-199.654 376.045 -199.654 390.144 -193.038 401.589L-143.257 487.696C-136.666 499.101 -124.371 506.189 -111.181 506.189H-62.098C-54.8968 506.189 -48.2382 502.364 -44.6211 496.143L17.5817 389.171L5.74991 382.309L-56.4528 489.283C-57.6221 491.29 -59.7716 492.527 -62.098 492.527H-111.181C-119.527 492.527 -127.239 488.079 -131.41 480.864L-181.191 394.757C-185.35 387.563 -185.35 378.626 -181.191 371.432L-131.41 285.325C-127.239 278.11 -119.527 273.661 -111.181 273.661H-11.6195C-3.30188 273.661 4.45025 278.134 8.60622 285.325H23.5099L21.9692 281.88Z" fill="#00FFD1"/>
</g>
<defs>
<clipPath id="clip0">
<rect width="320" height="568" fill="white"/>
</clipPath>
</defs>
</svg>
