<svg width="360" height="640" viewBox="0 0 360 640" fill="none" xmlns="http://www.w3.org/2000/svg">
<rect width="360" height="640" fill="white"/>
<g clip-path="url(#clip0)">
<rect width="1000" height="1000" fill="black"/>
<path d="M28.3799 492.529C36.6982 492.529 44.4497 488.056 48.6088 480.865H63.5125L61.9686 484.31C60.4679 487.663 58.6135 490.884 56.1777 493.638C49.2208 501.51 39.0971 506.19 28.3799 506.19H19.6475L28.3799 492.529Z" fill="#00FFD1"/>
<path d="M-111.942 452.184L-123.788 445.352L-65.2909 344.17C-58.696 332.758 -46.4074 325.674 -33.215 325.674H82.6146L88.6402 339.335H-33.215C-41.5326 339.335 -49.2848 343.801 -53.4471 350.999L-111.942 452.184Z" fill="#00FFD1"/>
<path d="M87.1386 441.607L71.3156 441.583L99.1803 393.848C99.2477 393.73 99.4271 393.423 99.1835 392.997C98.9366 392.572 98.5804 392.572 98.4468 392.572H3.03195C-5.28316 392.572 -13.0378 397.041 -17.197 404.236L-38.8019 441.607H-54.5981L-29.044 397.403C-22.449 385.995 -10.1573 378.91 3.03195 378.91H98.4468C103.711 378.91 108.421 381.631 111.046 386.192C113.667 390.75 113.652 396.187 110.997 400.73L87.1386 441.607Z" fill="#00FFD1"/>
<path d="M61.9692 281.88C60.4685 278.523 58.611 275.306 56.1783 272.552C49.2214 264.68 39.0977 260 28.3805 260H-71.1814C-84.3707 260 -96.6656 267.087 -103.257 278.493L-153.038 364.6C-159.654 376.045 -159.654 390.144 -153.038 401.589L-103.257 487.696C-96.6656 499.101 -84.3707 506.189 -71.1814 506.189H-22.098C-14.8968 506.189 -8.23823 502.364 -4.62109 496.143L57.5817 389.171L45.7499 382.309L-16.4528 489.283C-17.6221 491.29 -19.7716 492.527 -22.098 492.527H-71.1814C-79.5271 492.527 -87.2391 488.079 -91.4104 480.864L-141.191 394.757C-145.35 387.563 -145.35 378.626 -141.191 371.432L-91.4104 285.325C-87.2391 278.11 -79.5271 273.661 -71.1814 273.661H28.3805C36.6981 273.661 44.4502 278.134 48.6062 285.325H63.5099L61.9692 281.88Z" fill="#00FFD1"/>
</g>
<defs>
<clipPath id="clip0">
<rect width="360" height="640" fill="white"/>
</clipPath>
</defs>
</svg>
