<svg width="411" height="823" viewBox="0 0 411 823" fill="none" xmlns="http://www.w3.org/2000/svg">
<rect width="411" height="823" fill="white"/>
<g clip-path="url(#clip0)">
<rect width="1000" height="1000" fill="black"/>
<path d="M79.3799 492.529C87.6982 492.529 95.4497 488.056 99.6088 480.865H114.513L112.969 484.31C111.468 487.663 109.614 490.884 107.178 493.638C100.221 501.51 90.0971 506.19 79.3799 506.19H70.6475L79.3799 492.529Z" fill="#00FFD1"/>
<path d="M-60.9415 452.184L-72.7878 445.352L-14.2907 344.17C-7.69572 332.758 4.5928 325.674 17.7853 325.674H133.615L139.64 339.335H17.7853C9.46762 339.335 1.71549 343.801 -2.44684 350.999L-60.9415 452.184Z" fill="#00FFD1"/>
<path d="M138.138 441.607L122.315 441.583L150.18 393.848C150.247 393.73 150.427 393.423 150.183 392.997C149.936 392.572 149.58 392.572 149.447 392.572H54.0317C45.7166 392.572 37.9619 397.041 33.8028 404.236L12.1978 441.607H-3.59839L21.9558 397.403C28.5507 385.995 40.8424 378.91 54.0317 378.91H149.447C154.711 378.91 159.421 381.631 162.045 386.192C164.667 390.75 164.652 396.187 161.997 400.73L138.138 441.607Z" fill="#00FFD1"/>
<path d="M112.969 281.88C111.468 278.523 109.611 275.306 107.178 272.552C100.221 264.68 90.0977 260 79.3805 260H-20.1814C-33.3707 260 -45.6656 267.087 -52.2574 278.493L-102.038 364.6C-108.654 376.045 -108.654 390.144 -102.038 401.589L-52.2574 487.696C-45.6656 499.101 -33.3707 506.189 -20.1814 506.189H28.902C36.1032 506.189 42.7618 502.364 46.3789 496.143L108.582 389.171L96.7499 382.309L34.5472 489.283C33.3779 491.29 31.2284 492.527 28.902 492.527H-20.1814C-28.5271 492.527 -36.2391 488.079 -40.4104 480.864L-90.191 394.757C-94.3501 387.563 -94.3501 378.626 -90.191 371.432L-40.4104 285.325C-36.2391 278.11 -28.5271 273.661 -20.1814 273.661H79.3805C87.6981 273.661 95.4502 278.134 99.6062 285.325H114.51L112.969 281.88Z" fill="#00FFD1"/>
</g>
<defs>
<clipPath id="clip0">
<rect width="411" height="823" fill="white"/>
</clipPath>
</defs>
</svg>
