<svg width="1280" height="720" viewBox="0 0 1280 720" fill="none" xmlns="http://www.w3.org/2000/svg">
<rect width="1280" height="720" fill="white"/>
<g clip-path="url(#clip0)">
<rect width="1000" height="1000" fill="black"/>
<path d="M948.379 492.529C956.697 492.529 964.449 488.056 968.608 480.865H983.512L981.968 484.31C980.467 487.663 978.613 490.884 976.177 493.638C969.22 501.51 959.096 506.19 948.379 506.19H939.646L948.379 492.529Z" fill="#00FFD1"/>
<path d="M808.059 452.184L796.213 445.352L854.71 344.17C861.305 332.758 873.594 325.674 886.786 325.674H1002.62L1008.64 339.335H886.786C878.468 339.335 870.716 343.801 866.554 350.999L808.059 452.184Z" fill="#00FFD1"/>
<path d="M1007.14 441.607L991.316 441.583L1019.18 393.848C1019.25 393.73 1019.43 393.423 1019.18 392.997C1018.94 392.572 1018.58 392.572 1018.45 392.572H923.032C914.717 392.572 906.963 397.041 902.804 404.236L881.199 441.607H865.402L890.956 397.403C897.551 385.995 909.843 378.91 923.032 378.91H1018.45C1023.71 378.91 1028.42 381.631 1031.05 386.192C1033.67 390.75 1033.65 396.187 1031 400.73L1007.14 441.607Z" fill="#00FFD1"/>
<path d="M981.969 281.88C980.468 278.523 978.611 275.306 976.178 272.552C969.221 264.68 959.098 260 948.38 260H848.819C835.629 260 823.334 267.087 816.743 278.493L766.962 364.6C760.346 376.045 760.346 390.144 766.962 401.589L816.743 487.696C823.334 499.101 835.629 506.189 848.819 506.189H897.902C905.103 506.189 911.762 502.364 915.379 496.143L977.582 389.171L965.75 382.309L903.547 489.283C902.378 491.29 900.228 492.527 897.902 492.527H848.819C840.473 492.527 832.761 488.079 828.59 480.864L778.809 394.757C774.65 387.563 774.65 378.626 778.809 371.432L828.59 285.325C832.761 278.11 840.473 273.661 848.819 273.661H948.38C956.698 273.661 964.45 278.134 968.606 285.325H983.51L981.969 281.88Z" fill="#00FFD1"/>
</g>
<defs>
<clipPath id="clip0">
<rect width="1280" height="720" fill="white"/>
</clipPath>
</defs>
</svg>
