<svg width="1112" height="834" viewBox="0 0 1112 834" fill="none" xmlns="http://www.w3.org/2000/svg">
<rect width="1112" height="834" fill="white"/>
<g clip-path="url(#clip0)">
<rect width="1000" height="1000" fill="black"/>
<path d="M780.38 492.529C788.698 492.529 796.45 488.056 800.609 480.865H815.513L813.969 484.31C812.468 487.663 810.614 490.884 808.178 493.638C801.221 501.51 791.097 506.19 780.38 506.19H771.647L780.38 492.529Z" fill="#00FFD1"/>
<path d="M640.058 452.184L628.212 445.352L686.709 344.17C693.304 332.758 705.593 325.674 718.785 325.674H834.615L840.64 339.335H718.785C710.467 339.335 702.715 343.801 698.553 350.999L640.058 452.184Z" fill="#00FFD1"/>
<path d="M839.138 441.607L823.315 441.583L851.18 393.848C851.247 393.73 851.427 393.423 851.183 392.997C850.936 392.572 850.58 392.572 850.446 392.572H755.031C746.716 392.572 738.962 397.041 734.803 404.236L713.198 441.607H697.401L722.956 397.403C729.55 385.995 741.842 378.91 755.031 378.91H850.446C855.71 378.91 860.42 381.631 863.045 386.192C865.667 390.75 865.652 396.187 862.996 400.73L839.138 441.607Z" fill="#00FFD1"/>
<path d="M813.969 281.88C812.468 278.523 810.611 275.306 808.178 272.552C801.221 264.68 791.098 260 780.38 260H680.819C667.629 260 655.334 267.087 648.743 278.493L598.962 364.6C592.346 376.045 592.346 390.144 598.962 401.589L648.743 487.696C655.334 499.101 667.629 506.189 680.819 506.189H729.902C737.103 506.189 743.762 502.364 747.379 496.143L809.582 389.171L797.75 382.309L735.547 489.283C734.378 491.29 732.228 492.527 729.902 492.527H680.819C672.473 492.527 664.761 488.079 660.59 480.864L610.809 394.757C606.65 387.563 606.65 378.626 610.809 371.432L660.59 285.325C664.761 278.11 672.473 273.661 680.819 273.661H780.38C788.698 273.661 796.45 278.134 800.606 285.325H815.51L813.969 281.88Z" fill="#00FFD1"/>
</g>
<defs>
<clipPath id="clip0">
<rect width="1112" height="834" fill="white"/>
</clipPath>
</defs>
</svg>
