<svg width="1024" height="1366" viewBox="0 0 1024 1366" fill="none" xmlns="http://www.w3.org/2000/svg">
<rect width="1024" height="1366" fill="white"/>
<rect width="1000" height="1000" fill="black"/>
<path d="M692.38 492.529C700.698 492.529 708.45 488.056 712.609 480.865H727.513L725.969 484.31C724.468 487.663 722.614 490.884 720.178 493.638C713.221 501.51 703.097 506.19 692.38 506.19H683.647L692.38 492.529Z" fill="#00FFD1"/>
<path d="M552.058 452.184L540.212 445.352L598.709 344.17C605.304 332.758 617.593 325.674 630.785 325.674H746.615L752.64 339.335H630.785C622.467 339.335 614.715 343.801 610.553 350.999L552.058 452.184Z" fill="#00FFD1"/>
<path d="M751.138 441.607L735.315 441.583L763.18 393.848C763.247 393.73 763.427 393.423 763.183 392.997C762.936 392.572 762.58 392.572 762.446 392.572H667.031C658.716 392.572 650.962 397.041 646.803 404.236L625.198 441.607H609.401L634.956 397.403C641.55 385.995 653.842 378.91 667.031 378.91H762.446C767.71 378.91 772.42 381.631 775.045 386.192C777.667 390.75 777.652 396.187 774.996 400.73L751.138 441.607Z" fill="#00FFD1"/>
<path d="M725.969 281.88C724.468 278.523 722.611 275.306 720.178 272.552C713.221 264.68 703.098 260 692.38 260H592.819C579.629 260 567.334 267.087 560.743 278.493L510.962 364.6C504.346 376.045 504.346 390.144 510.962 401.589L560.743 487.696C567.334 499.101 579.629 506.189 592.819 506.189H641.902C649.103 506.189 655.762 502.364 659.379 496.143L721.582 389.171L709.75 382.309L647.547 489.283C646.378 491.29 644.228 492.527 641.902 492.527H592.819C584.473 492.527 576.761 488.079 572.59 480.864L522.809 394.757C518.65 387.563 518.65 378.626 522.809 371.432L572.59 285.325C576.761 278.11 584.473 273.661 592.819 273.661H692.38C700.698 273.661 708.45 278.134 712.606 285.325H727.51L725.969 281.88Z" fill="#00FFD1"/>
</svg>
