<svg width="834" height="1112" viewBox="0 0 834 1112" fill="none" xmlns="http://www.w3.org/2000/svg">
<rect width="834" height="1112" fill="white"/>
<g clip-path="url(#clip0)">
<rect width="1000" height="1000" fill="black"/>
<path d="M502.38 492.529C510.698 492.529 518.45 488.056 522.609 480.865H537.513L535.969 484.31C534.468 487.663 532.614 490.884 530.178 493.638C523.221 501.51 513.097 506.19 502.38 506.19H493.647L502.38 492.529Z" fill="#00FFD1"/>
<path d="M362.058 452.184L350.212 445.352L408.709 344.17C415.304 332.758 427.593 325.674 440.785 325.674H556.615L562.64 339.335H440.785C432.467 339.335 424.715 343.801 420.553 350.999L362.058 452.184Z" fill="#00FFD1"/>
<path d="M561.139 441.607L545.316 441.583L573.18 393.848C573.248 393.73 573.427 393.423 573.183 392.997C572.937 392.572 572.58 392.572 572.447 392.572H477.032C468.717 392.572 460.962 397.041 456.803 404.236L435.198 441.607H419.402L444.956 397.403C451.551 385.995 463.843 378.91 477.032 378.91H572.447C577.711 378.91 582.421 381.631 585.046 386.192C587.667 390.75 587.652 396.187 584.997 400.73L561.139 441.607Z" fill="#00FFD1"/>
<path d="M535.969 281.88C534.468 278.523 532.611 275.306 530.178 272.552C523.221 264.68 513.098 260 502.38 260H402.819C389.629 260 377.334 267.087 370.743 278.493L320.962 364.6C314.346 376.045 314.346 390.144 320.962 401.589L370.743 487.696C377.334 499.101 389.629 506.189 402.819 506.189H451.902C459.103 506.189 465.762 502.364 469.379 496.143L531.582 389.171L519.75 382.309L457.547 489.283C456.378 491.29 454.228 492.527 451.902 492.527H402.819C394.473 492.527 386.761 488.079 382.59 480.864L332.809 394.757C328.65 387.563 328.65 378.626 332.809 371.432L382.59 285.325C386.761 278.11 394.473 273.661 402.819 273.661H502.38C510.698 273.661 518.45 278.134 522.606 285.325H537.51L535.969 281.88Z" fill="#00FFD1"/>
</g>
<defs>
<clipPath id="clip0">
<rect width="834" height="1112" fill="white"/>
</clipPath>
</defs>
</svg>
