<svg width="1152" height="700" viewBox="0 0 1152 700" fill="none" xmlns="http://www.w3.org/2000/svg">
<rect width="1152" height="700" fill="white"/>
<g clip-path="url(#clip0)">
<rect width="1000" height="1000" fill="black"/>
<path d="M820.379 492.529C828.697 492.529 836.449 488.056 840.608 480.865H855.512L853.968 484.31C852.467 487.663 850.613 490.884 848.177 493.638C841.22 501.51 831.096 506.19 820.379 506.19H811.646L820.379 492.529Z" fill="#00FFD1"/>
<path d="M680.059 452.184L668.213 445.352L726.71 344.17C733.305 332.758 745.594 325.674 758.786 325.674H874.616L880.641 339.335H758.786C750.468 339.335 742.716 343.801 738.554 350.999L680.059 452.184Z" fill="#00FFD1"/>
<path d="M879.139 441.607L863.316 441.583L891.181 393.848C891.248 393.73 891.428 393.423 891.184 392.997C890.937 392.572 890.581 392.572 890.447 392.572H795.032C786.717 392.572 778.963 397.041 774.804 404.236L753.199 441.607H737.402L762.956 397.403C769.551 385.995 781.843 378.91 795.032 378.91H890.447C895.711 378.91 900.421 381.631 903.046 386.192C905.668 390.75 905.653 396.187 902.997 400.73L879.139 441.607Z" fill="#00FFD1"/>
<path d="M853.969 281.88C852.468 278.523 850.611 275.306 848.178 272.552C841.221 264.68 831.098 260 820.38 260H720.819C707.629 260 695.334 267.087 688.743 278.493L638.962 364.6C632.346 376.045 632.346 390.144 638.962 401.589L688.743 487.696C695.334 499.101 707.629 506.189 720.819 506.189H769.902C777.103 506.189 783.762 502.364 787.379 496.143L849.582 389.171L837.75 382.309L775.547 489.283C774.378 491.29 772.228 492.527 769.902 492.527H720.819C712.473 492.527 704.761 488.079 700.59 480.864L650.809 394.757C646.65 387.563 646.65 378.626 650.809 371.432L700.59 285.325C704.761 278.11 712.473 273.661 720.819 273.661H820.38C828.698 273.661 836.45 278.134 840.606 285.325H855.51L853.969 281.88Z" fill="#00FFD1"/>
</g>
<defs>
<clipPath id="clip0">
<rect width="1152" height="700" fill="white"/>
</clipPath>
</defs>
</svg>
