<svg width="1500" height="1000" viewBox="0 0 1500 1000" fill="none" xmlns="http://www.w3.org/2000/svg">
<rect width="1500" height="1000" fill="white"/>
<rect width="1000" height="1000" fill="black"/>
<path d="M1168.38 492.529C1176.7 492.529 1184.45 488.056 1188.61 480.865H1203.51L1201.97 484.31C1200.47 487.663 1198.61 490.884 1196.18 493.638C1189.22 501.51 1179.1 506.19 1168.38 506.19H1159.65L1168.38 492.529Z" fill="#00FFD1"/>
<path d="M1028.06 452.184L1016.21 445.352L1074.71 344.17C1081.31 332.758 1093.59 325.674 1106.79 325.674H1222.62L1228.64 339.335H1106.79C1098.47 339.335 1090.72 343.801 1086.55 350.999L1028.06 452.184Z" fill="#00FFD1"/>
<path d="M1227.14 441.607L1211.32 441.583L1239.18 393.848C1239.25 393.73 1239.43 393.423 1239.18 392.997C1238.94 392.572 1238.58 392.572 1238.45 392.572H1143.03C1134.72 392.572 1126.96 397.041 1122.8 404.236L1101.2 441.607H1085.4L1110.96 397.403C1117.55 385.995 1129.84 378.91 1143.03 378.91H1238.45C1243.71 378.91 1248.42 381.631 1251.05 386.192C1253.67 390.75 1253.65 396.187 1251 400.73L1227.14 441.607Z" fill="#00FFD1"/>
<path d="M1201.97 281.88C1200.47 278.523 1198.61 275.306 1196.18 272.552C1189.22 264.68 1179.1 260 1168.38 260H1068.82C1055.63 260 1043.33 267.087 1036.74 278.493L986.962 364.6C980.346 376.045 980.346 390.144 986.962 401.589L1036.74 487.696C1043.33 499.101 1055.63 506.189 1068.82 506.189H1117.9C1125.1 506.189 1131.76 502.364 1135.38 496.143L1197.58 389.171L1185.75 382.309L1123.55 489.283C1122.38 491.29 1120.23 492.527 1117.9 492.527H1068.82C1060.47 492.527 1052.76 488.079 1048.59 480.864L998.809 394.757C994.65 387.563 994.65 378.626 998.809 371.432L1048.59 285.325C1052.76 278.11 1060.47 273.661 1068.82 273.661H1168.38C1176.7 273.661 1184.45 278.134 1188.61 285.325H1203.51L1201.97 281.88Z" fill="#00FFD1"/>
</svg>
