<svg width="912" height="1368" viewBox="0 0 912 1368" fill="none" xmlns="http://www.w3.org/2000/svg">
<rect width="912" height="1368" fill="white"/>
<g clip-path="url(#clip0)">
<rect width="1000" height="1000" fill="black"/>
<path d="M580.38 492.529C588.698 492.529 596.45 488.056 600.609 480.865H615.513L613.969 484.31C612.468 487.663 610.614 490.884 608.178 493.638C601.221 501.51 591.097 506.19 580.38 506.19H571.647L580.38 492.529Z" fill="#00FFD1"/>
<path d="M440.058 452.184L428.212 445.352L486.709 344.17C493.304 332.758 505.593 325.674 518.785 325.674H634.615L640.64 339.335H518.785C510.467 339.335 502.715 343.801 498.553 350.999L440.058 452.184Z" fill="#00FFD1"/>
<path d="M639.138 441.607L623.315 441.583L651.18 393.848C651.247 393.73 651.427 393.423 651.183 392.997C650.936 392.572 650.58 392.572 650.446 392.572H555.031C546.716 392.572 538.962 397.041 534.803 404.236L513.198 441.607H497.401L522.956 397.403C529.55 385.995 541.842 378.91 555.031 378.91H650.446C655.71 378.91 660.42 381.631 663.045 386.192C665.667 390.75 665.652 396.187 662.996 400.73L639.138 441.607Z" fill="#00FFD1"/>
<path d="M613.969 281.88C612.468 278.523 610.611 275.306 608.178 272.552C601.221 264.68 591.098 260 580.38 260H480.819C467.629 260 455.334 267.087 448.743 278.493L398.962 364.6C392.346 376.045 392.346 390.144 398.962 401.589L448.743 487.696C455.334 499.101 467.629 506.189 480.819 506.189H529.902C537.103 506.189 543.762 502.364 547.379 496.143L609.582 389.171L597.75 382.309L535.547 489.283C534.378 491.29 532.228 492.527 529.902 492.527H480.819C472.473 492.527 464.761 488.079 460.59 480.864L410.809 394.757C406.65 387.563 406.65 378.626 410.809 371.432L460.59 285.325C464.761 278.11 472.473 273.661 480.819 273.661H580.38C588.698 273.661 596.45 278.134 600.606 285.325H615.51L613.969 281.88Z" fill="#00FFD1"/>
</g>
<defs>
<clipPath id="clip0">
<rect width="912" height="1368" fill="white"/>
</clipPath>
</defs>
</svg>
