<svg width="990" height="1440" viewBox="0 0 990 1440" fill="none" xmlns="http://www.w3.org/2000/svg">
<rect width="990" height="1440" fill="white"/>
<g clip-path="url(#clip0)">
<rect width="1000" height="1000" fill="black"/>
<path d="M658.38 492.529C666.698 492.529 674.45 488.056 678.609 480.865H693.513L691.969 484.31C690.468 487.663 688.614 490.884 686.178 493.638C679.221 501.51 669.097 506.19 658.38 506.19H649.647L658.38 492.529Z" fill="#00FFD1"/>
<path d="M518.058 452.184L506.212 445.352L564.709 344.17C571.304 332.758 583.593 325.674 596.785 325.674H712.615L718.64 339.335H596.785C588.467 339.335 580.715 343.801 576.553 350.999L518.058 452.184Z" fill="#00FFD1"/>
<path d="M717.138 441.607L701.315 441.583L729.18 393.848C729.247 393.73 729.427 393.423 729.183 392.997C728.936 392.572 728.58 392.572 728.446 392.572H633.031C624.716 392.572 616.962 397.041 612.803 404.236L591.198 441.607H575.401L600.956 397.403C607.55 385.995 619.842 378.91 633.031 378.91H728.446C733.71 378.91 738.42 381.631 741.045 386.192C743.667 390.75 743.652 396.187 740.996 400.73L717.138 441.607Z" fill="#00FFD1"/>
<path d="M691.969 281.88C690.468 278.523 688.611 275.306 686.178 272.552C679.221 264.68 669.098 260 658.38 260H558.819C545.629 260 533.334 267.087 526.743 278.493L476.962 364.6C470.346 376.045 470.346 390.144 476.962 401.589L526.743 487.696C533.334 499.101 545.629 506.189 558.819 506.189H607.902C615.103 506.189 621.762 502.364 625.379 496.143L687.582 389.171L675.75 382.309L613.547 489.283C612.378 491.29 610.228 492.527 607.902 492.527H558.819C550.473 492.527 542.761 488.079 538.59 480.864L488.809 394.757C484.65 387.563 484.65 378.626 488.809 371.432L538.59 285.325C542.761 278.11 550.473 273.661 558.819 273.661H658.38C666.698 273.661 674.45 278.134 678.606 285.325H693.51L691.969 281.88Z" fill="#00FFD1"/>
</g>
<defs>
<clipPath id="clip0">
<rect width="990" height="1440" fill="white"/>
</clipPath>
</defs>
</svg>
