<svg width="1368" height="912" viewBox="0 0 1368 912" fill="none" xmlns="http://www.w3.org/2000/svg">
<rect width="1368" height="912" fill="white"/>
<g clip-path="url(#clip0)">
<rect width="1000" height="1000" fill="black"/>
<path d="M1036.38 492.529C1044.7 492.529 1052.45 488.056 1056.61 480.865H1071.51L1069.97 484.31C1068.47 487.663 1066.61 490.884 1064.18 493.638C1057.22 501.51 1047.1 506.19 1036.38 506.19H1027.65L1036.38 492.529Z" fill="#00FFD1"/>
<path d="M896.058 452.184L884.212 445.352L942.709 344.17C949.304 332.758 961.593 325.674 974.785 325.674H1090.61L1096.64 339.335H974.785C966.467 339.335 958.715 343.801 954.553 350.999L896.058 452.184Z" fill="#00FFD1"/>
<path d="M1095.14 441.607L1079.32 441.583L1107.18 393.848C1107.25 393.73 1107.43 393.423 1107.18 392.997C1106.94 392.572 1106.58 392.572 1106.45 392.572H1011.03C1002.72 392.572 994.962 397.041 990.803 404.236L969.198 441.607H953.401L978.956 397.403C985.55 385.995 997.842 378.91 1011.03 378.91H1106.45C1111.71 378.91 1116.42 381.631 1119.05 386.192C1121.67 390.75 1121.65 396.187 1119 400.73L1095.14 441.607Z" fill="#00FFD1"/>
<path d="M1069.97 281.88C1068.47 278.523 1066.61 275.306 1064.18 272.552C1057.22 264.68 1047.1 260 1036.38 260H936.819C923.629 260 911.334 267.087 904.743 278.493L854.962 364.6C848.346 376.045 848.346 390.144 854.962 401.589L904.743 487.696C911.334 499.101 923.629 506.189 936.819 506.189H985.902C993.103 506.189 999.762 502.364 1003.38 496.143L1065.58 389.171L1053.75 382.309L991.547 489.283C990.378 491.29 988.228 492.527 985.902 492.527H936.819C928.473 492.527 920.761 488.079 916.59 480.864L866.809 394.757C862.65 387.563 862.65 378.626 866.809 371.432L916.59 285.325C920.761 278.11 928.473 273.661 936.819 273.661H1036.38C1044.7 273.661 1052.45 278.134 1056.61 285.325H1071.51L1069.97 281.88Z" fill="#00FFD1"/>
</g>
<defs>
<clipPath id="clip0">
<rect width="1368" height="912" fill="white"/>
</clipPath>
</defs>
</svg>
