<svg width="1440" height="990" viewBox="0 0 1440 990" fill="none" xmlns="http://www.w3.org/2000/svg">
<rect width="1440" height="990" fill="white"/>
<g clip-path="url(#clip0)">
<rect width="1000" height="1000" fill="black"/>
<path d="M1108.38 492.529C1116.7 492.529 1124.45 488.056 1128.61 480.865H1143.51L1141.97 484.31C1140.47 487.663 1138.61 490.884 1136.18 493.638C1129.22 501.51 1119.1 506.19 1108.38 506.19H1099.65L1108.38 492.529Z" fill="#00FFD1"/>
<path d="M968.058 452.184L956.212 445.352L1014.71 344.17C1021.3 332.758 1033.59 325.674 1046.79 325.674H1162.61L1168.64 339.335H1046.79C1038.47 339.335 1030.72 343.801 1026.55 350.999L968.058 452.184Z" fill="#00FFD1"/>
<path d="M1167.14 441.607L1151.32 441.583L1179.18 393.848C1179.25 393.73 1179.43 393.423 1179.18 392.997C1178.94 392.572 1178.58 392.572 1178.45 392.572H1083.03C1074.72 392.572 1066.96 397.041 1062.8 404.236L1041.2 441.607H1025.4L1050.96 397.403C1057.55 385.995 1069.84 378.91 1083.03 378.91H1178.45C1183.71 378.91 1188.42 381.631 1191.05 386.192C1193.67 390.75 1193.65 396.187 1191 400.73L1167.14 441.607Z" fill="#00FFD1"/>
<path d="M1141.97 281.88C1140.47 278.523 1138.61 275.306 1136.18 272.552C1129.22 264.68 1119.1 260 1108.38 260H1008.82C995.629 260 983.334 267.087 976.743 278.493L926.962 364.6C920.346 376.045 920.346 390.144 926.962 401.589L976.743 487.696C983.334 499.101 995.629 506.189 1008.82 506.189H1057.9C1065.1 506.189 1071.76 502.364 1075.38 496.143L1137.58 389.171L1125.75 382.309L1063.55 489.283C1062.38 491.29 1060.23 492.527 1057.9 492.527H1008.82C1000.47 492.527 992.761 488.079 988.59 480.864L938.809 394.757C934.65 387.563 934.65 378.626 938.809 371.432L988.59 285.325C992.761 278.11 1000.47 273.661 1008.82 273.661H1108.38C1116.7 273.661 1124.45 278.134 1128.61 285.325H1143.51L1141.97 281.88Z" fill="#00FFD1"/>
</g>
<defs>
<clipPath id="clip0">
<rect width="1440" height="990" fill="white"/>
</clipPath>
</defs>
</svg>
