<svg width="1128" height="482" viewBox="0 0 1128 482" fill="none" xmlns="http://www.w3.org/2000/svg"><path fill="#E8F7FF" fill-opacity=".4" d="M0 0h1128v482H0z"/><path d="M361.501 281.031v-4.442c2.7 0 5.218-1.453 6.567-3.79l3.847 2.22c-2.14 3.708-6.131 6.012-10.414 6.012zM315.947 263.474l-3.846-2.221 18.99-32.892c2.142-3.71 6.132-6.014 10.414-6.014h37.982v4.442h-37.982c-2.7 0-5.216 1.453-6.567 3.792l-18.991 32.893z" fill="#002D7B"/><path d="M379.278 262.265l-3.837-2.237 9.045-15.518c.021-.037.08-.137.001-.276-.08-.138-.196-.138-.238-.138h-30.976c-2.7 0-5.218 1.453-6.568 3.792l-8.296 14.369-3.846-2.22 8.296-14.371c2.142-3.708 6.132-6.012 10.414-6.012h30.976c1.708 0 3.237.886 4.089 2.368.852 1.483.847 3.248-.015 4.726l-9.045 15.517z" fill="#002D7B"/><path d="M345.114 281.031h-15.935c-4.282 0-8.272-2.304-10.413-6.012l-16.16-27.991c-2.141-3.709-2.141-8.317 0-12.025l16.16-27.992c2.141-3.708 6.131-6.011 10.413-6.011h32.323c4.281 0 8.272 2.303 10.412 6.011l-3.845 2.221c-1.351-2.339-3.867-3.791-6.567-3.791h-32.323c-2.7 0-5.217 1.452-6.566 3.791l-16.162 27.992c-1.349 2.339-1.349 5.244 0 7.583l16.162 27.992c1.349 2.337 3.866 3.79 6.566 3.79h15.935c.752 0 1.455-.404 1.833-1.054l20.194-34.775 3.84 2.231-20.194 34.774c-1.169 2.015-3.344 3.266-5.673 3.266z" fill="#002D7B"/><path d="M465.46 239.563v5.88h-21.998v19.645h-6.64v-45.932h33.618v5.88h-26.978v14.527h21.998zM495.826 233.268v5.88h-.277c-1.383-.968-3.112-1.522-5.049-1.522-6.226 0-9.2 4.288-9.2 12.727v14.735h-5.88v-32.374h4.981l.139 5.188h.138c1.936-3.873 5.326-5.88 10.236-5.88 2.146 0 3.806.554 4.912 1.246zM504.334 245.927h21.859c-.831-5.258-4.982-8.647-10.86-8.647-5.535 0-9.892 3.459-10.999 8.647zm0 4.91c.829 6.019 5.672 9.686 13.004 9.686 4.773 0 8.924-1.523 11.968-4.428h.276v5.949c-2.905 2.352-7.332 3.735-12.383 3.735-11.413 0-18.814-6.71-18.814-16.878 0-9.892 6.986-16.878 16.878-16.878 9.96 0 16.394 6.156 16.394 15.564v3.25h-27.323zM538.641 232.714h5.88v32.373h-5.88v-32.373zm6.78-10.168c0 2.283-1.591 3.873-3.874 3.873-2.282 0-3.874-1.59-3.874-3.873 0-2.283 1.592-3.875 3.874-3.875 2.283 0 3.874 1.592 3.874 3.875zM579.868 248.763c0-6.848-4.635-11.483-11.207-11.483-6.64 0-11.207 4.635-11.207 11.483 0 6.848 4.567 11.482 11.207 11.482 6.572 0 11.207-4.634 11.207-11.482zm5.672 13.765c0 10.237-6.503 16.395-17.502 16.395-5.672 0-10.513-1.592-13.488-4.29v-6.156h.276c2.628 3.251 7.264 5.188 12.59 5.188 7.817 0 12.244-4.081 12.244-11.482v-1.591h-.139c-2.559 3.112-6.571 4.911-11.828 4.911-9.408 0-16.187-6.918-16.187-16.74 0-9.823 6.779-16.74 16.187-16.74 5.672 0 10.099 2.213 12.52 5.88h.139l.208-5.188h4.98v29.813zM624.829 246.272v18.815h-5.88v-18.123c0-6.088-3.32-9.684-8.786-9.684-6.017 0-9.614 4.149-9.614 10.997v16.81h-5.88v-48.422h5.88v20.062h.138c2.282-3.044 6.087-4.706 10.86-4.706 8.231 0 13.282 5.396 13.282 14.251zM651.736 264.603c-1.452.761-3.389 1.176-5.88 1.176-6.778 0-10.584-4.012-10.584-11.275v-16.67h-5.948v-5.12h6.087l.9-8.784h4.843v8.784h10.444v5.12h-10.444v16.532c0 3.873 2.074 6.156 5.533 6.156 1.799 0 3.459-.484 4.772-1.867h.277v5.948z" fill="#000"/><path d="M695.105 265.087h-10.237v-36.8h-13.696v-9.13h37.56v9.13h-13.627v36.8zM733.84 233.129v8.855h-.345c-1.384-.968-3.114-1.522-5.12-1.522-5.534 0-8.024 3.39-8.024 10.652v13.974h-9.062v-32.512h7.54l.415 5.05h.139c1.798-3.805 4.981-5.742 9.684-5.742 2.076 0 3.805.485 4.773 1.245zM761.23 265.087l-.345-4.634h-.139c-1.937 3.389-5.396 5.326-10.098 5.326-7.956 0-12.66-5.188-12.66-13.973v-19.231h9.062v18.194c0 4.496 2.214 6.986 6.018 6.986 4.15 0 6.641-2.836 6.641-7.886v-17.294h9.061v32.512h-7.54zM799.135 233.96v8.646h-.345c-2.145-2.145-5.465-3.252-9.684-3.252-3.528 0-5.257 1.039-5.257 3.044 0 1.452 1.106 2.076 5.396 2.352 8.645.554 12.034 3.598 12.034 10.446 0 6.64-4.98 10.582-13.349 10.582-5.396 0-9.547-.968-12.313-2.904v-8.717h.414c2.56 2.768 6.434 4.152 11.483 4.152 3.528 0 5.257-1.039 5.257-3.113 0-1.73-1.384-2.422-5.948-2.836-8.232-.762-11.484-3.252-11.484-9.684 0-6.572 5.327-10.792 13.559-10.792 3.943 0 7.679.761 10.237 2.076zM827.219 264.672c-1.59.761-3.597 1.107-6.364 1.107-7.886 0-12.105-4.288-12.105-12.52v-13.004h-5.396v-7.679h5.672l1.176-9.131h7.609v9.131h9.339v7.679h-9.339v12.658c0 3.112 1.66 4.843 4.496 4.843 1.662 0 3.183-.416 4.566-1.868h.346v8.784z" fill="#002D7B"/></svg>