<svg width="375" height="667" viewBox="0 0 375 667" fill="none" xmlns="http://www.w3.org/2000/svg">
<rect width="375" height="667" fill="white"/>
<g clip-path="url(#clip0)">
<rect width="1000" height="1000" fill="black"/>
<path d="M43.3799 492.529C51.6982 492.529 59.4497 488.056 63.6088 480.865H78.5125L76.9686 484.31C75.4679 487.663 73.6135 490.884 71.1777 493.638C64.2208 501.51 54.0971 506.19 43.3799 506.19H34.6475L43.3799 492.529Z" fill="#00FFD1"/>
<path d="M-96.9415 452.184L-108.788 445.352L-50.2907 344.17C-43.6957 332.758 -31.4072 325.674 -18.2147 325.674H97.6148L103.64 339.335H-18.2147C-26.5324 339.335 -34.2845 343.801 -38.4468 350.999L-96.9415 452.184Z" fill="#00FFD1"/>
<path d="M102.138 441.607L86.3154 441.583L114.18 393.848C114.247 393.73 114.427 393.423 114.183 392.997C113.936 392.572 113.58 392.572 113.447 392.572H18.0317C9.71659 392.572 1.96192 397.041 -2.19723 404.236L-23.8022 441.607H-39.5984L-14.0442 397.403C-7.44927 385.995 4.84241 378.91 18.0317 378.91H113.447C118.711 378.91 123.421 381.631 126.045 386.192C128.667 390.75 128.652 396.187 125.997 400.73L102.138 441.607Z" fill="#00FFD1"/>
<path d="M76.9692 281.88C75.4685 278.523 73.611 275.306 71.1783 272.552C64.2214 264.68 54.0977 260 43.3805 260H-56.1814C-69.3707 260 -81.6656 267.087 -88.2574 278.493L-138.038 364.6C-144.654 376.045 -144.654 390.144 -138.038 401.589L-88.2574 487.696C-81.6656 499.101 -69.3707 506.189 -56.1814 506.189H-7.09803C0.103191 506.189 6.76177 502.364 10.3789 496.143L72.5817 389.171L60.7499 382.309L-1.45282 489.283C-2.62206 491.29 -4.77163 492.527 -7.09803 492.527H-56.1814C-64.5271 492.527 -72.2391 488.079 -76.4104 480.864L-126.191 394.757C-130.35 387.563 -130.35 378.626 -126.191 371.432L-76.4104 285.325C-72.2391 278.11 -64.5271 273.661 -56.1814 273.661H43.3805C51.6981 273.661 59.4502 278.134 63.6062 285.325H78.5099L76.9692 281.88Z" fill="#00FFD1"/>
</g>
<defs>
<clipPath id="clip0">
<rect width="375" height="667" fill="white"/>
</clipPath>
</defs>
</svg>
