<svg width="2000" height="2000" viewBox="0 0 2000 2000" fill="none" xmlns="http://www.w3.org/2000/svg">
<g clip-path="url(#clip0)">
<path d="M-25 1088H975V88H-25V1088Z" fill="#002D7B"/>
<path d="M975 1088H1975V88H975V1088Z" fill="#31ECE6"/>
<path d="M256.501 358.031V353.589C259.201 353.589 261.719 352.136 263.068 349.799L266.915 352.019C264.775 355.727 260.784 358.031 256.501 358.031Z" fill="#31ECE6"/>
<path d="M210.947 340.474L207.101 338.253L226.091 305.361C228.233 301.651 232.223 299.347 236.505 299.347H274.487V303.789H236.505C233.805 303.789 231.289 305.242 229.938 307.581L210.947 340.474Z" fill="#31ECE6"/>
<path d="M274.278 339.265L270.441 337.028L279.486 321.51C279.507 321.473 279.566 321.373 279.487 321.234C279.407 321.096 279.291 321.096 279.249 321.096H248.273C245.573 321.096 243.055 322.549 241.705 324.888L233.409 339.257L229.563 337.037L237.859 322.666C240.001 318.958 243.991 316.654 248.273 316.654H279.249C280.957 316.654 282.486 317.54 283.338 319.022C284.19 320.505 284.185 322.27 283.323 323.748L274.278 339.265Z" fill="#31ECE6"/>
<path d="M240.114 358.031H224.179C219.897 358.031 215.907 355.727 213.766 352.019L197.606 324.028C195.465 320.319 195.465 315.711 197.606 312.003L213.766 284.011C215.907 280.303 219.897 278 224.179 278H256.502C260.783 278 264.774 280.303 266.914 284.011L263.069 286.232C261.718 283.893 259.202 282.441 256.502 282.441H224.179C221.479 282.441 218.962 283.893 217.613 286.232L201.451 314.224C200.102 316.563 200.102 319.468 201.451 321.807L217.613 349.799C218.962 352.136 221.479 353.589 224.179 353.589H240.114C240.866 353.589 241.569 353.185 241.947 352.535L262.141 317.76L265.981 319.991L245.787 354.765C244.618 356.78 242.443 358.031 240.114 358.031Z" fill="#31ECE6"/>
<path d="M360.46 316.563V322.443H338.462V342.088H331.822V296.156H365.44V302.036H338.462V316.563H360.46Z" fill="white"/>
<path d="M390.826 310.268V316.148H390.549C389.166 315.18 387.437 314.626 385.5 314.626C379.274 314.626 376.3 318.914 376.3 327.353V342.088H370.42V309.714H375.401L375.54 314.902H375.678C377.614 311.029 381.004 309.022 385.914 309.022C388.06 309.022 389.72 309.576 390.826 310.268Z" fill="white"/>
<path d="M399.334 322.927H421.193C420.362 317.669 416.211 314.28 410.333 314.28C404.798 314.28 400.441 317.739 399.334 322.927ZM399.334 327.837C400.163 333.856 405.006 337.523 412.338 337.523C417.111 337.523 421.262 336 424.306 333.095H424.582V339.044C421.677 341.396 417.25 342.779 412.199 342.779C400.786 342.779 393.385 336.069 393.385 325.901C393.385 316.009 400.371 309.023 410.263 309.023C420.223 309.023 426.657 315.179 426.657 324.587V327.837H399.334Z" fill="white"/>
<path d="M433.641 309.714H439.521V342.087H433.641V309.714ZM440.421 299.546C440.421 301.829 438.83 303.419 436.547 303.419C434.265 303.419 432.673 301.829 432.673 299.546C432.673 297.263 434.265 295.671 436.547 295.671C438.83 295.671 440.421 297.263 440.421 299.546Z" fill="white"/>
<path d="M474.868 325.763C474.868 318.915 470.233 314.28 463.661 314.28C457.021 314.28 452.454 318.915 452.454 325.763C452.454 332.611 457.021 337.245 463.661 337.245C470.233 337.245 474.868 332.611 474.868 325.763ZM480.54 339.528C480.54 349.765 474.037 355.923 463.038 355.923C457.366 355.923 452.525 354.331 449.55 351.633V345.477H449.826C452.454 348.728 457.09 350.665 462.416 350.665C470.233 350.665 474.66 346.584 474.66 339.183V337.592H474.521C471.962 340.704 467.95 342.503 462.693 342.503C453.285 342.503 446.506 335.585 446.506 325.763C446.506 315.94 453.285 309.023 462.693 309.023C468.365 309.023 472.792 311.236 475.213 314.903H475.352L475.56 309.715H480.54V339.528Z" fill="white"/>
<path d="M519.829 323.272V342.087H513.949V323.964C513.949 317.876 510.629 314.28 505.163 314.28C499.146 314.28 495.549 318.429 495.549 325.277V342.087H489.669V293.665H495.549V313.727H495.687C497.969 310.683 501.774 309.021 506.547 309.021C514.778 309.021 519.829 314.417 519.829 323.272Z" fill="white"/>
<path d="M546.736 341.603C545.284 342.364 543.347 342.779 540.856 342.779C534.078 342.779 530.272 338.767 530.272 331.504V314.834H524.324V309.714H530.411L531.311 300.93H536.154V309.714H546.598V314.834H536.154V331.366C536.154 335.239 538.228 337.522 541.687 337.522C543.486 337.522 545.146 337.038 546.459 335.655H546.736V341.603Z" fill="white"/>
<path d="M590.105 342.087H579.868V305.287H566.172V296.157H603.732V305.287H590.105V342.087Z" fill="#31ECE6"/>
<path d="M628.84 310.129V318.984H628.495C627.111 318.016 625.381 317.462 623.375 317.462C617.841 317.462 615.351 320.852 615.351 328.114V342.088H606.289V309.576H613.829L614.244 314.626H614.383C616.181 310.821 619.364 308.884 624.067 308.884C626.143 308.884 627.872 309.369 628.84 310.129Z" fill="#31ECE6"/>
<path d="M656.23 342.087L655.885 337.453H655.746C653.809 340.842 650.35 342.779 645.648 342.779C637.692 342.779 632.988 337.591 632.988 328.806V309.575H642.05V327.769C642.05 332.265 644.264 334.755 648.068 334.755C652.218 334.755 654.709 331.919 654.709 326.869V309.575H663.77V342.087H656.23Z" fill="#31ECE6"/>
<path d="M694.135 310.96V319.606H693.79C691.645 317.461 688.325 316.354 684.106 316.354C680.578 316.354 678.849 317.393 678.849 319.398C678.849 320.85 679.955 321.474 684.245 321.75C692.89 322.304 696.279 325.348 696.279 332.196C696.279 338.836 691.299 342.778 682.93 342.778C677.534 342.778 673.383 341.81 670.617 339.874V331.157H671.031C673.591 333.925 677.465 335.309 682.514 335.309C686.042 335.309 687.771 334.27 687.771 332.196C687.771 330.466 686.387 329.774 681.823 329.36C673.591 328.598 670.339 326.108 670.339 319.676C670.339 313.104 675.666 308.884 683.898 308.884C687.841 308.884 691.577 309.645 694.135 310.96Z" fill="#31ECE6"/>
<path d="M722.219 341.672C720.629 342.433 718.622 342.779 715.855 342.779C707.969 342.779 703.75 338.491 703.75 330.259V317.255H698.354V309.576H704.026L705.202 300.445H712.811V309.576H722.15V317.255H712.811V329.913C712.811 333.025 714.471 334.756 717.307 334.756C718.969 334.756 720.49 334.34 721.873 332.888H722.219V341.672Z" fill="#31ECE6"/>
<path d="M386.282 504.805V500.82C388.705 500.82 390.964 499.517 392.174 497.419L395.625 499.412C393.705 502.739 390.125 504.805 386.282 504.805Z" fill="#31ECE6"/>
<path d="M345.411 489.054L341.96 487.062L358.999 457.55C360.919 454.222 364.499 452.155 368.342 452.155H402.419V456.139H368.342C365.919 456.139 363.662 457.443 362.45 459.542L345.411 489.054Z" fill="#31ECE6"/>
<path d="M402.232 487.969L398.788 485.962L406.904 472.04C406.924 472.005 406.977 471.916 406.905 471.792C406.833 471.668 406.731 471.668 406.691 471.668H378.9C376.477 471.668 374.219 472.97 373.008 475.069L365.564 487.962L362.113 485.969L369.557 473.077C371.479 469.749 375.059 467.682 378.9 467.682H406.691C408.224 467.682 409.596 468.476 410.36 469.806C411.124 471.137 411.12 472.721 410.347 474.046L402.232 487.969Z" fill="#31ECE6"/>
<path d="M371.58 504.805H357.284C353.441 504.805 349.861 502.739 347.941 499.412L333.441 474.297C331.52 470.971 331.52 466.836 333.441 463.509L347.941 438.395C349.861 435.068 353.441 433 357.284 433H386.282C390.125 433 393.705 435.068 395.625 438.395L392.174 440.388C390.964 438.289 388.705 436.985 386.282 436.985H357.284C354.86 436.985 352.602 438.289 351.39 440.388L336.892 465.501C335.68 467.6 335.68 470.207 336.892 472.305L351.39 497.419C352.602 499.517 354.86 500.82 357.284 500.82H371.58C372.254 500.82 372.885 500.457 373.224 499.873L391.342 468.675L394.788 470.675L376.67 501.875C375.621 503.683 373.67 504.805 371.58 504.805Z" fill="#31ECE6"/>
<path d="M455.166 454.027V457.846H440.881V470.603H436.569V440.775H458.401V444.594H440.881V454.027H455.166Z" fill="white"/>
<path d="M474.884 449.939V453.758H474.704C473.806 453.129 472.683 452.77 471.426 452.77C467.383 452.77 465.451 455.554 465.451 461.035V470.603H461.632V449.579H464.867L464.956 452.949H465.047C466.304 450.434 468.506 449.131 471.695 449.131C473.087 449.131 474.166 449.49 474.884 449.939Z" fill="white"/>
<path d="M480.408 458.16H494.602C494.064 454.745 491.369 452.545 487.55 452.545C483.957 452.545 481.126 454.791 480.408 458.16ZM480.408 461.349C480.946 465.257 484.092 467.639 488.853 467.639C491.953 467.639 494.648 466.651 496.625 464.764H496.804V468.627C494.917 470.155 492.042 471.052 488.764 471.052C481.352 471.052 476.545 466.695 476.545 460.092C476.545 453.668 481.081 449.131 487.505 449.131C493.974 449.131 498.152 453.129 498.152 459.239V461.349H480.408Z" fill="white"/>
<path d="M502.685 449.58H506.504V470.604H502.685V449.58ZM507.088 442.977C507.088 444.458 506.055 445.492 504.572 445.492C503.091 445.492 502.057 444.458 502.057 442.977C502.057 441.494 503.091 440.461 504.572 440.461C506.055 440.461 507.088 441.494 507.088 442.977Z" fill="white"/>
<path d="M529.457 460.002C529.457 455.555 526.448 452.545 522.18 452.545C517.868 452.545 514.903 455.555 514.903 460.002C514.903 464.449 517.868 467.459 522.18 467.459C526.448 467.459 529.457 464.449 529.457 460.002ZM533.141 468.942C533.141 475.59 528.919 479.587 521.776 479.587C518.092 479.587 514.948 478.555 513.016 476.803V472.805H513.196C514.903 474.917 517.912 476.174 521.372 476.174C526.448 476.174 529.323 473.523 529.323 468.717V467.683H529.233C527.571 469.705 524.965 470.873 521.551 470.873C515.441 470.873 511.04 466.381 511.04 460.002C511.04 453.623 515.441 449.131 521.551 449.131C525.235 449.131 528.109 450.569 529.681 452.949H529.772L529.907 449.581H533.141V468.942Z" fill="white"/>
<path d="M558.653 458.385V470.603H554.835V458.834C554.835 454.881 552.679 452.545 549.129 452.545C545.221 452.545 542.885 455.241 542.885 459.687V470.603H539.068V439.158H542.885V452.186H542.976C544.459 450.209 546.929 449.131 550.028 449.131C555.375 449.131 558.653 452.635 558.653 458.385Z" fill="white"/>
<path d="M576.125 470.289C575.181 470.784 573.924 471.053 572.307 471.053C567.904 471.053 565.433 468.448 565.433 463.73V452.904H561.571V449.58H565.524L566.108 443.874H569.252V449.58H576.036V452.904H569.252V463.641C569.252 466.156 570.6 467.638 572.847 467.638C574.015 467.638 575.092 467.324 575.945 466.426H576.125V470.289Z" fill="white"/>
<path d="M445.341 497.717H440.457V480.161H433.923V475.805H451.841V480.161H445.341V497.717Z" fill="#31ECE6"/>
<path d="M463.824 482.471V486.695H463.659C462.999 486.234 462.175 485.97 461.218 485.97C458.578 485.97 457.39 487.586 457.39 491.051V497.718H453.067V482.207H456.663L456.862 484.617H456.927C457.786 482.802 459.303 481.878 461.547 481.878C462.538 481.878 463.362 482.109 463.824 482.471Z" fill="#31ECE6"/>
<path d="M476.895 497.717L476.73 495.507H476.665C475.741 497.124 474.09 498.048 471.846 498.048C468.051 498.048 465.807 495.572 465.807 491.381V482.208H470.13V490.887C470.13 493.031 471.186 494.219 473.002 494.219C474.981 494.219 476.17 492.867 476.17 490.457V482.208H480.493V497.717H476.895Z" fill="#31ECE6"/>
<path d="M494.983 482.868V486.993H494.818C493.795 485.969 492.211 485.441 490.198 485.441C488.515 485.441 487.69 485.937 487.69 486.893C487.69 487.587 488.218 487.884 490.265 488.016C494.39 488.28 496.006 489.732 496.006 492.999C496.006 496.167 493.63 498.048 489.638 498.048C487.063 498.048 485.083 497.585 483.763 496.661V492.504H483.961C485.182 493.824 487.03 494.484 489.439 494.484C491.122 494.484 491.947 493.988 491.947 492.999C491.947 492.173 491.287 491.844 489.11 491.645C485.182 491.283 483.631 490.095 483.631 487.025C483.631 483.891 486.173 481.877 490.099 481.877C491.981 481.877 493.762 482.241 494.983 482.868Z" fill="#31ECE6"/>
<path d="M508.385 497.52C507.626 497.882 506.669 498.048 505.349 498.048C501.588 498.048 499.574 496.001 499.574 492.074V485.87H497V482.208H499.706L500.268 477.852H503.897V482.208H508.352V485.87H503.897V491.909C503.897 493.394 504.689 494.22 506.042 494.22C506.834 494.22 507.56 494.021 508.22 493.329H508.385V497.52Z" fill="#31ECE6"/>
<path d="M94.2827 1071.81V1067.82C96.7054 1067.82 98.9627 1066.52 100.175 1064.42L103.625 1066.41C101.704 1069.74 98.124 1071.81 94.2827 1071.81Z" fill="#31ECE6"/>
<path d="M53.411 1056.05L49.9603 1054.06L66.999 1024.55C68.9203 1021.22 72.5003 1019.15 76.3417 1019.15H110.419V1023.14H76.3417C73.919 1023.14 71.6617 1024.44 70.4497 1026.54L53.411 1056.05Z" fill="#31ECE6"/>
<path d="M110.232 1054.97L106.789 1052.96L114.904 1039.04C114.925 1039 114.977 1038.92 114.905 1038.79C114.835 1038.67 114.731 1038.67 114.691 1038.67H86.8999C84.4773 1038.67 82.2186 1039.97 81.0079 1042.07L73.5639 1054.96L70.1133 1052.97L77.5573 1040.08C79.4786 1036.75 83.0586 1034.68 86.8999 1034.68H114.691C116.225 1034.68 117.596 1035.48 118.36 1036.81C119.124 1038.14 119.12 1039.72 118.347 1041.05L110.232 1054.97Z" fill="#31ECE6"/>
<path d="M79.5797 1071.81H65.2837C61.441 1071.81 57.861 1069.74 55.941 1066.41L41.441 1041.3C39.5197 1037.97 39.5197 1033.84 41.441 1030.51L55.941 1005.39C57.861 1002.07 61.441 1000 65.2837 1000H94.2823C98.125 1000 101.705 1002.07 103.625 1005.39L100.174 1007.39C98.9637 1005.29 96.705 1003.99 94.2823 1003.99H65.2837C62.8597 1003.99 60.6023 1005.29 59.3917 1007.39L44.8917 1032.5C43.681 1034.6 43.681 1037.21 44.8917 1039.31L59.3917 1064.42C60.6023 1066.52 62.8597 1067.82 65.2837 1067.82H79.5797C80.2543 1067.82 80.885 1067.46 81.2237 1066.87L99.3423 1035.67L102.788 1037.67L84.6703 1068.87C83.621 1070.68 81.6703 1071.81 79.5797 1071.81Z" fill="#31ECE6"/>
<path d="M157.651 1018.48V1020.2H157.571C156.434 1018.91 154.343 1018.17 151.881 1018.17C149.022 1018.17 147.038 1019.68 147.038 1021.84C147.038 1023.78 148.229 1024.65 152.067 1025.02C156.805 1025.47 158.498 1026.82 158.498 1029.94C158.498 1033.04 156.011 1034.95 152.014 1034.95C149.207 1034.95 146.826 1034.23 145.343 1032.96V1031.24H145.423C146.958 1032.8 149.235 1033.62 152.041 1033.62C155.163 1033.62 157.042 1032.25 157.042 1029.94C157.042 1027.83 155.798 1026.87 151.749 1026.45C147.197 1025.97 145.582 1024.76 145.582 1021.87C145.582 1018.85 148.095 1016.84 151.881 1016.84C154.37 1016.84 156.487 1017.45 157.651 1018.48Z" fill="white"/>
<path d="M172.711 1027.62V1034.68H171.362V1027.75C171.362 1024.97 169.826 1023.3 167.206 1023.3C164.427 1023.3 162.706 1025.26 162.706 1028.41V1034.68H161.356V1016.15H162.706V1024.6H162.759C163.659 1022.98 165.274 1022.08 167.444 1022.08C170.699 1022.08 172.711 1024.2 172.711 1027.62Z" fill="white"/>
<path d="M176.125 1022.35H177.475V1034.68H176.125V1022.35ZM177.765 1018.43C177.765 1018.96 177.343 1019.41 176.787 1019.41C176.231 1019.41 175.808 1018.96 175.808 1018.43C175.808 1017.87 176.231 1017.43 176.787 1017.43C177.343 1017.43 177.765 1017.87 177.765 1018.43Z" fill="white"/>
<path d="M192.72 1028.51C192.72 1025.44 190.603 1023.3 187.611 1023.3C184.62 1023.3 182.476 1025.44 182.476 1028.51C182.476 1031.59 184.62 1033.73 187.611 1033.73C190.603 1033.73 192.72 1031.59 192.72 1028.51ZM194.096 1028.51C194.096 1032.27 191.449 1034.95 187.797 1034.95C185.415 1034.95 183.588 1033.97 182.609 1032.38H182.556V1039.71H181.207V1022.35H182.371L182.397 1024.89H182.449C183.429 1023.14 185.308 1022.08 187.797 1022.08C191.449 1022.08 194.096 1024.76 194.096 1028.51Z" fill="white"/>
<path d="M208.521 1028.51C208.521 1025.44 206.404 1023.3 203.412 1023.3C200.421 1023.3 198.277 1025.44 198.277 1028.51C198.277 1031.59 200.421 1033.73 203.412 1033.73C206.404 1033.73 208.521 1031.59 208.521 1028.51ZM209.897 1028.51C209.897 1032.27 207.25 1034.95 203.598 1034.95C201.216 1034.95 199.389 1033.97 198.41 1032.38H198.357V1039.71H197.008V1022.35H198.172L198.198 1024.89H198.25C199.23 1023.14 201.109 1022.08 203.598 1022.08C207.25 1022.08 209.897 1024.76 209.897 1028.51Z" fill="white"/>
<path d="M212.808 1022.35H214.157V1034.68H212.808V1022.35ZM214.449 1018.43C214.449 1018.96 214.025 1019.41 213.469 1019.41C212.913 1019.41 212.491 1018.96 212.491 1018.43C212.491 1017.87 212.913 1017.43 213.469 1017.43C214.025 1017.43 214.449 1017.87 214.449 1018.43Z" fill="white"/>
<path d="M229.244 1027.62V1034.68H227.895V1027.75C227.895 1024.97 226.359 1023.3 223.739 1023.3C220.96 1023.3 219.239 1025.26 219.239 1028.41V1034.68H217.89V1022.35H219.054L219.08 1024.89H219.134C220.007 1023.12 221.674 1022.08 223.978 1022.08C227.232 1022.08 229.244 1024.2 229.244 1027.62Z" fill="white"/>
<path d="M243.457 1028.49C243.457 1025.42 241.313 1023.3 238.296 1023.3C235.332 1023.3 233.188 1025.42 233.188 1028.49C233.188 1031.53 235.332 1033.68 238.296 1033.68C241.313 1033.68 243.457 1031.53 243.457 1028.49ZM244.728 1033.7C244.728 1037.67 242.347 1039.98 238.216 1039.98C235.967 1039.98 234.088 1039.29 232.949 1038.12V1036.64H233.029C234.115 1037.99 235.913 1038.76 238.111 1038.76C241.472 1038.76 243.377 1036.93 243.377 1033.65V1032.27H243.325C242.347 1033.89 240.519 1034.89 238.137 1034.89C234.457 1034.89 231.812 1032.25 231.812 1028.49C231.812 1024.73 234.457 1022.08 238.137 1022.08C240.599 1022.08 242.479 1023.14 243.457 1024.89H243.511L243.537 1022.35H244.728V1033.7Z" fill="white"/>
<path d="M150.479 1051.42C153.893 1050.04 154.872 1048.98 154.872 1047.42C154.872 1045.83 153.575 1044.77 151.617 1044.77C149.579 1044.77 148.255 1045.89 148.255 1047.58C148.255 1048.82 148.705 1049.67 150.108 1051.05L150.479 1051.42ZM155.931 1058.72L150.161 1052.9C147.884 1054.04 146.932 1055.2 146.932 1056.87C146.932 1059.15 148.493 1060.44 151.272 1060.44C153.152 1060.44 154.74 1059.86 155.931 1058.72ZM156.804 1059.6C155.401 1060.95 153.443 1061.66 151.193 1061.66C147.7 1061.66 145.581 1059.91 145.581 1057C145.581 1054.81 146.72 1053.27 149.287 1052L148.969 1051.68C147.487 1050.17 146.905 1049.03 146.905 1047.58C146.905 1045.12 148.705 1043.56 151.537 1043.56C154.316 1043.56 156.116 1045.01 156.116 1047.31C156.116 1049.41 154.951 1050.78 151.379 1052.32L156.752 1057.74C157.599 1056.5 158.023 1054.89 158.023 1052.98C158.023 1052.63 157.996 1052.26 157.969 1051.89H159.292C159.319 1052.24 159.345 1052.61 159.345 1052.95C159.345 1055.28 158.789 1057.16 157.651 1058.64L160.377 1061.4H158.577L156.804 1059.6Z" fill="white"/>
<path d="M169.057 1061.4V1043.82H170.513V1060.07H181.339V1061.4H169.057Z" fill="white"/>
<path d="M184.515 1055.23C184.515 1058.3 186.659 1060.44 189.623 1060.44C192.615 1060.44 194.759 1058.3 194.759 1055.23C194.759 1052.16 192.615 1050.01 189.623 1050.01C186.659 1050.01 184.515 1052.16 184.515 1055.23ZM196.135 1055.23C196.135 1059.01 193.435 1061.66 189.623 1061.66C185.839 1061.66 183.139 1059.01 183.139 1055.23C183.139 1051.47 185.839 1048.8 189.623 1048.8C193.435 1048.8 196.135 1051.47 196.135 1055.23Z" fill="white"/>
<path d="M209.845 1055.2C209.845 1052.13 207.701 1050.01 204.683 1050.01C201.719 1050.01 199.575 1052.13 199.575 1055.2C199.575 1058.25 201.719 1060.39 204.683 1060.39C207.701 1060.39 209.845 1058.25 209.845 1055.2ZM211.115 1060.42C211.115 1064.39 208.734 1066.69 204.603 1066.69C202.354 1066.69 200.475 1066 199.337 1064.84V1063.36H199.417C200.502 1064.7 202.301 1065.47 204.498 1065.47C207.859 1065.47 209.765 1063.65 209.765 1060.36V1058.99H209.713C208.734 1060.6 206.907 1061.61 204.525 1061.61C200.845 1061.61 198.199 1058.96 198.199 1055.2C198.199 1051.44 200.845 1048.8 204.525 1048.8C206.986 1048.8 208.866 1049.86 209.845 1051.6H209.898L209.925 1049.06H211.115V1060.42Z" fill="white"/>
<path d="M214.872 1049.06H216.221V1061.4H214.872V1049.06ZM216.513 1045.14C216.513 1045.67 216.091 1046.12 215.535 1046.12C214.979 1046.12 214.555 1045.67 214.555 1045.14C214.555 1044.59 214.979 1044.14 215.535 1044.14C216.091 1044.14 216.513 1044.59 216.513 1045.14Z" fill="white"/>
<path d="M227.869 1049.86V1051.34H227.789C226.942 1050.46 225.591 1050.01 223.793 1050.01C221.913 1050.01 220.537 1051.07 220.537 1052.53C220.537 1053.77 221.331 1054.33 223.898 1054.46C227.313 1054.65 228.53 1055.65 228.53 1057.96C228.53 1060.2 226.703 1061.66 223.845 1061.66C221.807 1061.66 220.193 1061.18 219.134 1060.26V1058.7H219.213C220.193 1059.83 221.781 1060.44 223.818 1060.44C225.883 1060.44 227.233 1059.46 227.233 1057.96C227.233 1056.55 226.386 1055.97 223.659 1055.81C220.351 1055.63 219.213 1054.65 219.213 1052.56C219.213 1050.33 221.066 1048.8 223.766 1048.8C225.459 1048.8 226.995 1049.19 227.869 1049.86Z" fill="white"/>
<path d="M237.661 1061.18C237.158 1061.47 236.417 1061.66 235.57 1061.66C233.268 1061.66 231.944 1060.2 231.944 1057.72V1050.25H229.509V1049.06H231.97L232.236 1045.78H233.294V1049.06H237.608V1050.25H233.294V1057.69C233.294 1059.41 234.193 1060.44 235.729 1060.44C236.417 1060.44 237.105 1060.26 237.581 1059.75H237.661V1061.18Z" fill="white"/>
<path d="M240.52 1049.06H241.869V1061.4H240.52V1049.06ZM242.16 1045.14C242.16 1045.67 241.737 1046.12 241.181 1046.12C240.625 1046.12 240.203 1045.67 240.203 1045.14C240.203 1044.59 240.625 1044.14 241.181 1044.14C241.737 1044.14 242.16 1044.59 242.16 1045.14Z" fill="white"/>
<path d="M255.553 1050.23V1051.76H255.473C254.442 1050.57 253.145 1050.01 251.45 1050.01C248.248 1050.01 246.13 1052.18 246.13 1055.23C246.13 1058.25 248.248 1060.44 251.45 1060.44C253.145 1060.44 254.442 1059.89 255.473 1058.7H255.553V1060.26C254.574 1061.18 253.092 1061.66 251.372 1061.66C247.374 1061.66 244.754 1058.96 244.754 1055.23C244.754 1051.47 247.374 1048.8 251.372 1048.8C253.092 1048.8 254.574 1049.27 255.553 1050.23Z" fill="white"/>
<path d="M266.643 1049.86V1051.34H266.563C265.716 1050.46 264.365 1050.01 262.567 1050.01C260.687 1050.01 259.311 1051.07 259.311 1052.53C259.311 1053.77 260.105 1054.33 262.672 1054.46C266.087 1054.65 267.304 1055.65 267.304 1057.96C267.304 1060.2 265.477 1061.66 262.619 1061.66C260.581 1061.66 258.967 1061.18 257.908 1060.26V1058.7H257.987C258.967 1059.83 260.555 1060.44 262.592 1060.44C264.657 1060.44 266.007 1059.46 266.007 1057.96C266.007 1056.55 265.16 1055.97 262.433 1055.81C259.125 1055.63 257.987 1054.65 257.987 1052.56C257.987 1050.33 259.84 1048.8 262.54 1048.8C264.233 1048.8 265.769 1049.19 266.643 1049.86Z" fill="white"/>
<path d="M1576.78 727.195C1591.41 727.195 1605.04 719.318 1612.35 706.655H1638.56L1635.85 712.722C1633.21 718.628 1629.95 724.298 1625.66 729.149C1613.43 743.012 1595.63 751.253 1576.78 751.253H1561.42L1576.78 727.195Z" fill="white"/>
<path d="M1330 656.147L1309.17 644.116L1412.04 465.932C1423.64 445.836 1445.25 433.36 1468.45 433.36H1672.16L1682.75 457.418H1468.45C1453.83 457.418 1440.19 465.284 1432.87 477.958L1330 656.147Z" fill="white"/>
<path d="M1680.11 637.522L1652.29 637.479L1701.29 553.418C1701.41 553.209 1701.72 552.668 1701.3 551.919C1700.86 551.169 1700.24 551.169 1700 551.169H1532.2C1517.58 551.169 1503.94 559.04 1496.62 571.709L1458.63 637.522H1430.85L1475.79 559.677C1487.39 539.587 1509 527.111 1532.2 527.111H1700C1709.26 527.111 1717.54 531.903 1722.16 539.935C1726.77 547.962 1726.74 557.536 1722.07 565.535L1680.11 637.522Z" fill="white"/>
<path d="M1635.85 356.24C1633.21 350.328 1629.94 344.663 1625.67 339.812C1613.43 325.949 1595.63 317.708 1576.78 317.708H1401.68C1378.49 317.708 1356.87 330.19 1345.27 350.275L1257.73 501.911C1246.09 522.065 1246.09 546.894 1257.73 567.049L1345.27 718.685C1356.87 738.77 1378.49 751.251 1401.68 751.251H1488C1500.67 751.251 1512.38 744.515 1518.74 733.56L1628.13 545.181L1607.33 533.096L1497.93 721.48C1495.88 725.014 1492.1 727.193 1488 727.193H1401.68C1387.01 727.193 1373.44 719.359 1366.11 706.653L1278.56 555.017C1271.25 542.348 1271.25 526.611 1278.56 513.942L1366.11 362.307C1373.44 349.6 1387.01 341.766 1401.68 341.766H1576.78C1591.41 341.766 1605.04 349.643 1612.35 362.307H1638.56L1635.85 356.24Z" fill="white"/>
</g>
<defs>
<clipPath id="clip0">
<rect width="2000" height="2000" fill="white"/>
</clipPath>
</defs>
</svg>
