<svg width="1128" height="482" viewBox="0 0 1128 482" fill="none" xmlns="http://www.w3.org/2000/svg">
<rect width="1128" height="482" fill="black" fill-opacity="0.9"/>
<path d="M128.501 281.031V276.589C131.201 276.589 133.719 275.136 135.068 272.799L138.915 275.019C136.775 278.727 132.784 281.031 128.501 281.031Z" fill="#00FFE0"/>
<path d="M82.9473 263.474L79.1006 261.253L98.0913 228.361C100.233 224.651 104.223 222.347 108.505 222.347H146.487V226.789H108.505C105.805 226.789 103.289 228.242 101.938 230.581L82.9473 263.474Z" fill="#00FFE0"/>
<path d="M146.278 262.265L142.441 260.028L151.486 244.51C151.507 244.473 151.566 244.373 151.487 244.234C151.407 244.096 151.291 244.096 151.249 244.096H120.273C117.573 244.096 115.055 245.549 113.705 247.888L105.409 262.257L101.563 260.037L109.859 245.666C112.001 241.958 115.991 239.654 120.273 239.654H151.249C152.957 239.654 154.486 240.54 155.338 242.022C156.19 243.505 156.185 245.27 155.323 246.748L146.278 262.265Z" fill="#00FFE0"/>
<path d="M112.114 281.031H96.1793C91.8967 281.031 87.9073 278.727 85.766 275.019L69.606 247.028C67.4647 243.319 67.4647 238.711 69.606 235.003L85.766 207.011C87.9073 203.303 91.8967 201 96.1793 201H128.502C132.783 201 136.774 203.303 138.914 207.011L135.069 209.232C133.718 206.893 131.202 205.441 128.502 205.441H96.1793C93.4793 205.441 90.962 206.893 89.6127 209.232L73.4513 237.224C72.102 239.563 72.102 242.468 73.4513 244.807L89.6127 272.799C90.962 275.136 93.4793 276.589 96.1793 276.589H112.114C112.866 276.589 113.569 276.185 113.947 275.535L134.141 240.76L137.981 242.991L117.787 277.765C116.618 279.78 114.443 281.031 112.114 281.031Z" fill="#00FFE0"/>
<path d="M232.46 239.563V245.443H210.462V265.088H203.822V219.156H237.44V225.036H210.462V239.563H232.46Z" fill="white"/>
<path d="M262.826 233.268V239.148H262.549C261.166 238.18 259.437 237.626 257.5 237.626C251.274 237.626 248.3 241.914 248.3 250.353V265.088H242.42V232.714H247.401L247.54 237.902H247.678C249.614 234.029 253.004 232.022 257.914 232.022C260.06 232.022 261.72 232.576 262.826 233.268Z" fill="white"/>
<path d="M271.334 245.927H293.193C292.362 240.669 288.211 237.28 282.333 237.28C276.798 237.28 272.441 240.739 271.334 245.927ZM271.334 250.837C272.163 256.856 277.006 260.523 284.338 260.523C289.111 260.523 293.262 259 296.306 256.095H296.582V262.044C293.677 264.396 289.25 265.779 284.199 265.779C272.786 265.779 265.385 259.069 265.385 248.901C265.385 239.009 272.371 232.023 282.263 232.023C292.223 232.023 298.657 238.179 298.657 247.587V250.837H271.334Z" fill="white"/>
<path d="M305.641 232.714H311.521V265.087H305.641V232.714ZM312.421 222.546C312.421 224.829 310.83 226.419 308.547 226.419C306.265 226.419 304.673 224.829 304.673 222.546C304.673 220.263 306.265 218.671 308.547 218.671C310.83 218.671 312.421 220.263 312.421 222.546Z" fill="white"/>
<path d="M346.868 248.763C346.868 241.915 342.233 237.28 335.661 237.28C329.021 237.28 324.454 241.915 324.454 248.763C324.454 255.611 329.021 260.245 335.661 260.245C342.233 260.245 346.868 255.611 346.868 248.763ZM352.54 262.528C352.54 272.765 346.037 278.923 335.038 278.923C329.366 278.923 324.525 277.331 321.55 274.633V268.477H321.826C324.454 271.728 329.09 273.665 334.416 273.665C342.233 273.665 346.66 269.584 346.66 262.183V260.592H346.521C343.962 263.704 339.95 265.503 334.693 265.503C325.285 265.503 318.506 258.585 318.506 248.763C318.506 238.94 325.285 232.023 334.693 232.023C340.365 232.023 344.792 234.236 347.213 237.903H347.352L347.56 232.715H352.54V262.528Z" fill="white"/>
<path d="M391.829 246.272V265.087H385.949V246.964C385.949 240.876 382.629 237.28 377.163 237.28C371.146 237.28 367.549 241.429 367.549 248.277V265.087H361.669V216.665H367.549V236.727H367.687C369.969 233.683 373.774 232.021 378.547 232.021C386.778 232.021 391.829 237.417 391.829 246.272Z" fill="white"/>
<path d="M418.736 264.603C417.284 265.364 415.347 265.779 412.856 265.779C406.078 265.779 402.272 261.767 402.272 254.504V237.834H396.324V232.714H402.411L403.311 223.93H408.154V232.714H418.598V237.834H408.154V254.366C408.154 258.239 410.228 260.522 413.687 260.522C415.486 260.522 417.146 260.038 418.459 258.655H418.736V264.603Z" fill="white"/>
<path d="M462.105 265.087H451.868V228.287H438.172V219.157H475.732V228.287H462.105V265.087Z" fill="#00FFE0"/>
<path d="M500.84 233.129V241.984H500.495C499.111 241.016 497.381 240.462 495.375 240.462C489.841 240.462 487.351 243.852 487.351 251.114V265.088H478.289V232.576H485.829L486.244 237.626H486.383C488.181 233.821 491.364 231.884 496.067 231.884C498.143 231.884 499.872 232.369 500.84 233.129Z" fill="#00FFE0"/>
<path d="M528.23 265.087L527.885 260.453H527.746C525.809 263.842 522.35 265.779 517.648 265.779C509.692 265.779 504.988 260.591 504.988 251.806V232.575H514.05V250.769C514.05 255.265 516.264 257.755 520.068 257.755C524.218 257.755 526.709 254.919 526.709 249.869V232.575H535.77V265.087H528.23Z" fill="#00FFE0"/>
<path d="M566.135 233.96V242.606H565.79C563.645 240.461 560.325 239.354 556.106 239.354C552.578 239.354 550.849 240.393 550.849 242.398C550.849 243.85 551.955 244.474 556.245 244.75C564.89 245.304 568.279 248.348 568.279 255.196C568.279 261.836 563.299 265.778 554.93 265.778C549.534 265.778 545.383 264.81 542.617 262.874V254.157H543.031C545.591 256.925 549.465 258.309 554.514 258.309C558.042 258.309 559.771 257.27 559.771 255.196C559.771 253.466 558.387 252.774 553.823 252.36C545.591 251.598 542.339 249.108 542.339 242.676C542.339 236.104 547.666 231.884 555.898 231.884C559.841 231.884 563.577 232.645 566.135 233.96Z" fill="#00FFE0"/>
<path d="M594.219 264.672C592.629 265.433 590.622 265.779 587.855 265.779C579.969 265.779 575.75 261.491 575.75 253.259V240.255H570.354V232.576H576.026L577.202 223.445H584.811V232.576H594.15V240.255H584.811V252.913C584.811 256.025 586.471 257.756 589.307 257.756C590.969 257.756 592.49 257.34 593.873 255.888H594.219V264.672Z" fill="#00FFE0"/>
<path d="M383.197 309H382.072V300.469H383.197V309ZM384.826 305.777C384.826 304.805 385.057 304.023 385.518 303.434C385.979 302.84 386.582 302.543 387.328 302.543C388.07 302.543 388.658 302.797 389.092 303.305V300H390.176V309H389.18L389.127 308.32C388.693 308.852 388.09 309.117 387.316 309.117C386.582 309.117 385.982 308.816 385.518 308.215C385.057 307.613 384.826 306.828 384.826 305.859V305.777ZM385.91 305.9C385.91 306.619 386.059 307.182 386.355 307.588C386.652 307.994 387.062 308.197 387.586 308.197C388.273 308.197 388.775 307.889 389.092 307.271V304.359C388.768 303.762 388.27 303.463 387.598 303.463C387.066 303.463 386.652 303.668 386.355 304.078C386.059 304.488 385.91 305.096 385.91 305.9Z" fill="black"/>
<path d="M633.875 266H628.156V220.5H633.875V266ZM648.344 232.188L648.5 235.844C650.646 232.99 653.385 231.562 656.719 231.562C662.698 231.562 665.729 235.552 665.812 243.531V266H660.312V243.781C660.312 241.135 659.865 239.26 658.969 238.156C658.094 237.031 656.771 236.469 655 236.469C653.625 236.469 652.385 236.927 651.281 237.844C650.198 238.76 649.323 239.958 648.656 241.438V266H643.125V232.188H648.344ZM676.562 266V236.656H672.156V232.188H676.562V228.281C676.625 224.844 677.49 222.167 679.156 220.25C680.844 218.312 683.219 217.344 686.281 217.344C687.385 217.344 688.5 217.521 689.625 217.875L689.344 222.562C688.552 222.375 687.708 222.281 686.812 222.281C683.667 222.281 682.094 224.521 682.094 229V232.188H687.875V236.656H682.094V266H676.562ZM708.344 237.375C707.573 237.229 706.74 237.156 705.844 237.156C703.01 237.156 701.031 238.708 699.906 241.812V266H694.375V232.188H699.75L699.844 235.625C701.323 232.917 703.417 231.562 706.125 231.562C707 231.562 707.729 231.708 708.312 232L708.344 237.375ZM730.031 266C729.698 265.271 729.458 264.042 729.312 262.312C727.354 265.188 724.854 266.625 721.812 266.625C718.75 266.625 716.354 265.771 714.625 264.062C712.917 262.333 712.062 259.906 712.062 256.781C712.062 253.344 713.229 250.615 715.562 248.594C717.896 246.573 721.094 245.542 725.156 245.5H729.219V241.906C729.219 239.885 728.771 238.448 727.875 237.594C726.979 236.74 725.615 236.312 723.781 236.312C722.115 236.312 720.76 236.812 719.719 237.812C718.677 238.792 718.156 240.042 718.156 241.562H712.625C712.625 239.833 713.135 238.188 714.156 236.625C715.177 235.042 716.552 233.802 718.281 232.906C720.01 232.01 721.938 231.562 724.062 231.562C727.521 231.562 730.146 232.427 731.938 234.156C733.75 235.865 734.677 238.365 734.719 241.656V258.719C734.74 261.323 735.094 263.583 735.781 265.5V266H730.031ZM722.656 261.594C724.01 261.594 725.302 261.219 726.531 260.469C727.76 259.719 728.656 258.781 729.219 257.656V249.594H726.094C723.469 249.635 721.396 250.229 719.875 251.375C718.354 252.5 717.594 254.083 717.594 256.125C717.594 258.042 717.979 259.438 718.75 260.312C719.521 261.167 720.823 261.594 722.656 261.594ZM759.75 257.344C759.75 256.156 759.302 255.135 758.406 254.281C757.51 253.427 755.781 252.427 753.219 251.281C750.24 250.052 748.135 249 746.906 248.125C745.698 247.25 744.792 246.26 744.188 245.156C743.583 244.031 743.281 242.698 743.281 241.156C743.281 238.406 744.281 236.125 746.281 234.312C748.302 232.479 750.875 231.562 754 231.562C757.292 231.562 759.938 232.521 761.938 234.438C763.938 236.354 764.938 238.812 764.938 241.812H759.438C759.438 240.292 758.927 239 757.906 237.938C756.885 236.854 755.583 236.312 754 236.312C752.375 236.312 751.094 236.74 750.156 237.594C749.24 238.427 748.781 239.552 748.781 240.969C748.781 242.094 749.115 243 749.781 243.688C750.469 244.375 752.104 245.281 754.688 246.406C758.792 248.01 761.583 249.583 763.062 251.125C764.542 252.646 765.281 254.583 765.281 256.938C765.281 259.875 764.271 262.229 762.25 264C760.229 265.75 757.521 266.625 754.125 266.625C750.604 266.625 747.75 265.615 745.562 263.594C743.375 261.573 742.281 259.01 742.281 255.906H747.844C747.906 257.781 748.479 259.25 749.562 260.312C750.646 261.375 752.167 261.906 754.125 261.906C755.958 261.906 757.354 261.5 758.312 260.688C759.271 259.854 759.75 258.74 759.75 257.344ZM779.75 224V232.188H784.844V236.656H779.75V257.625C779.75 258.958 779.969 259.969 780.406 260.656C780.844 261.344 781.594 261.688 782.656 261.688C783.385 261.688 784.125 261.562 784.875 261.312L784.812 266C783.562 266.417 782.281 266.625 780.969 266.625C778.781 266.625 777.115 265.844 775.969 264.281C774.823 262.719 774.25 260.51 774.25 257.656V236.656H769.094V232.188H774.25V224H779.75ZM805.406 237.375C804.635 237.229 803.802 237.156 802.906 237.156C800.073 237.156 798.094 238.708 796.969 241.812V266H791.438V232.188H796.812L796.906 235.625C798.385 232.917 800.479 231.562 803.188 231.562C804.062 231.562 804.792 231.708 805.375 232L805.406 237.375ZM828.188 263.031C826.354 265.427 823.677 266.625 820.156 266.625C817.094 266.625 814.781 265.573 813.219 263.469C811.656 261.344 810.865 258.26 810.844 254.219V232.188H816.344V253.812C816.344 259.083 817.927 261.719 821.094 261.719C824.448 261.719 826.76 260.219 828.031 257.219V232.188H833.562V266H828.312L828.188 263.031ZM853.625 261.906C855.458 261.906 856.927 261.344 858.031 260.219C859.135 259.073 859.74 257.448 859.844 255.344H865.062C864.938 258.594 863.781 261.292 861.594 263.438C859.427 265.562 856.771 266.625 853.625 266.625C849.438 266.625 846.24 265.312 844.031 262.688C841.844 260.042 840.75 256.115 840.75 250.906V247.188C840.75 242.083 841.844 238.208 844.031 235.562C846.219 232.896 849.406 231.562 853.594 231.562C857.052 231.562 859.792 232.656 861.812 234.844C863.854 237.031 864.938 240.021 865.062 243.812H859.844C859.719 241.312 859.115 239.438 858.031 238.188C856.969 236.938 855.49 236.312 853.594 236.312C851.135 236.312 849.312 237.125 848.125 238.75C846.938 240.354 846.323 243 846.281 246.688V251C846.281 254.979 846.865 257.792 848.031 259.438C849.219 261.083 851.083 261.906 853.625 261.906ZM878.688 224V232.188H883.781V236.656H878.688V257.625C878.688 258.958 878.906 259.969 879.344 260.656C879.781 261.344 880.531 261.688 881.594 261.688C882.323 261.688 883.062 261.562 883.812 261.312L883.75 266C882.5 266.417 881.219 266.625 879.906 266.625C877.719 266.625 876.052 265.844 874.906 264.281C873.76 262.719 873.188 260.51 873.188 257.656V236.656H868.031V232.188H873.188V224H878.688ZM907.625 263.031C905.792 265.427 903.115 266.625 899.594 266.625C896.531 266.625 894.219 265.573 892.656 263.469C891.094 261.344 890.302 258.26 890.281 254.219V232.188H895.781V253.812C895.781 259.083 897.365 261.719 900.531 261.719C903.885 261.719 906.198 260.219 907.469 257.219V232.188H913V266H907.75L907.625 263.031ZM935.281 237.375C934.51 237.229 933.677 237.156 932.781 237.156C929.948 237.156 927.969 238.708 926.844 241.812V266H921.312V232.188H926.688L926.781 235.625C928.26 232.917 930.354 231.562 933.062 231.562C933.938 231.562 934.667 231.708 935.25 232L935.281 237.375ZM952.281 266.625C948.073 266.625 944.844 265.375 942.594 262.875C940.344 260.354 939.198 256.667 939.156 251.812V247.719C939.156 242.677 940.25 238.729 942.438 235.875C944.646 233 947.719 231.562 951.656 231.562C955.615 231.562 958.573 232.823 960.531 235.344C962.49 237.865 963.49 241.792 963.531 247.125V250.75H944.656V251.531C944.656 255.156 945.333 257.792 946.688 259.438C948.062 261.083 950.031 261.906 952.594 261.906C954.219 261.906 955.646 261.604 956.875 261C958.125 260.375 959.292 259.396 960.375 258.062L963.25 261.562C960.854 264.938 957.198 266.625 952.281 266.625ZM951.656 236.312C949.365 236.312 947.667 237.104 946.562 238.688C945.458 240.25 944.833 242.688 944.688 246H958V245.25C957.854 242.042 957.271 239.75 956.25 238.375C955.25 237 953.719 236.312 951.656 236.312ZM970.562 262.969C970.562 261.969 970.854 261.135 971.438 260.469C972.042 259.802 972.938 259.469 974.125 259.469C975.312 259.469 976.208 259.802 976.812 260.469C977.438 261.135 977.75 261.969 977.75 262.969C977.75 263.927 977.438 264.729 976.812 265.375C976.208 266.021 975.312 266.344 974.125 266.344C972.938 266.344 972.042 266.021 971.438 265.375C970.854 264.729 970.562 263.927 970.562 262.969Z" fill="white"/>
</svg>
