<svg width="1128" height="482" viewBox="0 0 1128 482" fill="none" xmlns="http://www.w3.org/2000/svg">
<rect width="1128" height="482" fill="black" fill-opacity="0.9"/>
<path d="M193.501 281.031V276.589C196.201 276.589 198.719 275.136 200.068 272.799L203.915 275.019C201.775 278.727 197.784 281.031 193.501 281.031Z" fill="#00FFE0"/>
<path d="M147.947 263.474L144.101 261.253L163.091 228.361C165.233 224.651 169.223 222.347 173.505 222.347H211.487V226.789H173.505C170.805 226.789 168.289 228.242 166.938 230.581L147.947 263.474Z" fill="#00FFE0"/>
<path d="M211.278 262.265L207.441 260.028L216.486 244.51C216.507 244.473 216.566 244.373 216.487 244.234C216.407 244.096 216.291 244.096 216.249 244.096H185.273C182.573 244.096 180.055 245.549 178.705 247.888L170.409 262.257L166.563 260.037L174.859 245.666C177.001 241.958 180.991 239.654 185.273 239.654H216.249C217.957 239.654 219.486 240.54 220.338 242.022C221.19 243.505 221.185 245.27 220.323 246.748L211.278 262.265Z" fill="#00FFE0"/>
<path d="M177.114 281.031H161.179C156.897 281.031 152.907 278.727 150.766 275.019L134.606 247.028C132.465 243.319 132.465 238.711 134.606 235.003L150.766 207.011C152.907 203.303 156.897 201 161.179 201H193.502C197.783 201 201.774 203.303 203.914 207.011L200.069 209.232C198.718 206.893 196.202 205.441 193.502 205.441H161.179C158.479 205.441 155.962 206.893 154.613 209.232L138.451 237.224C137.102 239.563 137.102 242.468 138.451 244.807L154.613 272.799C155.962 275.136 158.479 276.589 161.179 276.589H177.114C177.866 276.589 178.569 276.185 178.947 275.535L199.141 240.76L202.981 242.991L182.787 277.765C181.618 279.78 179.443 281.031 177.114 281.031Z" fill="#00FFE0"/>
<path d="M297.46 239.563V245.443H275.462V265.088H268.822V219.156H302.44V225.036H275.462V239.563H297.46Z" fill="white"/>
<path d="M327.826 233.268V239.148H327.549C326.166 238.18 324.437 237.626 322.5 237.626C316.274 237.626 313.3 241.914 313.3 250.353V265.088H307.42V232.714H312.401L312.54 237.902H312.678C314.614 234.029 318.004 232.022 322.914 232.022C325.06 232.022 326.72 232.576 327.826 233.268Z" fill="white"/>
<path d="M336.334 245.927H358.193C357.362 240.669 353.211 237.28 347.333 237.28C341.798 237.28 337.441 240.739 336.334 245.927ZM336.334 250.837C337.163 256.856 342.006 260.523 349.338 260.523C354.111 260.523 358.262 259 361.306 256.095H361.582V262.044C358.677 264.396 354.25 265.779 349.199 265.779C337.786 265.779 330.385 259.069 330.385 248.901C330.385 239.009 337.371 232.023 347.263 232.023C357.223 232.023 363.657 238.179 363.657 247.587V250.837H336.334Z" fill="white"/>
<path d="M370.641 232.714H376.521V265.087H370.641V232.714ZM377.421 222.546C377.421 224.829 375.83 226.419 373.547 226.419C371.265 226.419 369.673 224.829 369.673 222.546C369.673 220.263 371.265 218.671 373.547 218.671C375.83 218.671 377.421 220.263 377.421 222.546Z" fill="white"/>
<path d="M411.868 248.763C411.868 241.915 407.233 237.28 400.661 237.28C394.021 237.28 389.454 241.915 389.454 248.763C389.454 255.611 394.021 260.245 400.661 260.245C407.233 260.245 411.868 255.611 411.868 248.763ZM417.54 262.528C417.54 272.765 411.037 278.923 400.038 278.923C394.366 278.923 389.525 277.331 386.55 274.633V268.477H386.826C389.454 271.728 394.09 273.665 399.416 273.665C407.233 273.665 411.66 269.584 411.66 262.183V260.592H411.521C408.962 263.704 404.95 265.503 399.693 265.503C390.285 265.503 383.506 258.585 383.506 248.763C383.506 238.94 390.285 232.023 399.693 232.023C405.365 232.023 409.792 234.236 412.213 237.903H412.352L412.56 232.715H417.54V262.528Z" fill="white"/>
<path d="M456.829 246.272V265.087H450.949V246.964C450.949 240.876 447.629 237.28 442.163 237.28C436.146 237.28 432.549 241.429 432.549 248.277V265.087H426.669V216.665H432.549V236.727H432.687C434.969 233.683 438.774 232.021 443.547 232.021C451.778 232.021 456.829 237.417 456.829 246.272Z" fill="white"/>
<path d="M483.736 264.603C482.284 265.364 480.347 265.779 477.856 265.779C471.078 265.779 467.272 261.767 467.272 254.504V237.834H461.324V232.714H467.411L468.311 223.93H473.154V232.714H483.598V237.834H473.154V254.366C473.154 258.239 475.228 260.522 478.687 260.522C480.486 260.522 482.146 260.038 483.459 258.655H483.736V264.603Z" fill="white"/>
<path d="M527.105 265.087H516.868V228.287H503.172V219.157H540.732V228.287H527.105V265.087Z" fill="#00FFE0"/>
<path d="M565.84 233.129V241.984H565.495C564.111 241.016 562.381 240.462 560.375 240.462C554.841 240.462 552.351 243.852 552.351 251.114V265.088H543.289V232.576H550.829L551.244 237.626H551.383C553.181 233.821 556.364 231.884 561.067 231.884C563.143 231.884 564.872 232.369 565.84 233.129Z" fill="#00FFE0"/>
<path d="M593.23 265.087L592.885 260.453H592.746C590.809 263.842 587.35 265.779 582.648 265.779C574.692 265.779 569.988 260.591 569.988 251.806V232.575H579.05V250.769C579.05 255.265 581.264 257.755 585.068 257.755C589.218 257.755 591.709 254.919 591.709 249.869V232.575H600.77V265.087H593.23Z" fill="#00FFE0"/>
<path d="M631.135 233.96V242.606H630.79C628.645 240.461 625.325 239.354 621.106 239.354C617.578 239.354 615.849 240.393 615.849 242.398C615.849 243.85 616.955 244.474 621.245 244.75C629.89 245.304 633.279 248.348 633.279 255.196C633.279 261.836 628.299 265.778 619.93 265.778C614.534 265.778 610.383 264.81 607.617 262.874V254.157H608.031C610.591 256.925 614.465 258.309 619.514 258.309C623.042 258.309 624.771 257.27 624.771 255.196C624.771 253.466 623.387 252.774 618.823 252.36C610.591 251.598 607.339 249.108 607.339 242.676C607.339 236.104 612.666 231.884 620.898 231.884C624.841 231.884 628.577 232.645 631.135 233.96Z" fill="#00FFE0"/>
<path d="M659.219 264.672C657.629 265.433 655.622 265.779 652.855 265.779C644.969 265.779 640.75 261.491 640.75 253.259V240.255H635.354V232.576H641.026L642.202 223.445H649.811V232.576H659.15V240.255H649.811V252.913C649.811 256.025 651.471 257.756 654.307 257.756C655.969 257.756 657.49 257.34 658.873 255.888H659.219V264.672Z" fill="#00FFE0"/>
<path d="M714.562 229.508H704.09V265H699.086V229.508H688.641V225.188H714.562V229.508ZM729.902 239.953C729.228 239.826 728.499 239.762 727.715 239.762C725.236 239.762 723.504 241.12 722.52 243.836V265H717.68V235.414H722.383L722.465 238.422C723.759 236.052 725.591 234.867 727.961 234.867C728.727 234.867 729.365 234.995 729.875 235.25L729.902 239.953ZM748.879 265C748.587 264.362 748.378 263.286 748.25 261.773C746.536 264.289 744.349 265.547 741.688 265.547C739.008 265.547 736.911 264.799 735.398 263.305C733.904 261.792 733.156 259.668 733.156 256.934C733.156 253.926 734.177 251.538 736.219 249.77C738.26 248.001 741.059 247.099 744.613 247.062H748.168V243.918C748.168 242.15 747.776 240.892 746.992 240.145C746.208 239.397 745.014 239.023 743.41 239.023C741.952 239.023 740.767 239.461 739.855 240.336C738.944 241.193 738.488 242.286 738.488 243.617H733.648C733.648 242.104 734.095 240.664 734.988 239.297C735.882 237.911 737.085 236.827 738.598 236.043C740.111 235.259 741.797 234.867 743.656 234.867C746.682 234.867 748.979 235.624 750.547 237.137C752.133 238.632 752.944 240.819 752.98 243.699V258.629C752.999 260.908 753.309 262.885 753.91 264.562V265H748.879ZM742.426 261.145C743.611 261.145 744.741 260.816 745.816 260.16C746.892 259.504 747.676 258.684 748.168 257.699V250.645H745.434C743.137 250.681 741.323 251.201 739.992 252.203C738.661 253.188 737.996 254.573 737.996 256.359C737.996 258.036 738.333 259.258 739.008 260.023C739.682 260.771 740.822 261.145 742.426 261.145ZM759.488 248.867C759.488 244.31 760.336 240.837 762.031 238.449C763.745 236.061 766.197 234.867 769.387 234.867C772.212 234.867 774.418 236.016 776.004 238.312V223H780.844V265H776.414L776.168 261.828C774.582 264.307 772.312 265.547 769.359 265.547C766.297 265.547 763.891 264.362 762.141 261.992C760.409 259.604 759.525 256.241 759.488 251.902V248.867ZM764.328 251.629C764.328 254.947 764.82 257.389 765.805 258.957C766.789 260.507 768.393 261.281 770.617 261.281C773.023 261.281 774.819 260.069 776.004 257.645V242.715C774.764 240.345 772.978 239.16 770.645 239.16C768.421 239.16 766.816 239.944 765.832 241.512C764.848 243.061 764.346 245.449 764.328 248.676V251.629ZM798.863 265.547C795.181 265.547 792.355 264.453 790.387 262.266C788.418 260.06 787.415 256.833 787.379 252.586V249.004C787.379 244.592 788.336 241.138 790.25 238.641C792.182 236.125 794.871 234.867 798.316 234.867C801.78 234.867 804.368 235.97 806.082 238.176C807.796 240.382 808.671 243.818 808.707 248.484V251.656H792.191V252.34C792.191 255.512 792.784 257.818 793.969 259.258C795.172 260.698 796.895 261.418 799.137 261.418C800.559 261.418 801.807 261.154 802.883 260.625C803.977 260.078 804.997 259.221 805.945 258.055L808.461 261.117C806.365 264.07 803.165 265.547 798.863 265.547ZM798.316 239.023C796.311 239.023 794.826 239.716 793.859 241.102C792.893 242.469 792.346 244.602 792.219 247.5H803.867V246.844C803.74 244.036 803.229 242.031 802.336 240.828C801.461 239.625 800.121 239.023 798.316 239.023ZM815.215 265V225.188H824.703C829.352 225.188 832.961 226.646 835.531 229.562C838.102 232.461 839.387 236.544 839.387 241.812V248.484C839.387 253.753 838.083 257.827 835.477 260.707C832.87 263.569 829.087 265 824.129 265H815.215ZM820.219 229.508V260.707H824.238C827.757 260.707 830.327 259.704 831.949 257.699C833.572 255.676 834.401 252.686 834.438 248.73V241.676C834.438 237.483 833.626 234.411 832.004 232.461C830.4 230.492 827.966 229.508 824.703 229.508H820.219ZM845.512 248.84C845.512 244.538 846.551 241.138 848.629 238.641C850.725 236.125 853.487 234.867 856.914 234.867C860.341 234.867 863.094 236.089 865.172 238.531C867.268 240.974 868.344 244.301 868.398 248.512V251.629C868.398 255.913 867.359 259.303 865.281 261.801C863.203 264.298 860.432 265.547 856.969 265.547C853.542 265.547 850.789 264.335 848.711 261.91C846.651 259.486 845.585 256.204 845.512 252.066V248.84ZM850.352 251.629C850.352 254.673 850.944 257.07 852.129 258.82C853.332 260.552 854.945 261.418 856.969 261.418C861.234 261.418 863.431 258.337 863.559 252.176V248.84C863.559 245.814 862.957 243.426 861.754 241.676C860.551 239.908 858.938 239.023 856.914 239.023C854.927 239.023 853.332 239.908 852.129 241.676C850.944 243.426 850.352 245.805 850.352 248.812V251.629ZM884.914 261.418C886.518 261.418 887.803 260.926 888.77 259.941C889.736 258.939 890.264 257.517 890.355 255.676H894.922C894.812 258.52 893.801 260.88 891.887 262.758C889.991 264.617 887.667 265.547 884.914 265.547C881.25 265.547 878.452 264.398 876.52 262.102C874.605 259.786 873.648 256.35 873.648 251.793V248.539C873.648 244.073 874.605 240.682 876.52 238.367C878.434 236.034 881.223 234.867 884.887 234.867C887.913 234.867 890.31 235.824 892.078 237.738C893.865 239.652 894.812 242.268 894.922 245.586H890.355C890.246 243.398 889.717 241.758 888.77 240.664C887.84 239.57 886.546 239.023 884.887 239.023C882.736 239.023 881.141 239.734 880.102 241.156C879.062 242.56 878.525 244.875 878.488 248.102V251.875C878.488 255.357 878.999 257.818 880.02 259.258C881.059 260.698 882.69 261.418 884.914 261.418ZM914.883 257.426C914.883 256.387 914.491 255.493 913.707 254.746C912.923 253.999 911.41 253.124 909.168 252.121C906.561 251.046 904.72 250.125 903.645 249.359C902.587 248.594 901.794 247.728 901.266 246.762C900.737 245.777 900.473 244.611 900.473 243.262C900.473 240.855 901.348 238.859 903.098 237.273C904.866 235.669 907.117 234.867 909.852 234.867C912.732 234.867 915.047 235.706 916.797 237.383C918.547 239.06 919.422 241.211 919.422 243.836H914.609C914.609 242.505 914.163 241.375 913.27 240.445C912.376 239.497 911.237 239.023 909.852 239.023C908.43 239.023 907.309 239.397 906.488 240.145C905.686 240.874 905.285 241.858 905.285 243.098C905.285 244.082 905.577 244.875 906.16 245.477C906.762 246.078 908.193 246.871 910.453 247.855C914.044 249.259 916.487 250.635 917.781 251.984C919.076 253.315 919.723 255.01 919.723 257.07C919.723 259.641 918.839 261.701 917.07 263.25C915.302 264.781 912.932 265.547 909.961 265.547C906.88 265.547 904.383 264.663 902.469 262.895C900.555 261.126 899.598 258.884 899.598 256.168H904.465C904.52 257.809 905.021 259.094 905.969 260.023C906.917 260.953 908.247 261.418 909.961 261.418C911.565 261.418 912.786 261.062 913.625 260.352C914.464 259.622 914.883 258.647 914.883 257.426Z" fill="white"/>
</svg>
