<svg width="433" height="127" viewBox="0 0 433 127" fill="none" xmlns="http://www.w3.org/2000/svg">
<rect width="433" height="126.292" fill="#E4E4E4"/>
<path d="M94.7195 87.2198V84.5489C96.3433 84.5489 97.8572 83.6748 98.6687 82.2692L100.982 83.6043C99.695 85.8342 97.2951 87.2198 94.7195 87.2198Z" fill="#2C2B2B"/>
<path d="M67.3238 76.6614L65.0105 75.3256L76.4313 55.5447C77.719 53.3139 80.119 51.9283 82.6937 51.9283H105.536V54.5993H82.6937C81.07 54.5993 79.5569 55.4733 78.7446 56.8798L67.3238 76.6614Z" fill="#2C2B2B"/>
<path d="M105.41 75.9344L103.103 74.5889L108.542 65.2569C108.555 65.2345 108.59 65.1743 108.543 65.0909C108.495 65.0076 108.425 65.0076 108.4 65.0076H89.7709C88.1472 65.0076 86.6333 65.8816 85.821 67.288L80.8319 75.9296L78.5193 74.5945L83.5085 65.9521C84.7962 63.7222 87.1962 62.3366 89.7709 62.3366H108.4C109.427 62.3366 110.346 62.869 110.859 63.7607C111.371 64.6523 111.368 65.714 110.85 66.6024L105.41 75.9344Z" fill="#2C2B2B"/>
<path d="M84.8644 87.2198H75.2815C72.7059 87.2198 70.3068 85.8342 69.019 83.6043L59.3005 66.771C58.0128 64.5402 58.0128 61.769 59.3005 59.5391L69.019 42.705C70.3068 40.4751 72.7059 39.0903 75.2815 39.0903H94.7199C97.2947 39.0903 99.6946 40.4751 100.982 42.705L98.6691 44.0409C97.8568 42.6345 96.3437 41.7612 94.7199 41.7612H75.2815C73.6577 41.7612 72.1438 42.6345 71.3323 44.0409L61.6131 60.875C60.8016 62.2814 60.8016 64.0287 61.6131 65.4351L71.3323 82.2692C72.1438 83.6748 73.6577 84.5488 75.2815 84.5488H84.8644C85.3166 84.5488 85.7392 84.3059 85.9669 83.9146L98.111 63.0015L100.42 64.343L88.2763 85.2561C87.573 86.4677 86.2652 87.2198 84.8644 87.2198Z" fill="#2C2B2B"/>
<path d="M157.239 62.2815V65.8176H144.01V77.6321H140.017V50.0091H160.234V53.5453H144.01V62.2815H157.239Z" fill="#2C2B2B"/>
<path d="M175.501 58.4958V62.0319H175.334C174.503 61.4498 173.463 61.117 172.298 61.117C168.554 61.117 166.765 63.6958 166.765 68.7707V77.632H163.229V58.163H166.224L166.308 61.283H166.391C167.555 58.9536 169.594 57.7468 172.547 57.7468C173.837 57.7468 174.836 58.0796 175.501 58.4958Z" fill="#2C2B2B"/>
<path d="M180.618 66.1087H193.763C193.264 62.947 190.767 60.9087 187.232 60.9087C183.904 60.9087 181.283 62.9887 180.618 66.1087ZM180.618 69.0619C181.116 72.6815 184.029 74.8866 188.438 74.8866C191.309 74.8866 193.805 73.9708 195.635 72.2236H195.801V75.8015C194.054 77.2159 191.392 78.0475 188.355 78.0475C181.491 78.0475 177.04 74.0125 177.04 67.8976C177.04 61.9487 181.241 57.747 187.19 57.747C193.18 57.747 197.049 61.4491 197.049 67.107V69.0619H180.618Z" fill="#2C2B2B"/>
<path d="M201.249 58.1628H204.785V77.6317H201.249V58.1628ZM205.327 52.0478C205.327 53.4205 204.37 54.3772 202.997 54.3772C201.624 54.3772 200.667 53.4205 200.667 52.0478C200.667 50.675 201.624 49.7177 202.997 49.7177C204.37 49.7177 205.327 50.675 205.327 52.0478Z" fill="#2C2B2B"/>
<path d="M226.043 67.8141C226.043 63.6958 223.255 60.9086 219.303 60.9086C215.31 60.9086 212.564 63.6958 212.564 67.8141C212.564 71.9324 215.31 74.7197 219.303 74.7197C223.255 74.7197 226.043 71.9324 226.043 67.8141ZM229.454 76.0924C229.454 82.249 225.543 85.952 218.929 85.952C215.518 85.952 212.606 84.9946 210.817 83.3724V79.6703H210.983C212.564 81.6252 215.352 82.7903 218.554 82.7903C223.255 82.7903 225.918 80.3358 225.918 75.8847V74.9281H225.834C224.295 76.7997 221.883 77.8814 218.721 77.8814C213.063 77.8814 208.987 73.7214 208.987 67.8141C208.987 61.9069 213.063 57.7469 218.721 57.7469C222.132 57.7469 224.794 59.0779 226.25 61.283H226.334L226.459 58.163H229.454V76.0924Z" fill="#2C2B2B"/>
<path d="M253.082 66.3164V77.6314H249.546V66.7326C249.546 63.0714 247.549 60.9088 244.262 60.9088C240.643 60.9088 238.48 63.4041 238.48 67.5224V77.6314H234.944V48.5113H238.48V60.576H238.563C239.935 58.7454 242.224 57.7463 245.094 57.7463C250.044 57.7463 253.082 60.9913 253.082 66.3164Z" fill="#2C2B2B"/>
<path d="M269.264 77.3404C268.39 77.7982 267.225 78.0476 265.728 78.0476C261.651 78.0476 259.362 75.6348 259.362 71.2671V61.2416H255.785V58.1625H259.446L259.987 52.8799H262.899V58.1625H269.18V61.2416H262.899V71.1838C262.899 73.5131 264.147 74.8859 266.227 74.8859C267.309 74.8859 268.307 74.5948 269.097 73.7633H269.264V77.3404Z" fill="#2C2B2B"/>
<path d="M295.345 77.6317H289.188V55.5005H280.952V50.0095H303.54V55.5005H295.345V77.6317Z" fill="#2C2B2B"/>
<path d="M318.64 58.4124V63.7375H318.432C317.6 63.1553 316.56 62.8226 315.353 62.8226C312.025 62.8226 310.527 64.8609 310.527 69.2286V77.632H305.078V58.0796H309.613L309.862 61.117H309.945C311.027 58.8285 312.941 57.6634 315.769 57.6634C317.018 57.6634 318.058 57.9553 318.64 58.4124Z" fill="#2C2B2B"/>
<path d="M335.112 77.6318L334.905 74.8445H334.821C333.656 76.8828 331.576 78.0479 328.748 78.0479C323.963 78.0479 321.134 74.9279 321.134 69.6445V58.0794H326.585V69.0207C326.585 71.7245 327.916 73.2224 330.203 73.2224C332.699 73.2224 334.197 71.5168 334.197 68.4794V58.0794H339.647V77.6318H335.112Z" fill="#2C2B2B"/>
<path d="M357.908 58.9119V64.112H357.7C356.41 62.8218 354.413 62.1562 351.876 62.1562C349.755 62.1562 348.715 62.7809 348.715 63.9869C348.715 64.8601 349.38 65.2353 351.96 65.4013C357.159 65.7341 359.197 67.5647 359.197 71.683C359.197 75.6763 356.202 78.0473 351.169 78.0473C347.924 78.0473 345.428 77.4652 343.764 76.3009V71.0584H344.013C345.553 72.723 347.882 73.5554 350.919 73.5554C353.041 73.5554 354.081 72.9307 354.081 71.683C354.081 70.643 353.248 70.2269 350.504 69.9775C345.553 69.5196 343.597 68.0218 343.597 64.1536C343.597 60.2013 346.801 57.6635 351.751 57.6635C354.122 57.6635 356.369 58.1213 357.908 58.9119Z" fill="#2C2B2B"/>
<path d="M374.797 77.3819C373.841 77.8398 372.634 78.0475 370.97 78.0475C366.227 78.0475 363.69 75.4687 363.69 70.5181V62.6976H360.445V58.0797H363.856L364.563 52.5887H369.139V58.0797H374.756V62.6976H369.139V70.3104C369.139 72.1819 370.138 73.2227 371.843 73.2227C372.842 73.2227 373.757 72.9725 374.589 72.0993H374.797V77.3819Z" fill="#2C2B2B"/>
</svg>
