<svg width="560" height="164" viewBox="0 0 560 164" fill="none" xmlns="http://www.w3.org/2000/svg">
<rect width="560" height="163.333" fill="white"/>
<path d="M122.501 112.802V109.347C124.601 109.347 126.559 108.217 127.608 106.399L130.6 108.126C128.936 111.01 125.832 112.802 122.501 112.802Z" fill="#2C2B2B"/>
<path d="M87.0701 99.1465L84.0782 97.4188L98.8488 71.8361C100.514 68.9511 103.618 67.1591 106.948 67.1591H136.49V70.6134H106.948C104.848 70.6134 102.891 71.7438 101.841 73.5628L87.0701 99.1465Z" fill="#2C2B2B"/>
<path d="M136.327 98.2061L133.343 96.466L140.378 84.3969C140.395 84.3679 140.44 84.2901 140.379 84.1823C140.317 84.0744 140.227 84.0744 140.193 84.0744H116.101C114.001 84.0744 112.043 85.2048 110.993 87.0237L104.54 98.1999L101.549 96.4732L108.002 85.296C109.667 82.412 112.771 80.62 116.101 80.62H140.193C141.522 80.62 142.711 81.3086 143.374 82.4618C144.037 83.615 144.033 84.988 143.363 86.1371L136.327 98.2061Z" fill="#2C2B2B"/>
<path d="M109.755 112.802H97.3617C94.0308 112.802 90.9279 111.01 89.2625 108.126L76.6936 86.3551C75.0281 83.47 75.0281 79.8861 76.6936 77.0021L89.2625 55.2305C90.9279 52.3465 94.0308 50.5555 97.3617 50.5555H122.502C125.831 50.5555 128.935 52.3465 130.6 55.2305L127.609 56.9582C126.558 55.1392 124.602 54.0099 122.502 54.0099H97.3617C95.2617 54.0099 93.3038 55.1392 92.2543 56.9582L79.6844 78.7298C78.6349 80.5487 78.6349 82.8084 79.6844 84.6274L92.2543 106.399C93.3038 108.217 95.2617 109.347 97.3617 109.347H109.755C110.34 109.347 110.887 109.033 111.181 108.527L126.887 81.48L129.874 83.2149L114.168 110.262C113.258 111.829 111.567 112.802 109.755 112.802Z" fill="#2C2B2B"/>
<path d="M203.358 80.5488V85.1221H186.249V100.402H181.084V64.6769H207.231V69.2502H186.249V80.5488H203.358Z" fill="#2C2B2B"/>
<path d="M226.976 75.6527V80.2261H226.76C225.685 79.4732 224.34 79.0428 222.833 79.0428C217.991 79.0428 215.677 82.3779 215.677 88.9413V100.402H211.104V75.2224H214.978L215.086 79.2575H215.194C216.7 76.2449 219.336 74.6841 223.156 74.6841C224.824 74.6841 226.115 75.1145 226.976 75.6527Z" fill="#2C2B2B"/>
<path d="M233.593 85.4986H250.594C249.948 81.4095 246.72 78.7734 242.148 78.7734C237.843 78.7734 234.454 81.4634 233.593 85.4986ZM233.593 89.318C234.238 93.9991 238.005 96.851 243.707 96.851C247.42 96.851 250.648 95.6667 253.016 93.407H253.231V98.0343C250.971 99.8636 247.528 100.939 243.6 100.939C234.723 100.939 228.966 95.7206 228.966 87.8122C228.966 80.1184 234.4 74.6843 242.094 74.6843C249.84 74.6843 254.844 79.4723 254.844 86.7897V89.318H233.593Z" fill="#2C2B2B"/>
<path d="M260.276 75.2221H264.849V100.401H260.276V75.2221ZM265.549 67.3135C265.549 69.0889 264.312 70.3261 262.537 70.3261C260.761 70.3261 259.523 69.0889 259.523 67.3135C259.523 65.5381 260.761 64.3 262.537 64.3C264.312 64.3 265.549 65.5381 265.549 67.3135Z" fill="#2C2B2B"/>
<path d="M292.342 87.7042C292.342 82.3779 288.737 78.7732 283.625 78.7732C278.461 78.7732 274.909 82.3779 274.909 87.7042C274.909 93.0304 278.461 96.6351 283.625 96.6351C288.737 96.6351 292.342 93.0304 292.342 87.7042ZM296.753 98.4105C296.753 106.373 291.696 111.162 283.141 111.162C278.73 111.162 274.964 109.924 272.65 107.826V103.038H272.865C274.909 105.566 278.515 107.073 282.657 107.073C288.737 107.073 292.18 103.899 292.18 98.1419V96.9048H292.072C290.082 99.3252 286.962 100.724 282.872 100.724C275.555 100.724 270.283 95.344 270.283 87.7042C270.283 80.0643 275.555 74.6842 282.872 74.6842C287.284 74.6842 290.727 76.4056 292.61 79.2575H292.718L292.88 75.2224H296.753V98.4105Z" fill="#2C2B2B"/>
<path d="M327.311 85.7672V100.401H322.738V86.3054C322.738 81.5703 320.156 78.7734 315.905 78.7734C311.225 78.7734 308.427 82.0007 308.427 87.3269V100.401H303.853V62.7398H308.427V78.3431H308.535C310.309 75.9755 313.269 74.6834 316.981 74.6834C323.383 74.6834 327.311 78.8803 327.311 85.7672Z" fill="#2C2B2B"/>
<path d="M348.239 100.025C347.11 100.617 345.603 100.939 343.666 100.939C338.394 100.939 335.434 97.8187 335.434 92.17V79.2039H330.808V75.2217H335.542L336.242 68.3897H340.008V75.2217H348.132V79.2039H340.008V92.0621C340.008 95.0747 341.622 96.8501 344.312 96.8501C345.711 96.8501 347.002 96.4737 348.024 95.3983H348.239V100.025Z" fill="#2C2B2B"/>
<path d="M381.97 100.401H374.008V71.779H363.356V64.6774H392.569V71.779H381.97V100.401Z" fill="#2C2B2B"/>
<path d="M412.098 75.5449V82.4318H411.829C410.753 81.6789 409.408 81.2486 407.847 81.2486C403.543 81.2486 401.606 83.8847 401.606 89.5335V100.402H394.558V75.1145H400.423L400.745 79.0428H400.853C402.252 76.0831 404.727 74.5763 408.385 74.5763C410 74.5763 411.345 74.9538 412.098 75.5449Z" fill="#2C2B2B"/>
<path d="M433.401 100.401L433.133 96.7966H433.025C431.518 99.4327 428.828 100.94 425.171 100.94C418.983 100.94 415.324 96.9044 415.324 90.0714V75.1142H422.373V89.2646C422.373 92.7615 424.094 94.6987 427.053 94.6987C430.281 94.6987 432.218 92.4929 432.218 88.5646V75.1142H439.266V100.401H433.401Z" fill="#2C2B2B"/>
<path d="M462.883 76.1909V82.9161H462.615C460.946 81.2475 458.364 80.3868 455.083 80.3868C452.339 80.3868 450.994 81.1946 450.994 82.7543C450.994 83.8837 451.854 84.369 455.19 84.5837C461.915 85.014 464.551 87.3816 464.551 92.7078C464.551 97.8723 460.677 100.939 454.168 100.939C449.971 100.939 446.743 100.186 444.591 98.6801V91.9H444.913C446.904 94.0529 449.917 95.1293 453.844 95.1293C456.588 95.1293 457.933 94.3214 457.933 92.7078C457.933 91.3628 456.857 90.8246 453.307 90.502C446.904 89.9099 444.375 87.9727 444.375 82.97C444.375 77.8585 448.518 74.5763 454.921 74.5763C457.987 74.5763 460.893 75.1684 462.883 76.1909Z" fill="#2C2B2B"/>
<path d="M484.726 100.078C483.489 100.67 481.928 100.939 479.777 100.939C473.642 100.939 470.361 97.6039 470.361 91.2012V81.087H466.164V75.1147H470.576L471.491 68.0131H477.409V75.1147H484.672V81.087H477.409V90.9326C477.409 93.3531 478.7 94.6991 480.906 94.6991C482.198 94.6991 483.381 94.3756 484.457 93.2463H484.726V100.078Z" fill="#2C2B2B"/>
</svg>
