<svg width="1128" height="482" viewBox="0 0 1128 482" fill="none" xmlns="http://www.w3.org/2000/svg">
<rect width="1128" height="482" fill="#E8F7FF" fill-opacity="0.4"/>
<path d="M361.501 281.031V276.589C364.201 276.589 366.719 275.136 368.068 272.799L371.915 275.019C369.775 278.727 365.784 281.031 361.501 281.031Z" fill="#002D7B"/>
<path d="M315.947 263.474L312.101 261.253L331.091 228.361C333.233 224.651 337.223 222.347 341.505 222.347H379.487V226.789H341.505C338.805 226.789 336.289 228.242 334.938 230.581L315.947 263.474Z" fill="#002D7B"/>
<path d="M379.278 262.265L375.441 260.028L384.486 244.51C384.507 244.473 384.566 244.373 384.487 244.234C384.407 244.096 384.291 244.096 384.249 244.096H353.273C350.573 244.096 348.055 245.549 346.705 247.888L338.409 262.257L334.563 260.037L342.859 245.666C345.001 241.958 348.991 239.654 353.273 239.654H384.249C385.957 239.654 387.486 240.54 388.338 242.022C389.19 243.505 389.185 245.27 388.323 246.748L379.278 262.265Z" fill="#002D7B"/>
<path d="M345.114 281.031H329.179C324.897 281.031 320.907 278.727 318.766 275.019L302.606 247.028C300.465 243.319 300.465 238.711 302.606 235.003L318.766 207.011C320.907 203.303 324.897 201 329.179 201H361.502C365.783 201 369.774 203.303 371.914 207.011L368.069 209.232C366.718 206.893 364.202 205.441 361.502 205.441H329.179C326.479 205.441 323.962 206.893 322.613 209.232L306.451 237.224C305.102 239.563 305.102 242.468 306.451 244.807L322.613 272.799C323.962 275.136 326.479 276.589 329.179 276.589H345.114C345.866 276.589 346.569 276.185 346.947 275.535L367.141 240.76L370.981 242.991L350.787 277.765C349.618 279.78 347.443 281.031 345.114 281.031Z" fill="#002D7B"/>
<path d="M465.46 239.563V245.443H443.462V265.088H436.822V219.156H470.44V225.036H443.462V239.563H465.46Z" fill="black"/>
<path d="M495.826 233.268V239.148H495.549C494.166 238.18 492.437 237.626 490.5 237.626C484.274 237.626 481.3 241.914 481.3 250.353V265.088H475.42V232.714H480.401L480.54 237.902H480.678C482.614 234.029 486.004 232.022 490.914 232.022C493.06 232.022 494.72 232.576 495.826 233.268Z" fill="black"/>
<path d="M504.334 245.927H526.193C525.362 240.669 521.211 237.28 515.333 237.28C509.798 237.28 505.441 240.739 504.334 245.927ZM504.334 250.837C505.163 256.856 510.006 260.523 517.338 260.523C522.111 260.523 526.262 259 529.306 256.095H529.582V262.044C526.677 264.396 522.25 265.779 517.199 265.779C505.786 265.779 498.385 259.069 498.385 248.901C498.385 239.009 505.371 232.023 515.263 232.023C525.223 232.023 531.657 238.179 531.657 247.587V250.837H504.334Z" fill="black"/>
<path d="M538.641 232.714H544.521V265.087H538.641V232.714ZM545.421 222.546C545.421 224.829 543.83 226.419 541.547 226.419C539.265 226.419 537.673 224.829 537.673 222.546C537.673 220.263 539.265 218.671 541.547 218.671C543.83 218.671 545.421 220.263 545.421 222.546Z" fill="black"/>
<path d="M579.868 248.763C579.868 241.915 575.233 237.28 568.661 237.28C562.021 237.28 557.454 241.915 557.454 248.763C557.454 255.611 562.021 260.245 568.661 260.245C575.233 260.245 579.868 255.611 579.868 248.763ZM585.54 262.528C585.54 272.765 579.037 278.923 568.038 278.923C562.366 278.923 557.525 277.331 554.55 274.633V268.477H554.826C557.454 271.728 562.09 273.665 567.416 273.665C575.233 273.665 579.66 269.584 579.66 262.183V260.592H579.521C576.962 263.704 572.95 265.503 567.693 265.503C558.285 265.503 551.506 258.585 551.506 248.763C551.506 238.94 558.285 232.023 567.693 232.023C573.365 232.023 577.792 234.236 580.213 237.903H580.352L580.56 232.715H585.54V262.528Z" fill="black"/>
<path d="M624.829 246.272V265.087H618.949V246.964C618.949 240.876 615.629 237.28 610.163 237.28C604.146 237.28 600.549 241.429 600.549 248.277V265.087H594.669V216.665H600.549V236.727H600.687C602.969 233.683 606.774 232.021 611.547 232.021C619.778 232.021 624.829 237.417 624.829 246.272Z" fill="black"/>
<path d="M651.736 264.603C650.284 265.364 648.347 265.779 645.856 265.779C639.078 265.779 635.272 261.767 635.272 254.504V237.834H629.324V232.714H635.411L636.311 223.93H641.154V232.714H651.598V237.834H641.154V254.366C641.154 258.239 643.228 260.522 646.687 260.522C648.486 260.522 650.146 260.038 651.459 258.655H651.736V264.603Z" fill="black"/>
<path d="M695.105 265.087H684.868V228.287H671.172V219.157H708.732V228.287H695.105V265.087Z" fill="#002D7B"/>
<path d="M733.84 233.129V241.984H733.495C732.111 241.016 730.381 240.462 728.375 240.462C722.841 240.462 720.351 243.852 720.351 251.114V265.088H711.289V232.576H718.829L719.244 237.626H719.383C721.181 233.821 724.364 231.884 729.067 231.884C731.143 231.884 732.872 232.369 733.84 233.129Z" fill="#002D7B"/>
<path d="M761.23 265.087L760.885 260.453H760.746C758.809 263.842 755.35 265.779 750.648 265.779C742.692 265.779 737.988 260.591 737.988 251.806V232.575H747.05V250.769C747.05 255.265 749.264 257.755 753.068 257.755C757.218 257.755 759.709 254.919 759.709 249.869V232.575H768.77V265.087H761.23Z" fill="#002D7B"/>
<path d="M799.135 233.96V242.606H798.79C796.645 240.461 793.325 239.354 789.106 239.354C785.578 239.354 783.849 240.393 783.849 242.398C783.849 243.85 784.955 244.474 789.245 244.75C797.89 245.304 801.279 248.348 801.279 255.196C801.279 261.836 796.299 265.778 787.93 265.778C782.534 265.778 778.383 264.81 775.617 262.874V254.157H776.031C778.591 256.925 782.465 258.309 787.514 258.309C791.042 258.309 792.771 257.27 792.771 255.196C792.771 253.466 791.387 252.774 786.823 252.36C778.591 251.598 775.339 249.108 775.339 242.676C775.339 236.104 780.666 231.884 788.898 231.884C792.841 231.884 796.577 232.645 799.135 233.96Z" fill="#002D7B"/>
<path d="M827.219 264.672C825.629 265.433 823.622 265.779 820.855 265.779C812.969 265.779 808.75 261.491 808.75 253.259V240.255H803.354V232.576H809.026L810.202 223.445H817.811V232.576H827.15V240.255H817.811V252.913C817.811 256.025 819.471 257.756 822.307 257.756C823.969 257.756 825.49 257.34 826.873 255.888H827.219V264.672Z" fill="#002D7B"/>
</svg>
